<?xml version="1.0" encoding="UTF-8"?>
<svg width="110px" height="60px" viewBox="0 0 110 60" version="1.1" xmlns="http://www.w3.org/2000/svg" xmlns:xlink="http://www.w3.org/1999/xlink">
    <title>Media/Brand Logos/Dark/brand-tommy-hilfiger-dark</title>
    <g id="Media/Brand-Logos/Dark/brand-tommy-hilfiger-dark" stroke="none" stroke-width="1" fill="none" fill-rule="evenodd">
        <path d="M60.3066222,49.2602968 L59.5618683,49.2602968 L59.5618683,47.0049573 L56.6611424,47.0049573 L56.6611424,49.2602968 L55.9163885,49.2602968 L55.9163885,44.0791386 L56.6611424,44.0791386 L56.6611424,46.3354818 L59.5618683,46.3354818 L59.5618683,44.0791386 L60.3066222,44.0791386 L60.3066222,49.2602968 L60.3066222,49.2602968 L60.3066222,49.2602968 Z M64.1347774,49.2602968 L63.3900236,49.2602968 L63.3900236,44.0791386 L64.1347774,44.0791386 L64.1347774,49.2602968 L64.1347774,49.2602968 L64.1347774,49.2602968 Z M67.9328214,48.591825 L70.2734763,48.591825 L70.2734763,49.2602968 L67.1880675,49.2602968 L67.1880675,44.0791386 L67.9328214,44.0791386 L67.9328214,48.591825 L67.9328214,48.591825 L67.9328214,48.591825 Z M75.1756028,44.7476103 L73.1551318,44.7476103 L73.1551318,46.1839214 L75.1756028,46.1839214 L75.1756028,46.8513894 L73.1551318,46.8513894 L73.1551318,49.2602968 L72.4093742,49.2602968 L72.4093742,44.0791386 L75.1756028,44.0791386 L75.1756028,44.7476103 L75.1756028,44.7476103 L75.1756028,44.7476103 Z M78.523984,49.2602968 L77.7802339,49.2602968 L77.7802339,44.0791386 L78.523984,44.0791386 L78.523984,49.2602968 L78.523984,49.2602968 L78.523984,49.2602968 Z M85.6111902,48.9029755 C84.9206368,49.2060964 84.3595621,49.3285492 83.6368899,49.3285492 C82.0500222,49.3285492 80.878691,48.2194481 80.878691,46.7008327 C80.878691,45.1822174 82.0801335,44.0118899 83.6589715,44.0118899 C84.2682244,44.0118899 84.6917906,44.1102536 85.5058005,44.4515155 L85.5058005,45.204299 C84.8975514,44.8710669 84.2682244,44.6954174 83.6449196,44.6954174 C82.5197591,44.6954174 81.6465302,45.5535906 81.6465302,46.6777474 C81.6465302,47.8019041 82.5127331,48.6460254 83.7422796,48.6460254 C84.1457716,48.6460254 84.5101188,48.5546877 84.8664364,48.4402646 L84.8664364,47.3773342 L83.8717584,47.3773342 L83.8717584,46.7088624 L85.6111902,46.7088624 L85.6111902,48.9039792 L85.6111902,48.9039792 L85.6111902,48.9029755 Z M91.3845382,44.7476103 L89.1884176,44.7476103 L89.1884176,46.3123964 L91.3092598,46.3123964 L91.3092598,46.9818719 L89.1884176,46.9818719 L89.1884176,48.591825 L91.4527906,48.591825 L91.4527906,49.2602968 L88.4446675,49.2602968 L88.4446675,44.0791386 L91.3845382,44.0791386 L91.3845382,44.7476103 L91.3845382,44.7476103 L91.3845382,44.7476103 Z M94.7419528,46.3425078 L95.2197194,46.3425078 C96.01767,46.3425078 96.2455125,45.9329935 96.2384865,45.5003939 C96.2304568,45.0135939 95.9413879,44.717499 95.2197194,44.717499 L94.7419528,44.717499 L94.7419528,46.3425078 L94.7419528,46.3425078 Z M95.3040312,44.0791386 C96.3519059,44.0791386 97.005322,44.6331873 97.005322,45.5295015 C97.005322,46.1307247 96.6941715,46.5783799 96.1391191,46.7991964 C96.6098597,47.110347 96.8989286,47.5891173 97.2933872,48.2355075 C97.5142037,48.591825 97.6436825,48.7674745 98,49.2602968 L97.1127191,49.2602968 L96.428188,48.1963627 C95.7456642,47.1334323 95.4325062,47.0119833 95.054107,47.0119833 L94.7429565,47.0119833 L94.7429565,49.2602968 L93.9982027,49.2602968 L93.9982027,44.0801423 L95.3040312,44.0801423 L95.3040312,44.0791386 Z M16.3290073,44.7476103 L14.5363787,44.7476103 L14.5363787,49.2602968 L13.7926286,49.2602968 L13.7926286,44.7476103 L12,44.7476103 L12,44.0791386 L16.3290073,44.0791386 L16.3290073,44.7476103 L16.3290073,44.7476103 L16.3290073,44.7476103 Z M21.8363717,48.6450217 C22.9976658,48.6450217 23.8568427,47.8019041 23.8568427,46.668714 C23.8568427,45.5355238 22.9976658,44.6944136 21.8363717,44.6944136 C20.6750776,44.6944136 19.8229266,45.5295015 19.8229266,46.668714 C19.8229266,47.8079264 20.6800962,48.6450217 21.8363717,48.6450217 M21.8363717,44.0108862 C23.5456922,44.0108862 24.6236783,45.2263807 24.6236783,46.668714 C24.6236783,48.1110472 23.5758036,49.3275455 21.821316,49.3275455 C20.0668285,49.3275455 19.0560911,48.0749136 19.0560911,46.668714 C19.0560911,45.2625143 20.1571625,44.0108862 21.8363717,44.0108862 M32.9474569,49.2602968 L32.2047104,49.2602968 L32.2047104,45.2263807 L32.1896548,45.2263807 L30.5947574,47.2317961 L30.4733083,47.2317961 L28.8774072,45.2263807 L28.8623515,45.2263807 L28.8623515,49.2602968 L28.1186013,49.2602968 L28.1186013,44.0791386 L28.8171845,44.0791386 L30.533531,46.206003 L32.2579071,44.0791386 L32.9474569,44.0791386 L32.9474569,49.2602968 L32.9474569,49.2602968 L32.9474569,49.2602968 Z M41.9878854,49.2602968 L41.2431316,49.2602968 L41.2431316,45.2263807 L41.2290796,45.2263807 L39.6331785,47.2317961 L39.5117294,47.2317961 L37.9158283,45.2263807 L37.9017763,45.2263807 L37.9017763,49.2602968 L37.1570225,49.2602968 L37.1570225,44.0791386 L37.8566093,44.0791386 L39.5719521,46.206003 L41.2963283,44.0791386 L41.9878854,44.0791386 L41.9878854,49.2602968 L41.9878854,49.2602968 L41.9878854,49.2602968 Z M48.9084755,44.0791386 L49.8047898,44.0791386 L47.8816788,46.5251832 L47.8816788,49.2602968 L47.1379286,49.2602968 L47.1379286,46.5181573 L45.216825,44.0791386 L46.1121356,44.0791386 L47.5022759,45.8647411 L48.9084755,44.0791386 L48.9084755,44.0791386 L48.9084755,44.0791386 Z M74.4793421,10 L74.4793421,35.4804685 L35.5971295,35.4804685 L35.5971295,10 L74.4793421,10 Z M73.5151295,28.715 L36.5221295,28.715 L36.5227563,34.7018207 L73.5157436,34.7018207 L73.5151295,28.715 Z M54.6821322,17.5671991 L36.5227563,17.5671991 L36.5221295,28.046 L54.6821295,28.046 L54.6821322,17.5671991 Z M73.5156625,17.5671991 L55.3468699,17.5671991 L55.3461295,28.046 L73.5151295,28.046 L73.5156625,17.5671991 Z M73.5157436,10.9161388 L36.5227563,10.9161388 L36.5227563,16.8977342 L73.5157436,16.8977342 L73.5157436,10.9161388 Z" id="Image" fill="#252324" fill-rule="nonzero"></path>
    </g>
</svg>