<?xml version="1.0" encoding="UTF-8"?>
<svg width="110px" height="60px" viewBox="0 0 110 60" version="1.1" xmlns="http://www.w3.org/2000/svg" xmlns:xlink="http://www.w3.org/1999/xlink">
    <title>Media/Brand Logos/Dark/brand-asics-dark</title>
    <g id="Symbols" stroke="none" stroke-width="1" fill="none" fill-rule="evenodd">
        <g id="Media/Brand-Logos/Dark/brand-asics-dark" fill="#252324" fill-rule="nonzero">
            <g id="Image" transform="translate(19.000000, 18.000000)">
                <path d="M7.45974666,17.0213683 C6.09032457,17.0213683 5.43210257,15.9685828 5.77584415,14.7507027 C6.48550418,12.2265429 11.0456243,8.4860432 14.153159,8.4860432 C16.4192046,8.4860432 16.2467177,10.5136873 14.9182613,12.2431756 L14.1839603,13.0560197 C11.5501482,15.6405498 9.10853579,17.0213683 7.45974666,17.0213683 M18.5666654,0 C14.6007007,0.00154006083 10.2333962,2.4277519 7.49054788,4.72552266 L7.70708043,5.03938706 C11.9644246,2.05505717 17.8717899,0.114580526 19.5002503,3.0252955 C20.3602202,4.56073615 18.9005506,7.66180264 16.8448774,10.1126554 C17.3364648,9.0303007 17.01182,6.95214261 14.1454587,6.95214261 C9.38051053,6.95214261 0,13.2642359 0,19.7241751 C0,22.3117853 1.79509491,24 4.7520117,24 C12.6666923,24 23.4003003,11.0265275 23.4003003,4.51053017 C23.4003003,2.20875525 22.076156,0 18.5666654,0" id="Shape"></path>
                <path d="M28.7563239,17.0213683 C28.2955377,17.0213683 27.9120625,16.860586 27.672121,16.5670504 C27.4220152,16.2593462 27.3474762,15.823201 27.4660609,15.3728872 C27.7294113,14.3958726 28.7825049,13.6283063 29.8654757,13.6283063 L32.4127363,13.6283063 L31.5025604,17.0213683 L28.7563239,17.0213683 L28.7563239,17.0213683 Z M36.077157,6.84957456 C35.3487083,5.95387518 34.1693297,5.55315135 33.3253764,5.55315135 L28.6965695,5.55315135 L27.9108305,8.4835791 L32.2762869,8.4835791 L32.6945674,8.52762484 C32.6988796,8.52762484 33.0952913,8.57382667 33.316444,8.87136642 C33.4950911,9.12024025 33.5212721,9.48985485 33.392831,9.974666 L33.1864629,10.7459285 L30.4359142,10.7459285 C28.0685327,10.7459285 24.7681823,12.4443076 24.0323413,15.1874639 C23.6664228,16.5553459 23.9870635,17.7402687 24.6979556,18.6110191 C25.4033034,19.4753013 26.734532,19.9524121 28.1726408,19.9524121 L30.7199014,19.9524121 L30.7183614,19.9524121 L33.9558773,19.9524121 L35.4743772,14.2816001 L36.5921534,10.1132715 C37.0310707,8.47433874 36.5554999,7.43325761 36.077157,6.84957456" id="Shape"></path>
                <path d="M67.873869,5.55315135 C66.6214915,5.55315135 65.4578216,5.92368999 64.5116082,6.62503369 C63.5561545,7.33253764 63.0291457,8.18265121 62.7149732,9.35525353 C62.0333423,11.8966619 64.0304932,13.1231664 65.6352366,13.9926847 C66.7862781,14.6161013 67.7817734,15.1538906 67.5661649,15.95041 C67.4140069,16.5220806 67.164209,17.0222924 65.7482771,17.0222924 L61.4259423,17.0222924 L60.6417433,19.9524121 L65.4260963,19.9524121 C66.708967,19.9524121 67.8929658,19.6853656 68.8468795,18.9529126 C69.8017172,18.2179956 70.3413545,17.1941632 70.6749317,15.9445578 C70.9952643,14.7553228 70.7793478,13.619374 70.0139376,12.7717245 C69.3760444,12.0599084 68.4584761,11.5655488 67.6499442,11.1287876 C66.6137912,10.5712856 65.6367767,10.0452008 65.8074154,9.4076156 C65.9118315,9.02167636 66.2946906,8.4835791 67.1315597,8.4835791 L71.3362338,8.4835791 L72.1222808,5.55315135 L67.873869,5.55315135 Z" id="Path"></path>
                <path d="M42.7893582,5.55315135 C41.5372887,5.55315135 40.3739268,5.92368999 39.4274054,6.62503369 C38.4719516,7.33253764 37.9449428,8.18265121 37.6276903,9.35525353 C36.9475994,11.8966619 38.9462904,13.1231664 40.5507258,13.9926847 C41.7023832,14.6161013 42.6954145,15.1538906 42.481962,15.95041 C42.328264,16.5220806 42.0796981,17.0222924 40.6637662,17.0222924 L36.3420475,17.0222924 L35.5563085,19.9524121 L40.3403534,19.9524121 C41.6247642,19.9524121 42.8084549,19.6853656 43.7623686,18.9529126 C44.7187464,18.2179956 45.2571517,17.1941632 45.5907288,15.9445578 C45.9098294,14.7553228 45.6936049,13.619374 44.9312748,12.7717245 C44.2933816,12.0599084 43.3742733,11.5655488 42.5642013,11.1287876 C41.5295884,10.5712856 40.5538059,10.0452008 40.7247526,9.4076156 C40.8273207,9.02167636 41.2117199,8.4835791 42.0470489,8.4835791 L46.2492588,8.4835791 L47.0365379,5.55315135 L42.7893582,5.55315135 Z" id="Path"></path>
                <polygon id="Path" points="49.317368 5.55315135 45.5648558 19.9524121 48.735225 19.9524121 52.4846571 5.55315135"></polygon>
                <path d="M60.9189543,5.55315135 C55.3374658,5.57317214 52.4165865,9.29026297 51.4894698,12.7529357 C50.3910984,16.8587379 52.5767528,19.9527201 56.5738267,19.9527201 L59.2523005,19.9527201 L60.0364994,17.0226004 L57.3589497,17.0226004 C55.8629346,17.0226004 53.8057213,15.8453779 54.6348901,12.7529357 C55.2934201,10.2949987 57.6900628,8.48388711 60.3189466,8.48388711 L62.0197898,8.48388711 L62.8055288,5.55345936 L60.9189543,5.55345936 L60.9189543,5.55315135 Z" id="Path"></path>
            </g>
        </g>
    </g>
</svg>