<?xml version="1.0" encoding="UTF-8"?>
<svg width="110px" height="60px" viewBox="0 0 110 60" version="1.1" xmlns="http://www.w3.org/2000/svg" xmlns:xlink="http://www.w3.org/1999/xlink">
    <title>Media/Brand Logos/Dark/brand-timberland-dark</title>
    <g id="Symbols" stroke="none" stroke-width="1" fill="none" fill-rule="evenodd">
        <g id="Media/Brand-Logos/Dark/brand-timberland-dark" fill="#252324" fill-rule="nonzero">
            <g id="Image" transform="translate(11.000000, 22.000000)">
                <path d="M86.3895888,2.02269108 C86.3895888,1.57536517 86.7435597,1.21361465 87.1908857,1.20972486 C87.4040749,1.2076525 87.6093006,1.29062503 87.7611463,1.44028072 C87.9129921,1.58993641 87.9989372,1.79393503 87.9999621,2.00713192 C88.0020345,2.2203212 87.9190619,2.42554683 87.7694062,2.5773926 C87.6197505,2.72923837 87.4157519,2.81518347 87.202555,2.81620835 C86.7668985,2.82787772 86.4090378,2.48168636 86.3973684,2.04991961 L86.3973684,2.03825024 L86.3895888,2.02269108 Z M87.1947755,2.68784526 C87.5604158,2.70729422 87.8754888,2.4272293 87.8988275,2.06158899 L87.8988275,2.0576992 C87.9182765,1.68816909 87.6382116,1.37309606 87.2686815,1.35364711 C86.8991514,1.33419815 86.5840783,1.61426307 86.5646294,1.98379318 L86.5646294,2.02269108 C86.5412906,2.36888244 86.8057964,2.66839631 87.1519878,2.68784526 L87.1947755,2.68784526 Z M87.0275145,2.47779657 L86.887482,2.47779657 L86.887482,1.5636958 L87.2375631,1.5636958 C87.4515016,1.5636958 87.5643056,1.6453814 87.5643056,1.82820155 C87.5720851,1.96045443 87.4709506,2.07325836 87.3386977,2.08103794 L87.5954239,2.48168636 L87.4398323,2.48168636 L87.202555,2.08492773 L87.0391838,2.08492773 L87.0275145,2.47779657 L87.0275145,2.47779657 Z M87.1947755,1.96434422 C87.315359,1.96434422 87.4164935,1.96434422 87.4164935,1.81264239 C87.4164935,1.66094056 87.315359,1.68038951 87.222004,1.68038951 L87.0275145,1.68038951 L87.0275145,1.96434422 L87.1947755,1.96434422 Z M60.9736974,2.02269108 C60.9698076,1.57925496 61.3276684,1.21361465 61.7711045,1.21361465 C62.2145406,1.21361465 62.5801809,1.56758559 62.5801809,2.01102171 C62.5822533,2.22421099 62.4992807,2.42943662 62.3496251,2.58128239 C62.1999694,2.73312816 61.9959707,2.81907326 61.7827739,2.82009814 C61.3471173,2.83176751 60.981477,2.48557615 60.9736974,2.04602982 L60.9736974,2.02269108 Z M61.7827739,2.68784526 C62.1484142,2.70729422 62.4634872,2.4272293 62.4868259,2.06158899 L62.4868259,2.0576992 C62.5062749,1.68816909 62.22621,1.37309606 61.8566799,1.35364711 C61.4871498,1.33419815 61.1720767,1.61426307 61.1526278,1.98379318 L61.1526278,2.02269108 C61.129289,2.36888244 61.3937948,2.66839631 61.7399862,2.68784526 L61.7827739,2.68784526 Z M61.5999537,2.47779657 L61.4599212,2.47779657 L61.4599212,1.5636958 L61.8061126,1.5636958 C62.0278307,1.5636958 62.132855,1.6453814 62.132855,1.82820155 C62.1406346,1.96045443 62.0395,2.07325836 61.9072472,2.08103794 L62.1639733,2.48168636 L62.0122715,2.48168636 L61.7672147,2.08492773 L61.5960639,2.08492773 L61.5960639,2.47779657 L61.5999537,2.47779657 Z M61.7633249,1.96434422 C61.8839084,1.96434422 61.9889328,1.96434422 61.9889328,1.81264239 C61.9889328,1.66094056 61.8839084,1.68038951 61.7866636,1.68038951 L61.5999537,1.68038951 L61.5999537,1.96434422 L61.7633249,1.96434422 Z M9.19280577,0.688492925 C9.19280577,0.72350104 9.20447514,0.758509155 9.22392409,0.789627479 C9.40674425,1.4820102 9.57011545,2.1782827 9.72181728,2.88233479 C9.82684163,3.38022798 9.92797618,3.88201096 10.0252209,4.38379394 C10.0641188,4.605512 9.98632304,4.82723006 9.82295183,4.98282168 C9.70625812,5.11507456 9.54288692,5.20064995 9.36395655,5.2200989 C9.11500996,5.23176828 8.86995315,5.13063372 8.70269216,4.94392378 C8.17368065,4.15818609 8.00641965,3.22074657 7.36460421,2.51280469 C7.32064782,2.47008548 7.26739138,2.43813161 7.20901259,2.41944972 C7.15077514,2.38896954 7.08753282,2.36920632 7.02230265,2.36110286 C6.93858883,2.34460222 6.85173538,2.35838848 6.77724584,2.40000076 C6.74612752,2.42333951 6.71500919,2.45056804 6.68778066,2.48168636 L6.61387464,2.5478128 L6.61387464,13.7504096 C6.60998485,13.9565685 6.68778066,14.1549478 6.82781312,14.3027598 C6.96395579,14.4466821 7.14288615,14.5478166 7.33737568,14.5867145 C7.52797542,14.5244779 7.68745683,14.392225 7.78470159,14.2171844 C7.85471782,14.0732622 7.88972594,13.9137808 7.88972594,13.7504096 L7.88972594,7.99351956 C7.9052851,7.88460542 7.88972594,7.7718015 7.84693824,7.67455673 C7.80804034,7.60065071 7.75358327,7.53452427 7.68356704,7.48784679 C7.54353458,7.39449182 7.40739191,7.29335726 7.28291861,7.18055334 C7.25180029,7.14165543 7.22457175,7.10275752 7.20123301,7.05996983 L7.20123301,7.0288515 C7.15844532,6.91604758 7.28291861,6.79157428 7.36460421,6.72155805 C7.45795919,6.63987245 7.56687332,6.5776358 7.67967725,6.52706852 C8.16201127,6.30146067 8.67157384,6.14975884 9.16946702,5.95526932 C9.35617697,5.87358371 9.55455629,5.79189811 9.74126623,5.69854314 C9.86184974,5.63630649 10.0018822,5.60907796 10.1380249,5.62463712 C10.2313798,5.61296775 10.3286246,5.61296775 10.4219796,5.62463712 C10.5347835,5.65964523 10.6203589,5.74911042 10.655367,5.86191434 C10.6631466,5.93971015 10.6631466,6.01750596 10.655367,6.09530177 L10.655367,13.6376056 C10.655367,13.9254501 10.7176037,14.3416577 11.0015584,14.4933595 C11.063795,14.5128085 11.1221419,14.540037 11.1765989,14.5750452 C11.2077173,14.6139431 11.2271662,14.6567308 11.2349458,14.707298 C11.2388356,14.8084326 11.2154968,14.9095671 11.1649296,14.9951425 C10.989889,15.2013014 10.7253832,15.3102156 10.4530979,15.2907666 L7.93640342,15.2907666 C7.81581992,15.302436 7.69523641,15.2868768 7.58632227,15.2401993 C7.48518772,15.1857423 7.39183275,15.1196158 7.31014715,15.0379302 C6.93283746,15.2713177 6.49329113,15.376342 6.0537448,15.3452237 L4.52505712,15.3452237 C4.13218828,15.395791 3.73542964,15.395791 3.3425608,15.3452237 C3.2180875,15.3218849 3.09750399,15.282987 2.98470007,15.2324198 C2.88356551,15.1818525 2.77854117,15.1273954 2.74742284,15.0068119 C2.73575347,14.948465 2.73575347,14.8862284 2.74742284,14.8239917 C2.74742284,14.6606205 2.91857363,14.6022737 3.05082651,14.5555962 C3.11306315,14.5322575 3.17141001,14.4972493 3.22197729,14.4544616 C3.27254457,14.4038944 3.31533226,14.3455475 3.3425608,14.2794211 C3.40090765,14.1627274 3.43591577,14.0382541 3.44758514,13.909891 C3.45925451,13.7504096 3.45925451,13.5870384 3.44758514,13.4275569 L3.44758514,5.27066618 L3.38923828,2.57504134 C3.30366289,2.45056804 3.15196106,2.38055181 3.00025923,2.40000076 C2.70463515,2.39611097 2.52959457,2.72674317 2.37400295,2.93679186 C2.03559118,3.56693792 1.80220374,4.1931942 1.49880008,4.82334027 C1.39766553,5.02949917 1.21873516,5.18898058 1.00090689,5.2628866 C0.69750323,5.36013136 0.366871034,5.2628866 0.164601926,5.0178298 C-0.185479222,4.57050388 0.125704021,4.01037405 0.164601926,3.50859107 L0.366871034,2.5906005 C0.491344331,2.03047066 0.611927838,1.4781204 0.732511345,0.917990567 C0.77140925,0.742949993 0.876433595,0.466774865 1.08259249,0.420097378 C1.17983726,0.381199473 1.28875139,0.381199473 1.38599616,0.420097378 C1.47157155,0.466774865 1.54547757,0.521231932 1.61160401,0.587358371 C1.67773045,0.657374601 1.75941605,0.715721459 1.84499144,0.762398946 C1.96168516,0.801296851 2.08615845,0.801296851 2.20285217,0.762398946 L8.01808902,0.762398946 C8.22424792,0.762398946 8.38372934,0.560129838 8.54710054,0.458995284 C8.61711677,0.388979054 8.70658195,0.346191358 8.80382671,0.334521986 C8.9321898,0.35786073 9.04110394,0.443436121 9.09945079,0.560129838 C9.13445891,0.599027743 9.16557723,0.641815439 9.19280577,0.688492925 Z M45.3484088,0.871313081 C45.4612128,0.995786378 45.51178,1.16693716 45.4884413,1.33808795 L45.4884413,13.3925488 C45.4689923,13.6531648 45.5078902,13.9137808 45.6090248,14.1549478 C45.6673717,14.2794211 45.752947,14.3883352 45.865751,14.4700208 C45.9163182,14.4894698 45.9629957,14.5205881 46.0057834,14.5517064 C46.0407915,14.5906043 46.0602405,14.6372818 46.0680201,14.6917389 C46.0991384,14.7889836 46.0991384,14.8901182 46.0680201,14.9873629 C45.9279876,15.356893 45.5273392,15.4074603 45.1694785,15.4074603 L42.8861714,15.4074603 C42.633335,15.4191297 42.3960578,15.2985462 42.2560254,15.0884975 C42.2093479,15.0107017 42.1860091,14.9251263 42.1860091,14.8356611 C42.1743397,14.7539755 42.1898989,14.6684001 42.2365764,14.5983839 C42.3065926,14.5361472 42.3804986,14.4816902 42.4621842,14.4350127 C42.5399801,14.3766658 42.6099963,14.3144292 42.6683431,14.2405232 C42.7733675,14.0654826 42.820045,13.8593237 42.7928164,13.6570546 L42.7928164,7.39449182 C42.6061065,7.84570752 42.7928164,8.49530254 42.3143722,8.75980829 C42.077095,8.84927348 41.8086994,8.78703683 41.6336589,8.60421667 C41.5441937,8.50697191 41.4741775,8.39805777 41.4275,8.27747427 C41.3963816,8.20745804 41.3691531,8.13744181 41.3458144,8.06353579 C41.3030267,7.93906249 41.3069165,7.80680961 41.1318759,7.79514024 C41.019072,7.79903003 40.9140476,7.83014836 40.8168029,7.88849521 C40.5017298,8.11410306 40.2333343,8.39805777 40.0310652,8.73257976 C39.8287961,9.05154258 39.680984,9.40162373 39.5992984,9.77115383 C39.5176128,10.1523533 39.4748251,10.5413324 39.4670455,10.9342012 C39.4670455,11.1559193 39.4670455,14.0265847 39.5176128,14.131609 C39.5798495,14.2405232 39.6770942,14.3222088 39.7937879,14.3649965 C39.9065919,14.4155637 40.0777426,14.5050289 40.0777426,14.6606205 C40.0738529,14.8278815 40.0116162,14.9873629 39.9027021,15.1118362 C39.700433,15.2557585 39.4514864,15.3257747 39.2064296,15.3063258 L36.4602374,15.3063258 C36.2813071,15.2596483 36.1373848,15.1312852 36.0712584,14.9601344 C36.0129115,14.8239917 36.0323605,14.6645103 36.1218257,14.5439268 C36.2851969,14.372776 36.5730414,14.4194535 36.6508372,14.1471682 L36.6508372,13.5170221 L36.635278,7.78347087 C36.635278,7.48006721 36.300756,7.36726328 36.1140461,7.20389208 C36.059589,7.16110438 36.0168013,7.10664732 35.9895728,7.04830046 C35.9584605,6.97766878 35.9584605,6.89721407 35.9895728,6.8265824 C36.0673686,6.71377847 36.1685032,6.62431329 36.2929765,6.56207664 C36.4757966,6.44927271 36.6702861,6.35980753 36.8725552,6.29368109 L37.6271746,6.00972638 L37.8138846,5.93582036 L38.362345,5.72188188 C38.5218264,5.62463712 38.7007568,5.56629026 38.883577,5.54684131 C39.0858461,5.54684131 39.4359272,5.59740859 39.4670455,5.85024497 C39.4787149,6.06029366 39.4787149,6.27034235 39.4670455,6.48039104 C39.459266,6.59319496 39.459266,6.7021091 39.4670455,6.81491302 C39.459266,6.91604758 39.4748251,7.02107192 39.5098332,7.11831669 C39.6420861,7.30113684 39.8754735,6.83047219 39.9377102,6.74878659 C40.0816324,6.54262769 40.2450036,6.34813816 40.4200442,6.1692078 C40.7545662,5.81134707 41.2291206,5.60907796 41.7192343,5.62074733 C42.0926541,5.56629026 42.4699638,5.7141023 42.7072411,6.00972638 L42.746139,5.90470204 L42.746139,3.46580337 C42.7539185,3.35299944 42.7383594,3.24019552 42.7033513,3.13128138 C42.6994615,3.03403662 42.6761227,2.93290207 42.6411146,2.84343688 C42.5672086,2.73841254 42.4738536,2.64505757 42.3649395,2.57504134 C42.2910335,2.51669448 42.224907,2.44278846 42.1782295,2.36110286 C42.1354487,2.26313862 42.1354487,2.15177364 42.1782295,2.0538094 C42.1782295,2.0149115 42.2482458,1.97990338 42.2793641,1.94878506 L42.392168,1.84765051 C42.466074,1.78541386 42.5477596,1.727067 42.6294452,1.67260993 C42.7967062,1.57536517 42.9756366,1.48978978 43.1584568,1.41977355 C43.5279869,1.27974109 43.9208557,1.18249632 44.2787164,1.01912512 L44.5432222,0.875202871 C44.6287976,0.801296851 44.7299321,0.742949993 44.8388463,0.704052088 C44.9283115,0.684603135 45.0255562,0.684603135 45.1150214,0.704052088 C45.2005968,0.735170412 45.2822824,0.79351727 45.3484088,0.871313081 L45.3484088,0.871313081 Z M79.8275122,2.2599683 L80.2437198,2.17050312 C80.2437198,2.17050312 79.6135737,0.750729574 79.3451781,0.0272285338 C79.5552268,0.0116693716 79.7691653,0.0311183243 79.9753242,0.0777958108 C80.294287,0.610697115 80.8621965,1.67260993 80.8621965,1.67260993 C80.8621965,1.67260993 81.8502032,1.11248009 82.3442066,0.86742329 C82.5036881,0.906321196 82.6476103,0.988006797 82.7604142,1.10470051 L81.2472857,2.45056804 L81.6946116,3.70697038 C81.6946116,3.70697038 82.764304,2.19773165 83.2972053,1.47423061 C83.4839153,1.52479789 83.6433967,1.64149161 83.748421,1.80097302 C83.5344826,2.19773165 83.2077401,2.56337197 83.0443689,2.93679186 C83.674515,2.98735913 84.3318896,2.93679186 84.9659255,3.01847746 C85.1448558,3.19740782 85.2926679,3.4113463 85.3938024,3.64862353 L83.7912087,3.77309682 L83.02492,5.0995154 L84.0634941,4.87390755 C84.0634941,4.87390755 84.8803501,4.53549577 85.7283244,4.20875336 C85.8683569,4.39546331 85.9694914,4.60940179 86.0317281,4.83889943 L84.2968815,5.53128215 L82.7487449,5.86580413 C82.5503655,6.12253031 82.375325,6.39481565 82.2197334,6.67488057 C83.5967192,6.41815439 84.9425867,5.97860806 86.3351317,5.70243293 C86.9380493,7.79125045 86.6307558,10.0395494 85.4871574,11.8871999 C81.7140606,12.8363088 77.7425844,11.6304737 73.8527939,12.1517056 L72.7286444,12.2917381 C71.9673471,11.2985806 71.4780101,10.1241716 71.3088709,8.88428159 C71.1143814,7.52674469 71.269973,6.14197926 71.7678662,4.86223817 C71.8806701,4.86223817 73.5921779,4.69108739 73.5921779,4.69108739 L72.5419345,3.43468505 C72.6197303,3.22074657 72.7442036,3.03014683 72.9075748,2.87455521 C73.4599251,3.454134 74.4907195,4.62107116 74.4907195,4.62107116 L75.0741881,4.57050388 L73.2576559,2.5089149 C73.4638148,2.21329082 73.7166512,1.95656464 74.0044957,1.74651595 L75.5370732,2.02269108 L75.5370732,0.770178527 C75.8521462,0.587358371 76.1944478,0.455105493 76.5484187,0.381199473 C76.8557122,0.921880358 77.08132,1.50534894 77.4080625,2.04602982 C77.8048211,1.41588376 78.1432329,0.707941878 78.4972038,0.0233387432 C78.5477711,-0.00777958108 78.6138975,-0.00777958108 78.6683546,0.0233387432 L79.8275122,2.2599683 L79.8275122,2.2599683 Z M78.7150321,1.49756936 L77.8981761,3.03792641 L78.3805101,4.64052011 L79.0923418,4.14262692 L79.2790517,2.81620835 C79.0923418,2.3844416 78.9173012,1.92544632 78.7150321,1.49756936 L78.7150321,1.49756936 Z M76.3461496,1.58703454 L76.3461496,2.36110286 L76.7234593,2.45056804 C76.6223248,2.16272354 76.4978515,1.88265862 76.3461496,1.61426307 L76.3461496,1.58703454 Z M74.3623565,2.51280469 L74.3623565,2.56337197 C74.7630049,2.97179997 75.5759711,3.87812117 75.5759711,3.87812117 L75.5759711,2.87455521 L74.3623565,2.51280469 L74.3623565,2.51280469 Z M80.5315643,2.87455521 L80.1737035,3.10794264 L80.2476095,3.3724484 L80.574352,3.06904474 L80.5315643,2.87455521 L80.5315643,2.87455521 Z M76.3850475,3.20907719 L76.4356148,4.64052011 L76.9840753,3.38411777 L76.3850475,3.20907719 Z M83.0015812,3.83922326 L82.4842391,3.90145991 L81.6790525,5.15786226 L82.2002844,5.15786226 L83.0015812,3.83922326 Z M79.8586305,4.77277299 L79.9208671,6.23922402 L81.0216779,4.83889943 C81.0878043,4.75332404 81.1344818,4.65218948 81.1539307,4.54327535 L80.9477718,3.87812117 L79.8586305,4.77277299 L79.8586305,4.77277299 Z M77.4780787,4.57828346 L77.120218,5.27066618 L77.750364,6.01750596 C77.6881274,5.53128215 77.5908826,5.04505833 77.4625195,4.57050388 L77.4780787,4.57828346 L77.4780787,4.57828346 Z M79.0262153,5.20842953 L78.6061179,5.41458843 L78.6061179,5.99805701 L78.9523093,6.11864052 L79.0262153,5.20842953 L79.0262153,5.20842953 Z M74.6229724,5.28233555 L74.0317243,6.19254654 L75.2375593,6.6593214 L76.2372355,5.79189811 L75.8521462,5.38347011 L74.6229724,5.28233555 L74.6229724,5.28233555 Z M72.1529554,5.46515571 L73.1954193,5.94748973 L73.5221617,5.40680885 L72.1529554,5.46515571 Z M81.150041,6.14586905 L80.5976907,7.05608004 L81.2278368,6.99773318 L81.7918564,6.06029366 L81.150041,6.14586905 L81.150041,6.14586905 Z M76.8946101,6.332579 L75.0080617,7.892385 L74.0978507,7.93128291 C74.2806709,7.73290359 74.4440421,7.5228549 74.5957439,7.30113684 C74.2573321,7.14165543 73.9111408,7.00551276 73.5571698,6.89270884 L72.8531177,7.78347087 C72.6405706,7.77682298 72.4282125,7.80172918 72.2229717,7.85737689 C72.2074125,8.58087793 72.2929879,9.30048918 72.4758081,10.0006515 C72.5458243,10.1756921 72.5963916,10.4790957 72.8608973,10.4518672 C74.6968784,10.5141038 76.52508,10.677475 78.3416122,10.9342012 L78.3416122,8.07520516 C78.2093593,7.83403815 78.0576575,7.60843029 77.8826169,7.39449182 L77.026863,7.89627479 L75.4320489,7.89627479 C75.4320489,7.89627479 76.6884512,7.14943501 77.3185973,6.76045596 C77.1630057,6.60875413 77.0618711,6.4142646 76.8518224,6.31313005 L76.8946101,6.332579 L76.8946101,6.332579 Z M72.347445,6.3714769 C72.25409,6.65543161 72.2268615,6.95883527 72.2735389,7.25834915 C72.4252408,7.02107192 72.7908811,6.54262769 72.7908811,6.54262769 L72.347445,6.3714769 L72.347445,6.3714769 Z M85.7244346,6.75267638 L85.0515009,6.93938632 C85.2265414,7.28946747 85.6349694,8.00129914 85.6349694,8.00129914 L84.8570113,8.00129914 L84.082943,7.1533248 L82.9198956,7.41005098 L83.2466381,8.04019704 L82.6631695,8.11021327 L82.2119538,7.52674469 C82.2119538,7.52674469 80.5510132,8.00518893 79.7419368,8.26191511 L79.6913695,8.33582113 C79.6913695,9.23436274 79.7652755,10.1290146 79.8664101,11.0197766 L79.9403161,11.2064865 C81.5079017,11.4593229 83.0871566,11.607135 84.6741912,11.6577022 L84.8570113,11.5526779 C85.2654393,10.9147523 85.5805124,10.2184797 85.7944509,9.49108892 C86.0784056,8.58865751 86.0472872,7.62009967 85.7049857,6.73711721 L85.7244346,6.75267638 L85.7244346,6.75267638 Z M26.0200396,0.781847898 C26.0394886,0.805186642 26.0550478,0.836304966 26.0628273,0.8635335 C26.0822763,0.914100777 26.1017252,0.968557844 26.1133946,1.01912512 L26.1133946,5.66353503 C26.1133946,5.76466958 26.1133946,5.98249785 26.2650964,5.97082848 C26.4167983,5.95915911 26.4051289,5.89692246 26.4051289,5.89692246 C26.4556962,5.8385756 26.514043,5.78411853 26.5762797,5.73355125 C26.6540755,5.6752044 26.7396509,5.63630649 26.8330059,5.62074733 C27.0002669,5.57795963 27.1753074,5.55851068 27.350348,5.56240047 C27.5642865,5.57018005 27.778225,5.60907796 27.9804941,5.68298398 C28.4161506,5.85024497 28.7934603,6.14586905 29.0696354,6.52706852 C29.3458106,6.89659863 29.559749,7.30891642 29.6997815,7.74457296 C29.8553731,8.16467034 29.9759566,8.60032688 30.0654218,9.03987321 C30.1237687,9.34716667 30.1704461,9.67001928 30.228793,9.96953315 L30.2676909,9.93063525 C30.4193927,8.35915987 30.7383556,6.69821931 32.1542393,5.8385756 C32.5237694,5.62463712 32.939977,5.51183319 33.367854,5.51961278 C33.8008737,5.50686565 34.2309473,5.59474448 34.6242563,5.77633895 C34.814856,5.88914288 34.982117,6.03306513 35.1260393,6.20421591 C35.2777411,6.36369732 35.4216634,6.52706852 35.557806,6.69432952 C35.8300914,7.0288515 36.0440299,7.40616119 36.1879521,7.81458919 C36.2968662,8.13744181 36.3435437,8.47585358 36.3318744,8.81426536 L36.3318744,9.30437897 C36.3318744,9.46775017 36.3318744,9.4560808 36.2929765,9.52998682 C36.2540785,9.60389284 36.2929765,9.72447635 36.1723929,9.76726404 C35.9390055,9.88784755 35.6939487,9.98120252 35.4566715,10.0823371 C35.2193943,10.1834716 34.9665579,10.288496 34.7137215,10.3857407 C34.2119385,10.5802303 33.7062657,10.77083 33.2122623,10.9769889 L33.0411116,11.0392256 C32.9205281,11.0781235 32.846622,11.198707 32.8582914,11.3231803 C32.866071,11.4359842 32.8932995,11.5487881 32.9321974,11.6577022 C33.0061034,11.8949795 33.1033482,12.1283669 33.2200419,12.350085 C33.2978377,12.4940072 33.3950825,12.6262601 33.515666,12.739064 C33.7218249,12.906325 33.9707715,13.0152391 34.2313875,13.054137 C34.4764443,13.147492 34.7526194,13.1163737 34.9743375,12.9724514 C35.3088594,12.6690478 35.0482435,11.7705062 35.7834139,12.0000038 C35.9428953,12.0389017 36.0945971,12.1050282 36.2307398,12.1944933 C36.3824416,12.2878483 36.487466,12.4395501 36.5185843,12.6145907 C36.5769312,13.054137 36.5185843,13.501463 36.3474335,13.909891 C36.2774173,14.0810418 36.1996215,14.244413 36.1140461,14.4077842 C36.0479197,14.5711554 35.9467851,14.7150776 35.818422,14.8356611 C35.4377967,15.126004 34.9916495,15.318355 34.519232,15.395791 C34.2936241,15.4346889 34.0641265,15.4541378 33.8346288,15.4541378 C33.6055915,15.4613363 33.3763843,15.4470108 33.1500257,15.4113501 C31.2634773,15.0262609 30.637221,13.0424677 30.3532663,11.3931965 C30.3610459,11.439874 30.3610459,11.4865515 30.3532663,11.5332289 L30.3532663,11.9611059 C30.3415969,12.1594852 30.3182582,12.3578645 30.2832501,12.5523541 C30.2249032,13.073586 30.0887605,13.5792588 29.8826016,14.0615928 C29.7853569,14.2872007 29.6569938,14.4972493 29.505292,14.6917389 C29.1852787,15.0472163 28.7600719,15.2911651 28.2916773,15.3880114 C27.926037,15.469697 27.5487273,15.4813663 27.1791972,15.4269093 C26.6942785,15.3634427 26.234357,15.1743788 25.8449991,14.8784488 C25.7205258,14.7850938 25.6193912,14.6567308 25.5571546,14.5128085 C25.5143669,14.4194535 25.45602,14.3105394 25.3432161,14.29887 C25.2304122,14.2872007 25.0398124,14.4389025 24.973686,14.5672656 C24.9075595,14.7150776 24.8258739,14.8551101 24.7364088,14.9873629 C24.7169598,15.0145915 24.6975109,15.0379302 24.6741721,15.0573792 C24.5769274,15.1312852 24.4757928,15.1974116 24.3668787,15.2518687 C24.2618543,15.3102156 24.1412708,15.3491135 24.0206873,15.356893 C23.7950795,15.356893 23.6939449,15.1857423 23.5733614,15.0223711 C23.2232802,15.4191297 22.6981585,15.2907666 22.2236041,15.3179951 L20.3370557,15.3179951 C20.1114478,15.282987 19.9247379,15.1235056 19.8469421,14.9095671 C19.8352727,14.8162122 19.8702808,14.7228572 19.940297,14.6567308 L20.0608805,14.5750452 C20.1114478,14.5555962 20.1581253,14.5322575 20.200913,14.5011391 C20.2203619,14.4816902 20.2359211,14.4583514 20.2437007,14.4311229 C20.2514803,14.3105394 20.2514803,14.1938457 20.2437007,14.0732622 C20.2903782,13.8943318 20.3059373,13.7115117 20.294268,13.5248017 C20.2359211,12.0933588 20.0919989,10.6852546 19.9286277,9.26159127 C19.9364072,8.69368186 19.7535871,8.1413316 19.4073957,7.6901159 C19.3846962,7.66401705 19.3568978,7.64283737 19.3257101,7.62787925 C19.049535,7.50729574 18.8239271,7.84181773 18.6955641,8.02463788 C18.6767101,8.04418221 18.6632998,8.06832077 18.6566661,8.09465411 L18.6566661,13.9526787 C18.6877845,14.1004907 18.7461313,14.2405232 18.8200374,14.3688863 C18.8783842,14.4778004 18.9678494,14.5633758 19.0767635,14.6139431 L19.1467798,14.6450614 C19.2440245,14.7423061 19.2634735,14.894008 19.197347,15.0145915 C18.9328413,15.4113501 18.3921604,15.3607828 17.9798426,15.3413339 L17.2330028,15.3413339 C16.9762766,15.3607828 16.7195505,15.3607828 16.4667141,15.3413339 C16.1438615,15.3685624 15.8248986,15.2324198 15.6187397,14.9834732 C15.5565031,14.8317713 15.6226295,14.652841 15.7704416,14.5828247 C15.9143638,14.5361472 16.0349473,14.4311229 16.097184,14.2949802 C16.1905389,14.1277192 16.2411062,13.9371195 16.2411062,13.74263 L16.2411062,7.84181773 C16.2411062,7.55397323 15.8910251,7.43338972 15.669307,7.42561014 C15.4009115,7.46839784 15.167524,7.63565883 15.0391609,7.87682584 C14.8757897,8.20356825 14.8174429,8.57698814 14.8757897,8.93873866 C14.9185774,9.98120252 14.8757897,11.0236664 14.9146877,12.0816894 L14.9146877,13.9682378 C14.9146877,14.1354988 14.9963733,14.2949802 15.1286261,14.3961148 C15.186973,14.4544616 15.2492096,14.4972493 15.3114463,14.5517064 C15.3736829,14.6061635 15.4514787,14.6567308 15.4553685,14.7384164 C15.4670379,14.8473305 15.4320298,14.9562446 15.3620136,15.04182 C15.3192259,15.1079465 15.260879,15.1662933 15.1908628,15.2051912 C15.1091772,15.2363095 15.0274916,15.2557585 14.9380264,15.2635381 C14.3973455,15.3141054 13.8527748,15.3335543 13.3082042,15.3218849 L12.4874584,15.3218849 C12.2774097,15.3335543 12.0634712,15.3179951 11.8573123,15.2713177 C11.7056105,15.2324198 11.5772474,15.1390648 11.491672,15.0068119 C11.4411047,14.9056773 11.4022068,14.7306368 11.491672,14.6411716 C11.5811372,14.5517064 11.6433738,14.559486 11.7056105,14.5089187 C11.7756267,14.4583514 11.8378633,14.4000046 11.8884306,14.3338781 C11.9973447,14.1432784 12.0595814,13.9254501 12.0595814,13.7037321 C12.067361,13.5987077 12.067361,13.4936834 12.0595814,13.388659 L12.0595814,7.84570752 C12.0401324,7.70178527 11.9545571,7.57731197 11.826194,7.50729574 C11.7056105,7.43727951 11.5928065,7.35559391 11.4877822,7.27001852 C11.404268,7.19309318 11.3686032,7.07718272 11.3944272,6.96661486 C11.3944272,6.87325988 11.5189005,6.79546407 11.5889167,6.741007 C11.6706023,6.67877036 11.7600675,6.6204235 11.8534225,6.5776358 C12.1295976,6.43760334 12.4252217,6.35202795 12.7130662,6.23922402 C13.0009107,6.1264201 13.4482366,5.97471827 13.794428,5.80745728 C13.9189013,5.74911042 14.0511542,5.71021251 14.183407,5.68298398 C14.3778966,5.64408607 14.8135531,5.68298398 14.8446714,5.94748973 L14.8446714,5.99027743 C14.8446714,6.14586905 14.7629858,6.6204235 15.0663895,6.58930517 C15.2142015,6.54262769 15.334785,6.43760334 15.4048013,6.30146067 C15.4942664,6.17698738 15.5992908,6.06418345 15.7198743,5.96693869 C16.0349473,5.72577167 16.4239264,5.60907796 16.820685,5.6324167 C17.0229541,5.63630649 17.2213334,5.66353503 17.4197128,5.7141023 C17.6142023,5.74911042 17.804802,5.82301644 17.972063,5.92804078 C18.0887567,6.02528555 18.1937811,6.13419968 18.2793565,6.26256277 C18.3377033,6.34424837 18.4427277,6.56985622 18.5438622,6.59708475 L18.6333274,6.59708475 C18.9678494,6.50761957 19.0106371,6.07974261 19.2634735,5.91248162 C19.8975093,5.589629 20.6521287,5.62463712 21.2550462,6.0019468 C22.2158245,6.78768449 22.2158245,8.05186642 22.5114486,9.14489756 C22.5347873,9.26937085 22.5542363,9.39773394 22.5697954,9.52220724 L22.6281423,9.91118629 C22.6670402,10.1679125 22.7020483,10.4285284 22.7331666,10.6891444 C22.7954033,11.2103763 22.8537501,11.7393878 22.8848685,12.2722892 L22.8848685,13.0658064 C22.8654195,13.3380918 22.8654195,13.6103771 22.8848685,13.8826624 C22.8770889,14.1666171 23.0210111,14.4350127 23.2699577,14.5789349 C23.3244148,14.6061635 23.3749821,14.6411716 23.41388,14.6839593 L23.4566677,14.6022737 C23.468337,14.5633758 23.468337,14.5205881 23.4566677,14.4816902 L23.4566677,3.27131384 C23.4177698,2.88622458 23.2349496,2.53225364 22.9471051,2.27941726 C22.8851978,2.23008 22.8541051,2.15160801 22.8654195,2.07325836 C22.8770889,1.98379318 22.9159868,1.90210757 22.9782234,1.83987093 C23.0988069,1.70761805 23.2388394,1.59481412 23.394431,1.50145915 C23.5967001,1.40032459 23.8067488,1.31863899 24.0245771,1.25640234 L24.5263601,1.04246386 C24.7519679,0.984117006 24.9659064,0.886872243 25.1565061,0.746839784 C25.2965386,0.630146067 25.475469,0.567909419 25.6582891,0.583468581 C25.7516441,0.583468581 25.8411093,0.606807324 25.9227949,0.653484811 C25.957803,0.688492925 25.9928111,0.731280621 26.0200396,0.781847898 Z M32.3409493,7.27001852 C32.3059412,7.39838161 32.2864922,7.53063448 32.2787126,7.66677715 C32.2787126,7.79125045 32.2475943,7.92350333 32.2359249,8.05575621 L32.2359249,8.81815515 C32.2437045,9.02820384 32.2670432,9.23825253 32.3059412,9.44830122 C32.3253901,9.64279075 32.3759574,9.83339048 32.4498634,10.0123208 C32.4693124,10.0551085 32.4926511,10.0940064 32.5237694,10.1251248 C32.6171244,10.2184797 32.69881,10.1251248 32.792165,10.1251248 L33.0761197,10.0006515 C33.2706092,9.92285567 33.4534294,9.81394153 33.609021,9.67390907 L33.6984862,9.5805541 C33.9396532,9.17212609 33.9824409,8.6742329 33.8112901,8.23079678 C33.6440291,7.79125045 33.4339804,7.37115307 33.181144,6.97439444 C33.0916788,6.81880282 32.8310629,6.85381093 32.6910304,6.92382716 C32.5432184,6.99384339 32.4187451,7.11831669 32.3409493,7.27001852 L32.3409493,7.27001852 Z M27.0313852,6.96661486 C26.8602344,7.03663109 26.7240917,7.16499417 26.6424061,7.33225517 C26.1003377,8.62375272 25.9279562,10.0405131 26.1445129,11.4243148 C26.2028598,11.7588368 26.2884352,12.089469 26.4012391,12.4123216 C26.4518064,12.571803 26.5218226,12.7273946 26.607398,12.8713169 C26.6774142,12.9841208 26.7785488,13.1591614 26.9146915,13.1786103 C27.0547239,13.1980593 27.2803318,13.0152391 27.3736867,12.8752067 C27.4670417,12.7118355 27.5487273,12.5406847 27.610964,12.3656441 C27.7237679,12.0739098 27.8093433,11.774396 27.8638004,11.4671025 C27.9688247,10.864185 27.9921634,10.2534879 27.926037,9.64279075 C27.8560208,8.8803918 27.7004292,8.12966223 27.4670417,7.39838161 C27.3892459,7.24278998 27.2453237,6.93160674 27.0313852,6.96661486 L27.0313852,6.96661486 Z M67.4385293,0.871313081 L67.4385293,13.2797449 C67.4463089,13.4197774 67.5318843,13.5481404 67.6641372,13.5987077 C67.7886105,13.649275 68.0025489,13.6609444 68.0336673,13.8515441 C68.057006,13.9565685 68.057006,14.0654826 68.0336673,14.1705069 C68.0142183,14.2716415 67.9597612,14.3611067 67.8819654,14.4272331 C67.4229701,14.6684001 66.9445259,14.8784488 66.4544123,15.0573792 C66.2677023,15.1273954 66.0771026,15.1974116 65.8826131,15.2518687 L65.5986584,15.3413339 C65.5091932,15.3607828 65.419728,15.3841216 65.3341526,15.4152399 C65.1435529,15.4891459 64.9296144,15.4735868 64.750684,15.3724522 C64.6456597,15.2985462 64.7001168,15.1662933 64.7117861,15.0651588 C64.7234555,14.9640242 64.6728882,14.7617551 64.5406354,14.8628897 C64.3033581,15.0573792 64.0310728,15.4930357 63.71211,15.4930357 C62.9224825,15.6136192 62.1211856,15.3491135 61.557166,14.781204 C60.3007637,13.3497611 60.3941186,11.1092418 60.6702938,9.26159127 C60.8258854,7.99351956 61.3937948,6.81102323 62.2845568,5.89692246 C62.7048007,5.51933978 63.2792289,5.36346478 63.8326935,5.47682508 C64.1166482,5.51961278 64.3228071,5.76466958 64.5484149,5.92415099 C64.5756435,5.91637141 64.602872,5.90470204 64.622321,5.88525309 C64.6612189,5.83468581 64.676778,5.77244916 64.6612189,5.71021251 L64.6612189,3.04570599 C64.6417699,2.93290207 64.5795333,2.83176751 64.4900681,2.75786149 C64.3967131,2.6722861 64.2955785,2.5906005 64.1866644,2.52058427 C64.0116238,2.38833139 63.7976854,2.21718061 63.8715914,1.9721238 C63.9027097,1.84376072 63.9882851,1.73484658 64.1049788,1.67649972 C64.3383662,1.6025937 64.6067618,1.67649972 64.8284799,1.5636958 C65.5014136,1.18638611 66.236584,0.933549729 66.9406361,0.606807324 C67.0472253,0.538333433 67.1867335,0.551161772 67.2790479,0.637925648 C67.3646233,0.696272507 67.4190803,0.777958108 67.4385293,0.871313081 L67.4385293,0.871313081 Z M63.8132445,7.01718213 C63.7743466,7.02496171 63.7393385,7.04052088 63.71211,7.06774941 C63.5126197,7.29657126 63.3901479,7.5823388 63.3620288,7.88460542 C63.2881228,8.25024573 63.2064372,8.61199625 63.1480903,8.98541615 C62.9380416,10.1251248 63.023617,11.2998415 63.3931471,12.3967624 C63.4437144,12.5445745 63.5137306,12.6846069 63.599306,12.81297 C63.6420937,12.8790965 63.6887712,12.9452229 63.7393385,13.0074596 C63.786016,13.0696962 63.8482526,13.1241533 63.9143791,13.1630512 C64.1516563,13.2875245 64.3305867,13.1047043 64.4239416,12.8946556 C64.5367456,12.6379295 64.6301005,12.3695339 64.7001168,12.0972486 C64.8518186,11.4787719 64.9140552,10.844736 64.8868267,10.2107002 C64.8595982,9.55721535 64.770133,8.90762033 64.622321,8.26969469 C64.5639741,8.0168583 64.4783987,7.7718015 64.3655948,7.54230386 C64.2605704,7.3594837 64.0310728,6.9899536 63.8132445,7.00162297 L63.8132445,7.01718213 L63.8132445,7.01718213 Z M59.3516548,6.66710098 C59.6433891,7.14554522 59.8417684,7.67455673 59.9351234,8.22690699 C60.2618658,10.0317698 60.4874736,11.8521918 60.6080571,13.6842831 C60.6158367,13.8048666 60.6313959,13.9215603 60.666404,14.0343643 C60.6858529,14.1393886 60.7325304,14.2405232 60.8064364,14.3222088 C60.8339463,14.354369 60.868574,14.3796738 60.907571,14.3961148 C61.0398239,14.4700208 61.1759665,14.5361472 61.1759665,14.7034082 C61.1759665,14.8473305 61.1137299,14.9834732 61.0048158,15.0807179 C60.888122,15.1585137 60.7480896,15.2013014 60.6080571,15.2013014 C60.0673762,15.2479789 59.5266953,15.2674279 58.9860145,15.2518687 L58.0252362,15.2518687 C57.7762896,15.2557585 57.546792,15.115726 57.4417676,14.8862284 C57.3834208,14.726747 57.453437,14.5478166 57.6051388,14.4700208 C57.76851,14.4000046 57.8929833,14.2599721 57.9396608,14.0849315 C58.0563545,13.5792588 58.0796933,13.054137 58.009677,12.5367949 C57.9785587,11.996114 57.9202119,11.4554331 57.8346365,10.9225318 C57.7412815,10.4012999 57.6284776,9.88006797 57.5001145,9.36272583 C57.4417676,9.16045672 57.3950901,8.95429782 57.3367433,8.73257976 C57.2783964,8.5108617 57.2356087,8.33193134 57.1655925,8.13355202 C57.0916865,7.90794417 56.9360948,7.71345464 56.7338257,7.59287113 C56.5782341,7.53452427 56.4031935,7.6045405 56.3331773,7.75624234 C56.2742216,7.99928468 56.2597256,8.25098864 56.2903896,8.49919233 L56.2903896,13.5286915 C56.2787202,13.6842831 56.2787202,13.8398747 56.2903896,13.9954664 C56.3137284,14.1277192 56.3876344,14.2405232 56.4926587,14.3222088 C56.6054627,14.4272331 56.8077318,14.5478166 56.8271807,14.7189674 C56.8310705,14.8162122 56.7960624,14.9095671 56.7260462,14.9756936 C56.6482503,15.0729383 56.5393362,15.1390648 56.4187527,15.1624035 C55.9597574,15.2246402 55.4968723,15.2557585 55.0378771,15.2518687 L53.7814747,15.2518687 C53.6570014,15.2596483 53.5364179,15.2440891 53.4158344,15.2129708 C53.3263692,15.1818525 53.2446836,15.1312852 53.1785572,15.0690485 C53.1474389,15.0379302 53.1163205,15.0029221 53.089092,14.967914 C53.0657533,14.9329059 53.0463043,14.8901182 53.0307451,14.8473305 C52.94128,14.9095671 52.8051373,15.0729383 52.6923334,15.1818525 C52.513403,15.3257747 52.2916849,15.4152399 52.0621873,15.4385787 C51.8287999,15.4969255 51.5837431,15.4969255 51.3503556,15.4385787 L51.3075679,15.3179951 C51.2064334,15.2752074 51.1130784,15.2168606 51.0236132,15.1546239 C50.8291237,15.0145915 50.6463035,14.8667794 50.471263,14.7034082 L50.2067572,14.7034082 C50.136741,14.7734245 50.062835,14.8395509 49.9811494,14.8978978 C49.8916842,14.9718038 49.7983292,15.0379302 49.6971947,15.1001669 C49.4988153,15.2207504 49.2887666,15.3179951 49.0670486,15.3880114 C48.6158329,15.543603 48.1257193,15.543603 47.6783934,15.3880114 C47.4605651,15.3141054 47.2466266,15.2168606 47.0482473,15.1001669 C46.8537578,14.9756936 46.6709376,14.8239917 46.515346,14.652841 C46.18241,14.3244577 45.9641674,13.8975207 45.8929795,13.4353365 C45.8307429,13.0346881 45.8074041,12.6262601 45.8229633,12.2217219 C45.8501918,11.828853 45.9552162,11.4437638 46.1302567,11.0897928 C46.7604028,9.96564336 48.0168051,9.4171829 49.1798525,9.03598342 C49.1798525,9.03598342 49.3237748,9.0048651 49.3354441,8.97763656 C49.5104847,8.53420044 49.5260439,8.04019704 49.374342,7.58898134 C49.3510033,7.51507532 49.3159952,7.4411693 49.2732075,7.37504286 C49.2420892,7.30113684 49.207081,7.2350104 49.1681831,7.16888396 C49.0903873,6.98606381 48.9075672,6.87325988 48.7091879,6.88492925 L48.0673724,6.88492925 C47.9973562,6.8654803 47.9234502,6.8654803 47.8534339,6.88492925 C47.7911973,6.89659863 47.7484096,6.9471659 47.7484096,7.00940255 C47.74063,7.02496171 47.74063,7.04052088 47.7484096,7.05219025 C47.8300952,7.19222271 47.9856868,7.25445936 48.094601,7.36726328 C48.1996253,7.53841407 48.2463028,7.74457296 48.2190742,7.94684207 C48.2307436,8.16856013 48.1762866,8.3863884 48.0634826,8.57698814 C48.0385618,8.63259735 47.9997068,8.68083116 47.9506787,8.7170206 C47.4722345,9.043763 46.849868,9.06710175 46.348085,8.77925725 C46.0310999,8.48195634 45.8652914,8.05742943 45.8968693,7.62398946 C45.8813101,7.41005098 45.9163182,7.1961125 45.9980038,6.99384339 C46.0757997,6.81102323 46.1847138,6.64376224 46.3247463,6.50372978 C46.5698031,6.24700361 46.8654271,6.04862429 47.1999491,5.92415099 C48.1373886,5.66742482 49.1176159,5.61685754 50.0783941,5.77244916 C50.7287114,5.85810212 51.2881504,6.27473701 51.5565145,6.87325988 C51.863808,7.82625856 52.0544077,8.81037557 52.1166444,9.81005174 C52.1594321,10.342953 52.1905504,10.8797441 52.2177789,11.4048659 C52.2450075,11.9299876 52.2683462,12.4745583 52.2994645,12.99968 C52.2994645,13.2058389 52.2994645,13.4664548 52.4939541,13.5831486 L52.6884436,13.5831486 C53.1163205,13.5831486 53.1668878,14.1354988 53.1668878,14.4739106 L53.3419284,14.4155637 C53.3963855,14.3844454 53.4508425,14.3494373 53.49752,14.3105394 C53.7192381,14.0265847 53.8087033,13.6648342 53.7425768,13.3108632 L53.7425768,7.78347087 C53.7036789,7.28557768 52.4861745,7.0716392 53.3341488,6.58152559 C53.571426,6.4570523 53.8164828,6.34813816 54.0693192,6.25478319 L54.8044896,5.93582036 L55.4346357,5.64019628 L55.5279907,5.59740859 C55.6485742,5.57406984 55.7730475,5.57406984 55.893631,5.59740859 C56.0142145,5.60518817 56.1270184,5.65186565 56.2203734,5.72966146 C56.302059,5.83468581 56.2709407,6.28201172 56.4420914,6.30924025 C56.6132422,6.332579 56.7299359,5.9202612 56.8271807,5.83079602 C57.1344742,5.52350257 57.5856899,5.39513948 58.009677,5.49627403 C58.5581375,5.73355125 59.0326919,6.14197926 59.3516548,6.66710098 L59.3516548,6.66710098 Z M48.9931426,10.3546224 L48.8686693,10.4479774 C48.6352818,10.6346873 48.4719106,10.8953033 48.4018944,11.1831478 C48.3396578,11.4320944 48.3085394,11.6927104 48.3124292,11.9494365 L48.3124292,12.8557577 C48.3124292,13.2564062 48.5380371,13.6259363 48.8958978,13.8048666 C49.1993015,13.909891 49.5377132,13.8087564 49.7322028,13.5520302 C49.7477619,12.4667787 49.6971947,11.3776373 49.5882805,10.2962756 C49.5182643,10.1329044 49.3432237,10.1406839 49.1993015,10.2029206 C49.1253954,10.2495981 49.0553792,10.3001653 48.9931426,10.3546224 Z M85.234321,12.3967624 C84.752092,13.0715991 84.1573558,13.6584405 83.4761357,14.131609 C79.9325365,14.0810418 76.6767818,13.1202635 73.218758,12.9568923 C73.0942847,12.8635373 73.0048196,12.739064 72.9542523,12.591252 C75.6498771,12.1205873 78.3843999,12.3850931 81.056686,12.5484643 C82.4609004,12.6184805 83.8651147,12.5251255 85.2498802,12.2722892 L85.234321,12.3967624 L85.234321,12.3967624 Z M79.9286467,14.0693724 C80.9516616,14.1821763 81.9902357,14.2716415 83.0210302,14.4038944 C80.6587331,15.8626395 77.6960516,15.9442765 75.2570083,14.6178328 C74.6190826,14.2599721 74.0395038,13.8048666 73.5416107,13.2719653 C73.5416107,13.1980593 73.6933125,13.2719653 73.7672185,13.221398 L75.2375593,13.3458713 L79.9286467,14.0693724 L79.9286467,14.0693724 Z" id="Shape"></path>
            </g>
        </g>
    </g>
</svg>