<?xml version="1.0" encoding="UTF-8"?>
<svg width="110px" height="60px" viewBox="0 0 110 60" version="1.1" xmlns="http://www.w3.org/2000/svg" xmlns:xlink="http://www.w3.org/1999/xlink">
    <title>Media/Brand Logos/Dark/brand-kappa-dark</title>
    <g id="Symbols" stroke="none" stroke-width="1" fill="none" fill-rule="evenodd">
        <g id="Media/Brand-Logos/Dark/brand-kappa-dark" fill="#252324">
            <path d="M81.8884195,19.4377646 C80.8304605,20.0180693 79.8404545,21.6522125 79.8404545,21.6522125 C79.1761525,22.4934791 78.5118565,23.334938 77.8475545,24.1763603 C77.0871805,25.6685552 75.7312435,27.3878597 74.9079955,28.5252248 C75.0064105,29.3832044 75.3559405,30.6507005 74.9868865,31.3324127 C74.7146815,31.8539483 72.4519195,30.7015409 71.8438585,30.5032733 C71.0225635,30.2357423 70.3688065,29.70554 69.9235945,30.8151143 C69.2655415,31.9752179 68.6523985,33.267977 67.9947385,34.4278082 C67.4694685,35.2537604 66.7227685,36.1457885 66.1974985,36.9717407 C66.2834185,37.1392637 66.5919415,37.2407132 66.6782485,37.4086256 C66.8637505,37.4086256 66.5021185,38.4300818 66.2420215,39.1114448 C66.1436065,39.7931945 66.4888375,40.3218038 66.4888375,40.3218038 C66.1049455,40.564343 65.7210445,40.8068822 65.3375395,41.0494214 C65.3375395,41.0494214 64.7716585,41.9325095 64.4764135,42.7907225 C64.2061645,43.6742018 64.0093255,43.7752577 63.0739945,43.951721 C62.1144505,44.1538352 60.8819245,43.4545919 60.8819245,43.4545919 C59.6517415,43.4545919 57.9712645,43.1082776 57.9712645,40.861688 C57.9712645,38.6154851 59.1338875,37.2986249 59.1338875,37.2986249 C59.0229775,37.1116676 59.1893455,36.7902257 59.0667175,36.6227027 C58.9440895,36.4547927 58.5320755,36.4404098 58.5098155,36.2484008 C58.6113535,35.8406729 58.6582165,35.6541044 58.4121805,35.457431 C57.9638455,35.0986769 58.4832565,34.5953336 58.6070575,34.3465757 C57.4471675,33.3453287 56.7555325,31.4322278 56.1988255,30.075722 C55.3568695,31.4765372 54.2813755,33.5517161 53.6913175,34.3442411 C53.0270935,35.7077429 52.3279564,35.5771451 52.229542,36.1578389 C52.1311273,36.7381439 51.7969072,37.7522207 51.7969072,37.7522207 C51.7969072,37.7522207 51.7969072,38.0546171 51.7969072,41.1590309 C51.7969072,44.2634465 49.8368914,45 48.606862,45 C48.606862,45 47.3030182,44.7982724 46.3434334,44.6214224 C45.6715966,44.4764417 44.7227122,43.6314443 44.4493378,43.0756277 C44.3044099,42.7802282 44.3588908,42.7421378 44.4377398,42.4502357 C44.4831982,42.2819366 44.5924342,42.1377317 44.6696428,41.9810918 C44.5634554,41.3385977 44.3916934,40.7283689 44.2851946,40.0858748 C44.0295109,40.0990898 43.4881183,39.5409392 43.6054339,39.3201689 C43.6318339,39.270806 43.6257019,39.263033 43.6793995,39.2012327 C43.7817577,39.0834593 43.9418011,38.9454803 44.0943439,38.7973913 C44.1277744,38.2400183 44.2254061,37.6826429 44.2587979,37.1252723 C43.7987086,36.1341293 43.458517,35.0687483 43.0031521,34.0671098 C42.8060482,33.6632675 42.6530338,33.1373816 41.1276817,32.9609195 C39.6270109,32.7588041 39.9051115,32.8742441 38.5768234,32.7731861 C37.2479491,32.6721278 36.6007939,31.9763831 36.6007939,31.2950603 C36.6007939,30.6134651 36.7729027,29.9319086 36.7729027,29.9319086 C36.7729027,29.9319086 36.8979901,29.6966009 37.0513144,29.2360883 C35.2345459,27.4992953 33.7755457,24.6295646 32.3861002,22.2308441 C31.7850277,21.1938353 30.3470767,20.353466 29.3719495,19.6141889 C28.1370382,18.6784721 26.8069153,17.8784819 25.2913267,17.5472075 C24.2338357,17.3164076 22.971001,17.1698753 23.0005075,16.2855032 C23.0412973,15.1047224 26.1753418,15.228749 28.0114816,15.3815024 C29.3229769,15.6681563 30.3823033,15.7874816 30.8387605,15.6606923 C31.2950227,15.5339423 32.7520708,15.4388717 33.5188078,15.4653029 C34.2853501,15.4917341 34.5343165,15.6301826 34.5343165,16.7406896 C34.5343165,18.0029777 34.4794075,19.4344229 34.5344731,19.3251251 C34.5344731,19.3251251 35.5910662,20.5420142 36.8435122,21.366023 C37.6573873,21.9012014 40.7476513,24.7320602 40.3009966,25.7066459 C40.3009966,25.7066459 44.9166163,17.489021 45.3101968,17.0094245 C45.6792139,16.5297887 46.5065233,15.2931173 47.3676934,15.2931173 C47.3676934,15.2931173 49.3917574,15.3314 50.7940135,15.3314 C52.2209908,15.3314 53.3027335,16.6483772 54.2375965,18.3142364 C55.1971405,19.9547513 56.5614385,22.9728011 56.5614385,22.9728011 C56.5385485,23.06453 57.1355215,15.5091842 59.9731495,15.0661238 C60.1496725,14.9958503 61.0029925,14.9417861 63.7738375,15.1209686 C67.0820605,15.5440886 69.5506375,20.0616416 70.2266545,21.2167691 C70.9893685,22.6807067 72.2918005,25.3550054 72.2918005,24.7742729 C72.4999525,23.9861387 75.9116695,20.5965452 76.5501955,20.2433873 C77.1898945,19.8391958 79.0101775,18.0980117 79.0101775,18.0980117 C79.3780645,18.0980117 79.4518735,17.8959365 79.0843795,16.7350547 C79.0843795,15.5741729 79.3819675,15.5794967 80.3169085,15.5794967 C81.2768455,15.5794967 83.6407525,15.4698509 85.1661835,15.4698509 C85.9167925,15.4698509 86.4443995,15.3702689 86.7837775,15.3810356 C87.2098495,15.3944066 87.3352135,15.6465842 87.2699965,15.9798407 C87.2399245,16.1310767 87.1704055,16.3761428 87.0727735,16.4883176 C86.7619045,16.8431465 86.1526735,17.0314223 85.6281865,17.2418561 C85.0845595,17.4601796 85.6395265,17.2253012 84.8232895,17.7178412 C83.8809295,18.2864456 82.1371915,19.2979154 81.8884195,19.4377646 L81.8884195,19.4377646 Z M48.7412821,22.8267743 C47.4392374,24.8113151 46.1371927,26.7952718 44.8349923,28.7796956 C45.9838693,29.5128695 47.1327439,30.2466635 48.2816209,30.9799928 C48.101935,30.4671248 48.1377871,28.685243 48.7943551,27.6728393 C49.1633722,26.4107057 48.7412821,22.8267743 48.7412821,22.8267743 L48.7412821,22.8267743 Z M64.5752185,36.2398496 C65.8749175,34.9404806 66.3619135,33.4180091 66.9110065,32.3230874 C65.9920795,32.7036083 64.5185875,33.8292386 63.6004375,34.3283087 C63.8218705,35.0096693 64.3537825,35.5580978 64.5752185,36.2398496 L64.5752185,36.2398496 Z M63.8585845,23.153192 C63.4891375,23.5919768 63.2138155,23.7372641 63.2665345,24.3239432 C63.3067585,24.7640876 63.4223575,25.2989981 63.4309495,25.7330795 C63.4309495,25.7330795 65.2125655,26.1920744 65.1141505,26.8736306 C65.1813235,27.7744433 64.4154865,29.5385204 64.4154865,29.5385204 C64.4439865,29.3669549 68.3493475,27.9818057 68.6141305,28.063973 C68.6570905,28.1459459 63.8449165,23.1867347 63.8585845,23.153192 L63.8585845,23.153192 Z M46.01773,36.4862729 C45.4790659,35.6008529 45.4140793,35.2277204 45.3208972,34.824266 C46.0383502,34.8697424 46.6305565,35.2145048 47.1653941,35.6960837 C46.8785845,36.0233549 46.5234721,36.3047582 46.01773,36.4862729 Z" id="Image" transform="translate(55.143110, 30.000000) scale(1, -1) translate(-55.143110, -30.000000) "></path>
        </g>
    </g>
</svg>