<?xml version="1.0" encoding="UTF-8"?>
<svg width="110px" height="60px" viewBox="0 0 110 60" version="1.1" xmlns="http://www.w3.org/2000/svg" xmlns:xlink="http://www.w3.org/1999/xlink">
    <title>Media/Brand Logos/Dark/brand-calvin-klein-dark</title>
    <g id="Media/Brand-Logos/Dark/brand-calvin-klein-dark" stroke="none" stroke-width="1" fill="none" fill-rule="evenodd">
        <path d="M19.2805497,36.6650871 C15.2573469,36.6650871 12,33.3473149 12,29.340975 C12,25.3184748 15.2573469,22 19.2805497,22 C21.0356947,22 22.6292372,22.6154952 23.8897377,23.6364023 L23.1070188,24.4612783 C22.0566018,23.6216472 20.7356759,23.1263001 19.2805497,23.1263001 C15.8882997,23.1263001 13.1403525,25.93397 13.1403525,29.340975 C13.1403525,32.7325223 15.8882997,35.5401923 19.2805497,35.5401923 C20.7356759,35.5401923 22.0566018,35.0448451 23.1070188,34.2038089 L23.8897377,35.0286849 C22.6292372,36.0495919 21.0356947,36.6650871 19.2805497,36.6650871 L19.2805497,36.6650871 Z M32.6710839,36.4268989 L32.6710839,34.8354643 L32.6710839,34.8052517 C31.799835,35.9280386 30.4493991,36.6650871 28.9176872,36.6650871 C26.2912932,36.6650871 24.1742988,34.5509032 24.1742988,31.9216987 C24.1742988,29.3107623 26.2912932,27.1937679 28.9176872,27.1937679 C30.4493991,27.1937679 31.8152926,27.9146562 32.6851363,29.0550086 L32.6710839,29.0550086 L32.6710839,27.4783291 L33.7524163,27.4783291 L33.7524163,36.4268989 L32.6710839,36.4268989 Z M28.9176872,28.2301326 C26.8765758,28.2301326 25.2247159,29.8812899 25.2247159,31.9216987 C25.2247159,33.9635128 26.8765758,35.6153727 28.9176872,35.6153727 C30.9447463,35.6153727 32.6106586,33.9635128 32.6106586,31.9216987 C32.6106586,29.8812899 30.9447463,28.2301326 28.9176872,28.2301326 L28.9176872,28.2301326 Z M35.7633151,36.4416539 L36.8425396,36.4416539 L36.8425396,22.0751804 L35.7633151,22.0751804 L35.7633151,36.4416539 Z M42.3377315,37.0107762 L37.9238719,27.4642767 L39.14081,27.4642767 L42.3377315,34.4595626 L45.5213033,27.4642767 L46.7220811,27.4642767 L42.3377315,37.0107762 Z M48.6887148,23.3799459 C48.3121104,23.3799459 48.0275492,23.0960874 48.0275492,22.719483 C48.0275492,22.3611467 48.3121104,22.0618306 48.6887148,22.0618306 C49.0477537,22.0618306 49.3491777,22.3611467 49.3491777,22.719483 C49.3491777,23.0960874 49.0477537,23.3799459 48.6887148,23.3799459 L48.6887148,23.3799459 Z M48.1174846,36.4268989 L49.1967091,36.4268989 L49.1967091,27.4642767 L48.1174846,27.4642767 L48.1174846,36.4268989 Z M57.259275,36.4268989 L57.259275,30.7658886 C57.259275,29.3571353 56.1631876,28.2132697 54.7516238,28.2132697 C53.3562202,28.2132697 52.2144625,29.2053693 52.2144625,30.7658886 L52.2144625,36.4268989 L51.135238,36.4268989 L51.135238,27.4642767 L52.2144625,27.4642767 L52.2144625,28.3355256 C52.7716403,27.554212 53.7609294,27.1797155 54.7516238,27.1797155 C56.7337151,27.1797155 58.3406074,28.7852025 58.3406074,30.7658886 L58.3406074,36.4268989 L57.259275,36.4268989 Z M66.4010654,28.305313 L72.0761281,36.4423566 L70.768552,36.4423566 L65.6506671,29.1154339 L64.6599727,30.2108187 L64.6599727,30.1974689 L64.6599727,36.4423566 L63.579343,36.4423566 L63.579343,22.0751804 L64.6599727,22.0751804 L64.6599727,28.6046291 L70.6645643,22.0899354 L72.1365534,22.0899354 L66.4010654,28.305313 Z M73.7265827,36.4416539 L74.8079151,36.4416539 L74.8079151,22.0751804 L73.7265827,22.0751804 L73.7265827,36.4416539 Z M77.5853724,31.9982843 L77.5699148,31.9982843 C77.6001275,33.9951307 79.2512847,35.6006177 81.2614809,35.6006177 C82.70396,35.6006177 83.9651631,34.7757416 84.5659033,33.5595062 L85.5123326,33.9951307 C84.7457741,35.5689997 83.1234242,36.6503321 81.2614809,36.6503321 C78.6357895,36.6503321 76.5202003,34.5340403 76.5202003,31.9216987 C76.5202003,29.2953047 78.6357895,27.1797155 81.2614809,27.1797155 C83.8752277,27.1797155 85.9901143,29.2953047 85.9901143,31.9216987 L85.9901143,31.9982843 L77.5853724,31.9982843 Z M81.2614809,28.2132697 C79.5667612,28.2132697 78.1404423,29.3571353 77.7041152,30.9169519 L77.7041152,30.9021969 L84.7900391,30.9021969 L84.8195492,30.9169519 C84.3839247,29.3571353 82.9428508,28.2132697 81.2614809,28.2132697 L81.2614809,28.2132697 Z M88.2420118,23.3799459 C87.8829729,23.3799459 87.5822515,23.0960874 87.5822515,22.719483 C87.5822515,22.3611467 87.8829729,22.0618306 88.2420118,22.0618306 C88.6186162,22.0618306 88.9031773,22.3611467 88.9031773,22.719483 C88.9031773,23.0960874 88.6186162,23.3799459 88.2420118,23.3799459 L88.2420118,23.3799459 Z M87.6862393,36.4268989 L88.766869,36.4268989 L88.766869,27.4642767 L87.6862393,27.4642767 L87.6862393,36.4268989 Z M96.9186676,36.4268989 L96.9186676,30.7658886 C96.9186676,29.3571353 95.8232829,28.2132697 94.4124217,28.2132697 C93.0015605,28.2132697 91.8745578,29.2053693 91.8745578,30.7658886 L91.8745578,36.4268989 L90.7939281,36.4268989 L90.7939281,27.4642767 L91.8745578,27.4642767 L91.8605054,28.3355256 C92.4310329,27.554212 93.4210247,27.1797155 94.4124217,27.1797155 C96.394513,27.1797155 98,28.7852025 98,30.7658886 L98,36.4268989 L96.9186676,36.4268989 Z" id="Image" fill="#252324"></path>
    </g>
</svg>