<?xml version="1.0" encoding="UTF-8"?>
<svg width="110px" height="60px" viewBox="0 0 110 60" version="1.1" xmlns="http://www.w3.org/2000/svg" xmlns:xlink="http://www.w3.org/1999/xlink">
    <title>rip-curl-dark</title>
    <defs>
        <polygon id="path-1" points="0 0 8.79556823 0 8.79556823 7.36130439 0 7.36130439"></polygon>
        <polygon id="path-3" points="0 0 12.8982163 0 12.8982163 7.46898958 0 7.46898958"></polygon>
    </defs>
    <g id="rip-curl-dark" stroke="none" stroke-width="1" fill="none" fill-rule="evenodd">
        <g id="Group-19" transform="translate(15.000000, 10.000000)">
            <path d="M59.0018938,23.944342 C58.4899385,23.9847051 56.8228456,24.0462824 55.3502468,24.0462824 C50.7610477,24.0462824 45.2264116,22.8817579 40.9105557,21.0124736 C35.9883135,18.8794206 33.2779732,16.1662643 33.2779732,13.3644968 C33.2779732,10.2843172 38.3137955,10.445019 40.5255098,10.8888262 C44.9012534,11.7648009 48.6858173,15.4250838 49.7407041,16.5272801 L50.4375791,17.2288484 L50.3855763,16.804378 C49.9697417,13.3036704 48.4682316,10.114041 46.038744,7.5777317 C42.9202663,4.3207051 38.290704,2.07219467 32.2797825,0.885329596 C23.9858072,-0.747032284 16.6032887,0.214549953 12.4000742,1.09052471 C12.0276065,1.16749635 10.8985641,1.45717253 10.646435,1.5553583 C10.4528795,1.62838748 10.4722163,1.68151668 10.6541322,1.66030255 C10.8407415,1.63814974 11.2806062,1.58333091 11.2971269,1.58126582 C14.0345011,1.20203972 22.0694012,0.611047743 29.4414065,2.54866786 C34.8189078,3.96250539 37.7092866,5.49386547 40.8133086,7.73955987 C40.8258869,7.74725703 40.8240095,7.75683155 40.8095539,7.7528891 C39.3801343,7.35451395 36.8853146,6.85401059 34.1584536,6.85401059 C29.7078035,6.85401059 24.9530215,8.24194059 24.9530215,12.1410233 C24.9530215,14.7293353 26.7721804,17.0469325 30.8475469,19.6630294 C36.2271133,23.1145502 42.6989259,24.3273228 47.1784874,24.7354602 C52.6628103,25.2380286 57.2675914,24.5334566 59.0828079,24.0847683 C59.3792425,24.0115513 59.2926964,23.9231278 59.0018938,23.944342" id="Fill-1" fill="#000000"></path>
            <path d="M9.40950083,31.3228805 C9.30662167,31.8427206 7.85223323,32.5125616 6.44590513,32.5125616 L5.60278412,32.5125616 L6.45848342,30.502851 C7.71931636,30.3141766 8.8849673,30.2892077 9.31431884,30.8223771 C9.38171595,30.9070459 9.4624423,31.0455949 9.40950083,31.3228805 M13.1681572,30.3412105 C12.7301698,29.5671763 10.7195205,29.1051587 9.16112651,29.1051587 L3.04450979,29.1051587 L0,36.460831 L3.92517794,36.460831 L5.43720124,32.9034273 L8.44510256,36.460831 L12.7012585,36.460831 C12.7012585,36.460831 11.1045664,34.9786577 9.88409667,33.4809023 C10.6570045,33.2054941 12.8957527,32.362373 13.233677,31.5500407 C13.3356175,31.299789 13.3596476,31.0726288 13.3414373,30.8762573 C13.3202231,30.6607367 13.2470062,30.4797595 13.1681572,30.3412105" id="Fill-3" fill="#000000"></path>
            <path d="M67.5587179,31.4537698 C67.4565896,31.97361 66.0012625,32.6434509 64.5981259,32.6434509 L63.74712,32.6434509 L64.6480636,30.5143404 C65.6971307,30.5143404 67.0330579,30.4142773 67.4682293,30.9532665 C67.5298066,31.0360579 67.612598,31.1764842 67.5587179,31.4537698 M70.4980957,30.4720999 C70.0612347,29.6980656 68.8734309,29.2343584 67.3140982,29.2343584 L61.1926004,29.2343584 L58.1510944,36.5896553 L62.0762723,36.5896553 L63.5623881,33.082377 L66.848326,36.5896553 L70.5713126,36.5896553 C70.5713126,36.5896553 68.6597877,34.9535387 67.2140351,33.6097266 C67.9899468,33.3403258 70.2268176,32.4932624 70.5636154,31.6790527 C70.667621,31.4306783 70.6888351,31.2035181 70.6713757,31.0071466 C70.6503493,30.791626 70.5771324,30.6087714 70.4980957,30.4720999" id="Fill-5" fill="#000000"></path>
            <polygon id="Fill-7" fill="#000000" points="16.3068728 29.1013852 13.2075442 36.4608123 17.1327221 36.4608123 20.1781706 29.1013852"></polygon>
            <path d="M28.4835602,31.3151646 C28.3575896,31.8657933 27.0321756,32.5106655 25.5229683,32.5106655 L24.6257794,32.5106655 C24.6710237,32.3970854 25.1735922,31.2227986 25.5439947,30.3603408 C26.8271682,30.2255466 27.9802408,30.2660975 28.4124084,30.8223583 C28.5250498,30.9686045 28.5066517,31.211159 28.4835602,31.3151646 M31.4240644,30.3430691 C30.9872035,29.5671575 29.7945186,29.1053277 28.237251,29.1053277 L22.124389,29.1053277 L18.8459605,36.4587472 L22.9992373,36.4608123 C22.9992373,36.4608123 24.0338487,33.9601728 24.1292185,33.7290701 L26.5932495,33.7290701 C28.8319977,33.7290701 30.9823223,32.7704917 31.4877068,31.5500219 C31.5915247,31.2997702 31.6155548,31.07261 31.5954671,30.8762385 C31.574253,30.6607179 31.5010361,30.4797407 31.4240644,30.3430691" id="Fill-9" fill="#000000"></path>
            <path d="M42.8529631,29.0628994 C39.1770981,29.0628994 34.6138066,30.8186036 33.8082327,32.7704917 C33.5454027,33.4018468 33.5791951,34.0352671 33.9005986,34.6052326 C34.5925924,35.8313345 36.9681999,36.6859074 39.6659619,36.6859074 C41.4361218,36.6859074 43.5843813,36.0006721 44.9512849,35.4887168 L45.1917744,33.8908983 C44.5065391,34.4165583 41.9751109,35.3730716 40.1493813,35.3730716 C39.0056954,35.3730716 38.1982442,35.0535455 37.8728982,34.4800129 C37.5946739,33.9909614 37.7266521,33.4309458 37.8882926,33.0438348 C38.4070063,31.7906991 40.2224105,30.2679748 42.6220481,30.2679748 C44.3871392,30.2679748 45.4056053,30.7955121 45.5903372,30.8878781 C45.7769465,30.9763016 46.1503528,31.240258 46.1503528,31.240258 L46.829956,29.7866205 C46.829956,29.7866205 45.753855,29.0628994 42.8529631,29.0628994" id="Fill-11" fill="#000000"></path>
            <g id="Group-15" transform="translate(71.204432, 29.232293)">
                <mask id="mask-2" fill="white">
                    <use xlink:href="#path-1"></use>
                </mask>
                <g id="Clip-14"></g>
                <path d="M2.82621139,0 L0.0195627277,6.95316698 C0.00210330796,6.99559525 -0.00352876293,7.04553295 0.00210330796,7.09171593 C0.000225950994,7.09378102 0.00210330796,7.09378102 0.00210330796,7.09378102 C0.00792311454,7.18239227 0.0713777799,7.36130439 0.211991816,7.36130439 L8.29119751,7.36130439 L8.79564332,6.14083463 L4.26407909,6.14083463 C4.55675904,5.43832765 6.80132702,0 6.80132702,0 L2.82621139,0 Z" id="Fill-13" fill="#000000" mask="url(#mask-2)"></path>
            </g>
            <g id="Group-18" transform="translate(46.748550, 29.216993)">
                <mask id="mask-4" fill="white">
                    <use xlink:href="#path-3"></use>
                </mask>
                <g id="Clip-17"></g>
                <path d="M2.02963366,0.00375471393 L0.191137982,4.2216126 C0.0199230273,4.63913679 -0.0225052401,5.00109121 0.0101607711,5.30146833 C0.0353173544,5.59396054 0.127683317,5.83276035 0.231688893,6.00979511 C0.730127166,6.89158968 2.57425491,7.46906468 4.55317689,7.46906468 C7.60444516,7.46906468 10.372608,6.10216107 11.0349395,4.50058785 L12.8982163,0 L11.0771801,0 L9.32354093,4.22348996 C8.97303838,5.07806285 7.25413035,5.80009434 5.56788832,5.80009434 C4.42044775,5.80009434 4.06637823,5.47474838 3.9584302,5.286074 C3.83152087,5.07036569 3.93533871,4.66222828 4.00085847,4.50058785 C4.00085847,4.50058785 5.87389751,0.00769716355 5.8412315,0.00375471393 L2.02963366,0.00375471393 Z" id="Fill-16" fill="#000000" mask="url(#mask-4)"></path>
            </g>
        </g>
    </g>
</svg>