<?xml version="1.0" encoding="UTF-8"?>
<svg width="110px" height="60px" viewBox="0 0 110 60" version="1.1" xmlns="http://www.w3.org/2000/svg" xmlns:xlink="http://www.w3.org/1999/xlink">
    <title>Media/Brand Logos/Dark/brand-converse-dark</title>
    <g id="Symbols" stroke="none" stroke-width="1" fill="none" fill-rule="evenodd">
        <g id="Image" fill="#252324" transform="translate(27.000000, 11.000000)">
            <g id="g3222" transform="translate(12.203016, 0.000000)" fill-rule="nonzero">
                <polygon id="path3086" points="9.02463096 21.2638544 9.00138685 15.5254925 14.4954307 13.4873426 8.96256216 11.6752764 8.84664315 6.02147706 5.49030557 10.5831401 0 8.8905461 3.18701282 13.6790835 0.0761937025 18.4764011 5.49497379 16.6804826"></polygon>
                <polygon id="path3088" points="9.71077782 27.2957452 19.5514991 27.2957452 31.8848679 13.6561911 19.4920251 0 9.74619522 0 21.3369126 13.636138"></polygon>
            </g>
            <g id="g3274" transform="translate(0.000000, 30.988724)">
                <path d="M0,3.64875875 C0,1.87623879 1.49850749,0.133095677 3.54650281,0.133095677 C4.94152263,0.133095677 6.50706168,1.70589338 6.50706168,1.70589338 L4.81090828,2.69274627 C4.81090828,2.69274627 4.53072706,1.95260708 3.48482448,1.95260708 C2.42161156,1.95260708 1.79600829,2.8256153 1.78867108,3.61792025 C1.78046977,4.50361651 2.50656799,5.28323535 3.42314615,5.28323535 C4.14230533,5.28323535 4.90342568,4.51225575 4.90342568,4.51225575 L6.35286595,5.56078755 C6.35286595,5.56078755 5.26823837,6.88687154 3.45398541,6.88687154 C1.63614289,6.88687154 0,5.79067414 0,3.64875875 Z" id="path3226" fill-rule="nonzero"></path>
                <path d="M10.57512,0.222860736 C8.66753664,0.222860736 7.12389204,1.74654656 7.12389204,3.6200695 C7.12389204,5.4935886 8.66753664,7.01127613 10.57512,7.01127613 C12.4827032,7.01127613 14.0323501,5.4935886 14.0323501,3.6200695 C14.0323501,1.74654656 12.4827032,0.222860736 10.57512,0.222860736 Z M10.57512,1.92146512 C11.5289116,1.92146512 12.3037351,2.68330803 12.3037351,3.6200695 C12.3037351,4.55682905 11.5289116,5.31267175 10.57512,5.31267175 C9.62132824,5.31267175 8.8525071,4.55682905 8.8525071,3.6200695 C8.8525071,2.68330803 9.62132824,1.92146512 10.57512,1.92146512 Z" id="path3231"></path>
                <polygon id="rect3234" points="15.3288114 0.318894906 15.3288114 6.6691544 16.991403 6.6691544 16.991403 3.23710444 19.734379 6.6691544 21.372962 6.6691544 21.372962 0.318894906 19.7043683 0.318894906 19.7043683 4.03002593 16.991403 0.318894906"></polygon>
                <polygon id="path3239" points="22.7294447 0.318894906 24.9742434 6.6691544 27.4471233 6.6691544 29.691922 0.318894906 27.8732749 0.318894906 26.2106833 5.36068883 24.5480918 0.318894906"></polygon>
                <polygon id="path3246" points="30.886347 0.318894906 30.886347 6.6691544 35.9941644 6.6691544 35.9941644 5.2046333 32.5489385 5.2046333 32.5489385 4.1422553 35.6460405 4.1422553 35.6460405 2.845794 32.5489385 2.845794 32.5489385 1.83143308 35.9941644 1.83143308 35.9941644 0.318894906"></polygon>
                <polygon id="path3258" points="51.4717534 0.318894906 51.4717534 6.6691544 56.5795708 6.6691544 56.5795708 5.2046333 53.134345 5.2046333 53.134345 4.1422553 56.231447 4.1422553 56.231447 2.845794 53.134345 2.845794 53.134345 1.83143308 56.5795708 1.83143308 56.5795708 0.318894906"></polygon>
                <path d="M37.8728328,0.438937619 L37.8728328,6.69916507 L39.3493582,6.69916507 L39.3493582,4.23228733 L40.1956593,4.23228733 L41.4921206,6.69916507 L43.3947976,6.69916507 L42.1103406,4.02221259 C43.7803153,3.02090463 43.4497388,0.925164383 41.5881548,0.438937619 L37.8728328,0.438937619 Z M39.3193475,1.9514758 L41.023954,1.9514758 C41.6162352,1.9514758 41.5777639,2.86980255 41.023954,2.86980255 L39.3193475,2.86980255 L39.3193475,1.9514758 Z" id="rect3260"></path>
                <path d="M44.2820477,5.82235582 C44.3474681,6.21487436 45.8949992,6.95629849 47.422196,6.95629849 C48.8245888,6.95629849 49.9517572,6.28293185 49.9517572,4.94635132 C49.9517572,3.30257669 48.0327794,2.92208163 48.0327794,2.92208163 C48.0327794,2.92208163 46.4384162,2.8995885 46.3972867,2.15885198 C46.3779358,1.81033246 46.8635518,1.61368713 47.2913552,1.61368713 C47.9918285,1.61368713 48.7742035,2.3114983 48.7742035,2.3114983 L49.8863387,1.11213523 C49.8863387,1.11213523 48.4791539,0 47.2913552,0 C46.1570669,0 44.5437274,0.74283775 44.5437274,2.28969086 C44.5437274,3.60579498 46.411277,4.21115597 46.411277,4.21115597 C46.411277,4.21115597 48.381685,4.42102137 48.381685,5.03731873 C48.381685,5.4567134 47.667137,5.58248359 47.2477423,5.58248359 C46.2296034,5.58248359 45.3723774,4.68841507 45.3723774,4.68841507 L44.2820477,5.82235582 Z" id="path3272" fill-rule="nonzero"></path>
            </g>
        </g>
    </g>
</svg>