<?xml version="1.0" encoding="UTF-8"?>
<svg width="110px" height="60px" viewBox="0 0 110 60" version="1.1" xmlns="http://www.w3.org/2000/svg" xmlns:xlink="http://www.w3.org/1999/xlink">
    <title>Media/Brand Logos/Dark/brand-champion-dark</title>
    <g id="Media/Brand-Logos/Dark/brand-champion-dark" stroke="none" stroke-width="1" fill="none" fill-rule="evenodd">
        <path d="M20.3119172,22.8574621 C19.9756644,22.9192839 19.6475618,23.0050634 19.3206738,23.0956133 C18.4093306,23.3480229 17.5309754,23.6828851 16.7019966,24.1416548 C16.0673903,24.4928702 15.4830935,24.9106777 14.9794184,25.4355644 C14.6564559,25.7721164 14.3873938,26.1464974 14.1899408,26.570554 C13.8838244,27.2279385 13.8219498,27.9092456 14.0015182,28.6098632 C14.1255138,29.0936644 14.3630841,29.5228435 14.6694469,29.9146514 C15.0411522,30.3899856 15.4896242,30.7824977 15.9843217,31.1247707 C16.5698332,31.5298688 17.2004964,31.8501205 17.8575993,32.1202035 C18.6172926,32.4324458 19.4030031,32.6601232 20.2048556,32.8341994 C20.2426317,32.8424024 20.2839988,32.8594245 20.3311573,32.8125477 C20.3299779,29.5181787 20.3329704,26.2128255 20.3285168,22.9074723 C20.3284992,22.8913127 20.318043,22.8751708 20.3119172,22.8574621 L20.3119172,22.8574621 Z M24.7980102,20 C24.8251541,20.0081854 24.8519106,20.0215461 24.8795122,20.0235704 C24.9554868,20.0291682 25.0318134,20.0315798 25.1080345,20.0324776 C25.4308386,20.036227 25.7517943,20.0648847 26.0724156,20.1000203 C26.3344189,20.1287308 26.597496,20.1490623 26.8586015,20.1841627 C27.1543497,20.2239279 27.4501332,20.2673722 27.7428185,20.3248636 C28.1444665,20.4037427 28.5451463,20.489487 28.9428336,20.5862332 C29.7686614,20.7871188 30.5701795,21.0620427 31.3526335,21.3941939 C32.3609517,21.8222465 33.2999669,22.3679751 34.1719322,23.0303941 C34.3327006,23.1525415 34.4698457,23.295654 34.5802518,23.4629002 C34.6313533,23.5403007 34.6765579,23.6250768 34.7057965,23.7127398 C34.7789018,23.9318797 34.6844968,24.1092125 34.4648112,24.1833388 C34.2973713,24.2398268 34.1305123,24.2321695 33.9653961,24.1726537 C33.8167914,24.1190878 33.6693134,24.0623533 33.520075,24.0106356 C32.8895526,23.792147 32.2479228,23.6112408 31.6016105,23.446283 C31.046077,23.3045083 30.4876565,23.1745452 29.9246417,23.0667444 C29.539787,22.9930581 29.1512357,22.9388585 28.7646559,22.8740794 C28.3827233,22.8100924 27.997094,22.7825965 27.6116056,22.7531467 C27.5835992,22.7509991 27.555276,22.752865 27.5164613,22.752865 C27.5113565,22.7960276 27.5056003,22.8291037 27.5039808,22.8623734 C27.5019916,22.903318 27.5033999,22.944421 27.5033999,22.9854536 C27.5033999,26.2036719 27.5033471,29.4218903 27.5037167,32.6401086 C27.5037343,32.7094468 27.4968868,32.7796477 27.5096314,32.8372095 C27.5227456,32.8518024 27.5258261,32.8576818 27.5305965,32.8598822 C27.535543,32.8621354 27.5421617,32.8613961 27.5479707,32.8609736 C27.6589929,32.853017 27.7708073,32.850799 27.8808965,32.8358365 C28.3680071,32.7695259 28.8543608,32.7004517 29.3371587,32.60404 C29.9340241,32.48485 30.5279322,32.3532146 31.1169467,32.2015823 C32.1818939,31.9274505 33.2388317,31.6245378 34.2819159,31.275206 C34.5425285,31.1879303 34.8026835,31.0991055 35.0612893,31.0061439 C35.1599718,30.9706563 35.2541304,30.9223536 35.3496619,30.8783989 C35.4518474,30.8313636 35.5563389,30.7958759 35.6710578,30.8029876 C35.715963,30.8057688 35.715963,30.8057864 35.7882058,30.8680131 C35.8033268,30.9234626 35.7816927,30.9721349 35.7489687,31.0138717 C35.6985009,31.0782635 35.6475225,31.1435707 35.588394,31.1996715 C35.0389335,31.7209143 34.455288,32.2002092 33.8356795,32.6366584 C32.7575828,33.3960524 31.602209,34.0110137 30.3750852,34.4906607 C29.5346821,34.8191505 28.6714831,35.075732 27.7892024,35.2662143 C27.3830833,35.3538949 26.9741829,35.4265777 26.5624308,35.4836819 C26.115543,35.5456797 25.6673351,35.5899689 25.2172964,35.6245588 C24.4787795,35.6813286 23.7402979,35.6605042 23.001781,35.6472843 C22.7267867,35.6423731 22.4522325,35.6108813 22.1775551,35.5905146 C21.9905934,35.5766434 21.8034206,35.5642861 21.6169343,35.5453629 C21.4014029,35.5234823 21.1859245,35.4993134 20.9715197,35.4685785 C20.7050981,35.4304152 20.4396975,35.3850874 20.1740152,35.3418192 C19.4977602,35.2316948 18.83131,35.0786365 18.1713378,34.8945442 C17.2330267,34.632805 16.3240951,34.2952496 15.4513552,33.8618986 C14.6659263,33.4718686 13.9298915,33.0061456 13.26705,32.4295237 C12.5831201,31.834577 12.0136978,31.1484995 11.6125955,30.3310331 C11.3554506,29.8069738 11.1795789,29.2568444 11.1011751,28.6772299 C11.0760556,28.4915533 11.0544567,28.3054191 11.0291964,28.1197601 C11.0246196,28.0861559 11.0099915,28.0539248 10.999993,28.02106 C10.999993,27.8451706 10.999993,27.6692637 10.999993,27.4933568 C11.0454791,27.4090912 11.0546855,27.3150207 11.0647368,27.2232033 C11.0896275,26.995526 11.1364339,26.7725838 11.1960377,26.5520356 C11.3837387,25.8575615 11.7190409,25.2378826 12.1576728,24.6720161 C12.5987867,24.1029634 13.1220716,23.6179828 13.6963699,23.1862512 C14.5961128,22.5098554 15.5825857,21.9876268 16.6162699,21.5504031 C17.3983895,21.219572 18.2019671,20.9500171 19.0200672,20.7231318 C19.5500411,20.5761643 20.085296,20.4521334 20.6256557,20.3494198 C20.9878729,20.2805744 21.3501254,20.2129261 21.7163913,20.1683728 C21.9545953,20.1393983 22.1917255,20.1002316 22.43044,20.0769956 C22.6694537,20.0537244 22.9098933,20.0454862 23.1495583,20.0286577 C23.2068033,20.0246266 23.267833,20.0379873 23.3196386,20 L24.7980102,20 Z M39.0899064,21.8961122 C39.1921975,21.9292763 39.284807,21.978019 39.3673299,22.0438543 C39.5456485,22.1861571 39.6220632,22.369158 39.5944264,22.600356 C39.5589915,22.8969316 39.5314428,23.194581 39.5069746,23.4923008 C39.4733705,23.901078 39.4458218,24.310348 39.4158086,24.7194245 C39.4140835,24.7428013 39.4129569,24.7662309 39.4122176,24.7896781 C39.3960052,25.2935468 39.3824861,25.7975211 39.3631756,26.3012666 C39.3330745,27.0866779 39.3365951,27.8723356 39.3440763,28.6579229 C39.350167,29.29693 39.3620842,29.9359546 39.3802153,30.5747328 C39.3940161,31.0609809 39.4195405,31.5469649 39.4446776,32.0328081 C39.4506978,32.1491464 39.474145,32.264763 39.4931387,32.3801332 C39.502345,32.4359875 39.5117275,32.4454227 39.5676698,32.5138457 C39.6202148,32.5268367 39.659804,32.4970876 39.692264,32.4652085 C39.7674288,32.3914519 39.8441252,32.3176953 39.9087458,32.2350139 C40.2176435,31.8396854 40.5788926,31.4983806 40.9707181,31.1872121 C41.1146227,31.0729509 41.2704094,30.9815737 41.4462459,30.9284654 C41.779647,30.8277585 42.0719099,30.8980122 42.3126663,31.1529918 C42.3725694,31.2164507 42.4252904,31.2882886 42.4719912,31.3621508 C42.5219133,31.4410828 42.5635093,31.5256652 42.6039082,31.6100893 C42.6772071,31.7632883 42.7423207,31.9205361 42.8193867,32.0717283 C42.8990931,32.2280607 42.9798558,32.3852204 43.0764435,32.531255 C43.2346594,32.77048 43.4539929,32.9347865 43.7432457,32.977333 C43.970659,33.0107788 44.1986005,33.0004634 44.4217891,32.9308259 C44.6415275,32.8622621 44.846321,32.7639845 45.0399717,32.6408514 C45.3593608,32.437783 45.6402697,32.1882075 45.8846348,31.9020529 C46.2543861,31.4690715 46.7249147,31.1982316 47.2524066,31.0120797 C47.5247604,30.9159672 47.8044723,30.8586694 48.095327,30.862278 C48.3588617,30.8655698 48.5698162,30.9738459 48.7385059,31.1720031 C48.8004333,31.2447563 48.8438775,31.3278426 48.865494,31.4201704 C48.9054353,31.5906908 48.8374348,31.7195448 48.6747478,31.7875101 C48.6426751,31.800906 48.6087013,31.8123303 48.5744986,31.8176112 C48.2208541,31.8721454 47.947356,32.0665531 47.7072333,32.3164102 C47.588941,32.4394905 47.4889031,32.5763012 47.424969,32.7373687 C47.3894637,32.8268273 47.3754517,32.9180989 47.3854326,33.0126447 C47.4063274,33.2107666 47.6046781,33.3569244 47.8017439,33.3202573 C47.9075556,33.3005772 48.0005699,33.2513063 48.0869303,33.1892029 C48.2065956,33.1031594 48.3107702,33.0005338 48.4065483,32.8887547 C48.6515646,32.6027585 48.8551787,32.2879462 49.0507306,31.9675185 C49.1087325,31.8724798 49.1608198,31.7734629 49.2241379,31.6821736 C49.2771405,31.6057942 49.3348256,31.5293091 49.403935,31.4681034 C49.5897877,31.3035152 49.8036291,31.2814586 50.0253743,31.3845419 C50.1144103,31.4259266 50.1972149,31.4851783 50.2742281,31.5470353 C50.4219174,31.6656796 50.530792,31.8194243 50.6378888,31.9739788 C50.7754387,32.172488 50.9314014,32.3547496 51.1210563,32.5061003 C51.2406512,32.6015263 51.3682554,32.6837147 51.5121953,32.7385833 C51.8360731,32.8620509 52.1548637,32.8394134 52.4692536,32.7046799 C52.6101833,32.644284 52.7414666,32.5656865 52.8566783,32.4652085 C53.166597,32.1948614 53.5028674,31.9594387 53.836779,31.7211819 C54.1089568,31.5269679 54.3841975,31.3378763 54.6210461,31.099197 C54.6744184,31.0454022 54.7361346,30.9989654 54.797974,30.9546763 C55.0304042,30.7882045 55.2902422,30.7133389 55.5758688,30.732227 C55.7264097,30.7421903 55.858538,30.8047514 55.9823048,30.885602 C56.2158792,31.0382026 56.4054812,31.2375215 56.5751391,31.4563446 C56.65048,31.5535308 56.717037,31.6574766 56.7906,31.7561063 C56.8711162,31.8640656 56.9537799,31.9704934 57.0383448,32.0753194 C57.0675306,32.1115112 57.1031767,32.1433022 57.1393333,32.1728753 C57.2345832,32.2507686 57.3394092,32.2693398 57.4491287,32.2066378 C57.5201041,32.1660629 57.5906394,32.1230235 57.6550488,32.0729606 C58.0763242,31.7455621 58.495892,31.4159456 58.9159703,31.0869981 C58.9298239,31.0761547 58.9434662,31.0650119 58.9567037,31.0534468 C59.1726927,30.8647425 59.4259473,30.8267728 59.6984947,30.8732447 C59.8107316,30.8923792 59.9118961,30.9421957 59.9924827,31.0216205 C60.0672075,31.0952539 60.1387461,31.1743091 60.1989308,31.2599301 C60.2762785,31.3699314 60.3392269,31.4899311 60.4114696,31.6036466 C60.4899615,31.7271669 60.5692102,31.8504409 60.6538103,31.9697717 C60.6906006,32.0216654 60.7388681,32.0665531 60.7867307,32.1092228 C60.8920671,32.2031172 61.0121549,32.2032229 61.1299367,32.1410666 C61.1962824,32.1060542 61.2574881,32.0573291 61.312656,32.0058579 C61.5742015,31.7617921 61.8305014,31.5120581 62.0936313,31.269735 C62.2183663,31.1548753 62.3502832,31.0467928 62.4862489,30.9454347 C62.5989434,30.8614331 62.727287,30.8029031 62.8610347,30.7556742 C63.1640354,30.6486655 63.4487818,30.6900325 63.7205371,30.8513818 C63.8627342,30.935841 63.9899688,31.0401389 64.0981746,31.1646978 C64.2249867,31.310662 64.3462891,31.4614494 64.4687356,31.6111455 C64.5689496,31.7336801 64.6657134,31.8590311 64.7669307,31.9807032 C64.8872825,32.1253471 65.0208366,32.256648 65.1726274,32.3690257 C65.4636756,32.5845042 65.7907924,32.648896 66.1392265,32.5766884 C66.7583597,32.44838 67.2451711,32.1133771 67.6097647,31.5986297 C67.8214586,31.2997481 67.9727565,30.9707302 68.0972802,30.6280523 C68.2295668,30.264022 68.32068,29.8886201 68.4090824,29.5124085 C68.4331985,29.4098357 68.4564169,29.3070165 68.4825046,29.2049366 C68.5414219,28.9742843 68.6804681,28.8067564 68.897214,28.7115417 C69.2295589,28.5655423 69.5600731,28.5828461 69.8773146,28.7565174 C70.0969826,28.8767988 70.2031464,29.0686541 70.1952427,29.3216798 C70.1799104,29.8138601 70.164279,30.306058 70.152573,30.7983439 C70.150355,30.8913054 70.157537,30.9862737 70.1751576,31.0774749 C70.1968445,31.1897293 70.2626094,31.2314485 70.3777507,31.2278046 C70.4827527,31.2244601 70.5686906,31.1789211 70.6449645,31.1101461 C70.8154673,30.9564542 71.004154,30.8275297 71.1995122,30.708146 C71.5019672,30.523332 71.8264612,30.3898659 72.1738743,30.3214606 C72.5044061,30.2563999 72.8380888,30.2512598 73.1695888,30.3226048 C73.2780058,30.3459464 73.3855426,30.3745689 73.4919352,30.4060431 C74.0412901,30.5685541 74.3716282,30.9462972 74.5255138,31.4839461 C74.6179472,31.8069086 74.6478371,32.1390775 74.6160813,32.4758584 C74.6017525,32.627878 74.5826356,32.7781197 74.5455988,32.9265659 C74.5316572,32.9824203 74.5307947,33.0427106 74.5317805,33.1008534 C74.5334528,33.1982157 74.5837622,33.2661457 74.6730975,33.304485 C74.7770257,33.3490911 74.8878366,33.3647578 74.9988941,33.3679615 C75.7257753,33.3889267 76.3710842,33.1690827 76.9307017,32.7038702 C77.0525673,32.6025472 77.1632551,32.4895887 77.2481368,32.3509298 C77.2481368,32.2343274 77.2490874,32.1172497 77.2479432,32.0001897 C77.245866,31.7879501 77.2738196,31.5787735 77.3216822,31.3730823 C77.430328,30.9060743 77.7013264,30.5859811 78.1790194,30.4714559 C78.4688003,30.4019768 78.7579826,30.3242947 79.0566881,30.3011291 C79.1377324,30.2948449 79.221646,30.2987175 79.3017221,30.3124655 C79.5438516,30.3540614 79.7203746,30.5433466 79.7395267,30.7956682 C79.7496308,30.9287822 79.7373439,31.0649239 79.7226806,31.1983196 C79.688742,31.5073933 79.6583064,31.8161678 79.671579,32.1277411 C79.6775993,32.2691462 79.7023139,32.4068193 79.7420263,32.5423273 C79.8545624,32.9262843 80.1696035,33.1156399 80.5117709,33.124459 C81.3077264,33.1449313 81.9890687,32.8630719 82.5774847,32.3392766 C82.8240853,32.1197494 83.0345997,31.8684839 83.2162276,31.592944 C83.258158,31.5293443 83.2993843,31.4651989 83.3434094,31.4030602 C83.5219744,31.1510379 83.740551,30.9408931 84.0074127,30.7839974 C84.1436425,30.7039213 84.2845722,30.631837 84.4225798,30.5547358 C84.7453839,30.3744457 85.0756341,30.632189 85.1264011,30.9259833 C85.1486866,31.0549782 85.1165787,31.1685529 85.0286868,31.2680627 C84.8755582,31.44147 84.7649232,31.6408066 84.685076,31.856954 C84.603222,32.0785583 84.553423,32.3061653 84.5659564,32.5447213 C84.571871,32.6570286 84.5910583,32.7661673 84.6345729,32.8697434 C84.7128359,33.0559481 84.8477982,33.1718463 85.0508666,33.2080733 C85.1824844,33.2315558 85.307501,33.2119812 85.430458,33.168889 C85.5682544,33.120604 85.6519567,33.0205308 85.6920388,32.8822767 C85.7251677,32.7679276 85.7356943,32.651114 85.7125287,32.534318 C85.6795407,32.3679695 85.6409373,32.20273 85.6047983,32.0370152 C85.5711413,31.8827072 85.5388222,31.7280823 85.5035633,31.5741439 C85.4767011,31.4568022 85.5348087,31.3427699 85.6769706,31.3170871 C85.7342332,31.3067541 85.7923232,31.2981111 85.8503427,31.2954178 C86.1665809,31.2807897 86.483752,31.2784661 86.7989692,31.252396 C87.1841055,31.2205346 87.5676752,31.1697147 87.951861,31.1264817 C88.5465084,31.0595902 89.1275663,30.9221635 89.7091347,30.787518 C89.9723702,30.7265588 90.237278,30.6861599 90.5092269,30.692673 C90.8573617,30.7010344 91.1424954,30.8440941 91.3844312,31.0841112 C91.4890811,31.1879514 91.5738924,31.3089897 91.6408719,31.4395513 C91.7611181,31.6739002 91.8748688,31.9116113 91.9895172,32.1487943 C92.0376967,32.2484626 92.078166,32.3519859 92.1527852,32.4689228 C92.2551995,32.3378155 92.3437075,32.2289585 92.4273746,32.1165104 C92.6337523,31.8391221 92.8370144,31.5594278 93.0432865,31.2819515 C93.1596424,31.1254255 93.2966115,30.9894422 93.4636993,30.886535 C93.6449399,30.7749143 93.8402277,30.7311532 94.0524673,30.7653382 C94.165109,30.7834693 94.26439,30.8309447 94.3579676,30.8923616 C94.4919089,30.9802534 94.6022622,31.0933176 94.6976882,31.2209747 C94.8734367,31.4560629 95.0600462,31.6818392 95.265579,31.8916847 C95.4715519,32.1019703 95.6948109,32.2915372 95.9470269,32.4440673 C96.0418192,32.5014003 96.142262,32.5511993 96.2444299,32.594221 C96.4825634,32.6945054 96.7284423,32.7230575 96.9840733,32.6666222 C97.4979405,32.5531356 97.9524327,32.3219728 98.354732,31.9856496 C98.3995317,31.9481904 98.4374486,31.902581 98.4793086,31.8615307 C98.5043929,31.8369393 98.5287026,31.8106404 98.5572547,31.7907314 C98.6207664,31.746407 98.6908264,31.7139999 98.7702512,31.7205658 C98.8547105,31.7275542 98.9299633,31.7572681 98.984163,31.8404775 C99.0245091,31.9909833 98.9860289,32.1278292 98.8885258,32.2595525 C98.5007138,32.7835942 98.0890673,33.2868292 97.6188556,33.739966 C97.3011564,34.0461353 96.9589714,34.3212528 96.5748912,34.54078 C96.288719,34.7043648 95.9883412,34.8308424 95.6604499,34.8879642 C95.1737617,34.9727579 94.7159601,34.8944245 94.2862881,34.654337 C93.9965953,34.4924421 93.7492906,34.2772276 93.5346042,34.0255749 C93.428194,33.90084 93.3307261,33.7684829 93.2290159,33.6397521 C93.2041956,33.6083659 93.1785128,33.5776838 93.1473027,33.5394149 C93.097891,33.5849363 93.0555382,33.6235925 93.0135726,33.6626888 C92.691455,33.9629962 92.3552551,34.2462463 91.9868768,34.4886222 C91.8599414,34.5721309 91.7266338,34.6470846 91.5913018,34.7163348 C91.5087789,34.7585645 91.4165215,34.7816068 91.3292282,34.8147885 C91.2057254,34.8617357 91.087486,34.8396439 90.9703379,34.7913413 C90.8605655,34.7460663 90.7644706,34.6800374 90.676878,34.6009471 C90.5455772,34.4823732 90.43158,34.3490655 90.3374391,34.1991583 C90.1741712,33.9391969 90.0523583,33.6620199 89.9830024,33.3619237 C89.9527076,33.230834 89.9213215,33.0991283 89.8772787,32.9722634 C89.7954423,32.736471 89.6728549,32.5258509 89.4719693,32.3673006 C89.3191399,32.2466847 89.1452926,32.1777689 88.9538246,32.1751108 C88.4845986,32.1685977 88.0152318,32.1722768 87.5459355,32.1733858 C87.5055894,32.1734914 87.4640287,32.180779 87.4251612,32.1920626 C87.3194199,32.2227622 87.2736697,32.2950402 87.2900405,32.4050766 C87.2969056,32.4512141 87.3076259,32.4976509 87.3236622,32.5413768 C87.4007458,32.7515392 87.3999713,32.9698341 87.3699934,33.1844149 C87.2948637,33.7222046 87.064229,34.1888781 86.6915908,34.5848755 C86.5691794,34.7149442 86.4177583,34.8044027 86.2638023,34.8897597 C85.884651,35.0999045 85.4770884,35.1947848 85.0459906,35.1557237 C84.7407543,35.1280693 84.4513608,35.0330483 84.1773874,34.8919073 C83.7927968,34.693803 83.4567376,34.4323102 83.1557965,34.123835 C83.0700698,34.0359607 82.9869132,33.9455516 82.9031756,33.8569557 C82.8342422,33.8554418 82.7915373,33.8998366 82.743217,33.9296913 C82.3840275,34.1515245 82.0162125,34.357427 81.6351953,34.539759 C81.201105,34.7475098 80.7546573,34.9202657 80.2857834,35.0332419 C79.9060688,35.1247424 79.5198058,35.1620784 79.1338069,35.1181764 C78.5141984,35.047694 78.0138328,34.759427 77.6593433,34.2368287 C77.6136634,34.1695148 77.5692862,34.1013207 77.5186952,34.0250644 C77.4776977,34.0408367 77.4375629,34.049339 77.4051557,34.0699697 C77.2817058,34.1485848 77.1582734,34.2276575 77.0393475,34.3128385 C76.7574176,34.5147979 76.4646091,34.6953344 76.1393758,34.8217593 C75.842853,34.9370062 75.5349763,35.0020493 75.2232445,35.0564251 C74.8170549,35.1272596 74.4062886,35.1420109 73.996508,35.1416589 C73.4985715,35.1412188 73.0004062,35.1168386 72.5152319,34.9839358 C72.2535455,34.9122388 72.004146,34.8122184 71.7816791,34.6547947 C71.5403418,34.4840102 71.3594884,34.2654336 71.2823344,33.974579 C71.2569509,33.8789242 71.2414954,33.7795728 71.2323419,33.6808903 C71.2132074,33.474847 71.303106,33.3159446 71.4679934,33.2002752 C71.6139576,33.0978609 71.7778593,33.0363735 71.956301,33.0170278 C72.0262202,33.0094585 72.0960866,33.0013259 72.1660762,32.9945312 C72.2578407,32.985624 72.3349067,32.9450139 72.3980487,32.8807805 C72.5566342,32.7194313 72.6473778,32.5298468 72.6397909,32.2979623 C72.6334186,32.1030969 72.5159889,31.9605477 72.3067418,31.9278765 C72.1126862,31.8975817 71.9223624,31.9204832 71.7429701,32.0140081 C71.5423485,32.1186228 71.373166,32.2608551 71.2207767,32.4253377 C71.0808327,32.5763716 70.9590727,32.7414878 70.8495819,32.9153704 C70.556879,33.380266 70.3392353,33.8770759 70.2253614,34.4160098 C70.2061741,34.5067885 70.1984464,34.6019152 70.1999955,34.6947887 C70.2062445,35.069909 70.2184258,35.4449236 70.2279139,35.819991 C70.2319097,35.9782421 70.2341101,36.136546 70.238018,36.2947971 C70.2531566,36.9101809 70.26826,37.5255647 70.2841379,38.1409485 C70.2947173,38.5511691 70.3063529,38.9613722 70.3179709,39.3715752 C70.3415061,40.2036873 70.3637387,41.0358522 70.3902665,41.8678763 C70.3964275,42.0609462 70.4235009,42.2532415 70.4126047,42.4471211 C70.4014092,42.6465456 70.3768354,42.8432945 70.3133061,43.0341288 C70.2167359,43.3241913 70.025268,43.524496 69.7474572,43.6476643 C69.5097285,43.7530711 69.2576357,43.8041551 69.0040819,43.850539 C68.952241,43.8600094 68.8997488,43.8659593 68.8477143,43.8744791 C68.6132598,43.9129065 68.3799846,43.9095091 68.1497724,43.848321 C68.0823528,43.8304012 68.015831,43.8049296 67.9531291,43.7743004 C67.7835065,43.6914254 67.6851056,43.559614 67.6584722,43.3667554 C67.6333175,43.1846698 67.6458861,43.0040276 67.6495651,42.8227342 C67.6527689,42.6645183 67.6622569,42.5064608 67.6669217,42.3482626 C67.6833805,41.7915848 67.697639,41.2348191 67.7151716,40.6781766 C67.7367705,39.9926624 67.7613091,39.3072362 67.7836297,38.6217572 C67.8082563,37.8659366 67.832478,37.1100983 67.8555556,36.3542425 C67.8693388,35.9030596 67.8827523,35.4518416 67.8924515,35.0005531 C67.903295,34.496526 67.9100017,33.9924109 67.917747,33.4883133 C67.9186272,33.4309979 67.9145961,33.3735945 67.9126598,33.3105053 C67.8406458,33.3264008 67.8101046,33.3810406 67.7688784,33.419732 C67.4603327,33.7093192 67.1355043,33.977994 66.7734807,34.1990702 C66.4166148,34.4170132 66.0417938,34.5935186 65.6298833,34.6808471 C65.3367227,34.7429858 65.04321,34.7761323 64.7407726,34.749006 C64.1189461,34.6932397 63.5759283,34.4593484 63.0955245,34.0674349 C62.9854176,33.9776067 62.8934243,33.8721471 62.8074511,33.7603679 C62.7467031,33.6813832 62.686536,33.6019056 62.6246262,33.5238362 C62.4567991,33.3121952 62.2342442,33.3217536 62.047529,33.4496395 C61.9848799,33.4925557 61.9253465,33.5410872 61.8692985,33.5924 C61.7006264,33.7468488 61.5323416,33.9018257 61.3676478,34.0604465 C61.0858411,34.3318322 60.7577209,34.5133193 60.3708595,34.5820942 C60.1525469,34.6209089 59.9387055,34.600859 59.7329438,34.5160125 C59.6400527,34.4777084 59.5587796,34.4209034 59.4854103,34.3515123 C59.2638235,34.1419837 59.0408109,33.9339688 58.818168,33.7255668 C58.7882781,33.697578 58.7587754,33.6688498 58.7266147,33.6436247 C58.5886423,33.5354366 58.4433998,33.5164782 58.2848319,33.601888 C58.1755171,33.6607877 58.0782077,33.7343683 57.9834154,33.8134058 C57.78084,33.9823067 57.581169,34.1553091 57.3706897,34.3138947 C57.216769,34.429881 57.0502092,34.5300421 56.8842656,34.628795 C56.758228,34.7038015 56.6195515,34.7511184 56.474133,34.7787903 C56.2983493,34.8122536 56.1365952,34.7788783 55.9852973,34.6878179 C55.8379953,34.5991516 55.7148446,34.4824436 55.6037519,34.3525157 C55.4278978,34.1468597 55.2832363,33.9192527 55.1389619,33.6913465 C55.0825619,33.6022576 55.0269892,33.512271 54.9648153,33.4272661 C54.8777156,33.3081817 54.7745795,33.2042183 54.6443524,33.1310249 C54.4237339,33.0070469 54.2068295,33.0165173 53.9984274,33.1577991 C53.9358135,33.20024 53.8805048,33.25407 53.8246505,33.3057173 C53.2977923,33.7930391 52.731961,34.22808 52.1079693,34.5850339 C51.8941983,34.7073397 51.6736149,34.815299 51.4424169,34.9016594 C51.3044093,34.953201 51.1619833,34.9850976 51.0177618,35.0099531 C50.8873411,35.0324498 50.7613387,35.0033872 50.6369382,34.967037 C50.4596054,34.9152313 50.3058959,34.8201222 50.1623785,34.7065828 C49.9823701,34.5641744 49.8207744,34.4027371 49.6697406,34.230386 C49.5733817,34.1204376 49.4769347,34.0105772 49.3724961,33.891528 C49.3345968,33.9239703 49.2977713,33.9504277 49.2669836,33.9826588 C49.0396407,34.2207396 48.7946595,34.4388585 48.5307551,34.6356074 C48.2225615,34.8653619 47.8893893,35.046585 47.5128256,35.1354626 C47.3250543,35.179787 47.1363323,35.2078286 46.9391962,35.1741012 C46.7121877,35.1352866 46.5166358,35.0406176 46.3399896,34.8993006 C46.1221171,34.7250131 45.9513326,34.5095874 45.8037665,34.2751681 C45.7257676,34.1512605 45.6539473,34.0234802 45.5790112,33.8976538 C45.5614258,33.8680984 45.5425202,33.8393526 45.5180696,33.8004676 C45.4278366,33.8674999 45.3443279,33.9296209 45.2607311,33.9916363 C44.9027914,34.2571778 44.5391308,34.514393 44.1517412,34.7358566 C43.8514866,34.9075036 43.5442612,35.0642232 43.2143279,35.1737139 C42.9887981,35.248562 42.7596244,35.284701 42.5226351,35.2666931 C42.2895359,35.2489844 42.0782998,35.1641731 41.880882,35.0450359 C41.6737473,34.9200369 41.4940909,34.7608176 41.3297492,34.5835377 C41.1617636,34.4023322 41.0191968,34.2017459 40.8755034,34.0017228 C40.8346116,33.9448123 40.7890198,33.8909295 40.7419493,33.8389302 C40.7146647,33.8088114 40.68268,33.7813155 40.6484773,33.7593821 C40.5097304,33.6704517 40.3874422,33.6435191 40.2103735,33.7709473 C40.1772974,33.7947642 40.1457352,33.822577 40.1194363,33.8536111 C39.9217369,34.086939 39.6850291,34.2811531 39.4730888,34.500117 C39.3345003,34.6432823 39.1963518,34.7868701 39.0586611,34.930898 C38.897259,35.0997285 38.7030978,35.1967211 38.4667949,35.1951016 C38.2723872,35.1937814 38.1169878,35.1100614 37.9992412,34.9564223 C37.9343037,34.871699 37.8886591,34.7771004 37.8616913,34.6738059 C37.7033522,34.0673469 37.566964,33.4560998 37.4667149,32.837213 C37.4096107,32.4846247 37.3514151,32.1320891 37.3029364,31.7782685 C37.2663749,31.5114244 37.2414667,31.2428376 37.2167344,30.9745149 C37.1834295,30.6128257 37.1460055,30.251119 37.1272231,29.8885497 C37.1029838,29.4203447 37.0892358,28.9513652 37.0824058,28.4825441 C37.0759279,28.0370822 37.0773538,27.5912507 37.0880388,27.1458768 C37.097034,26.7710558 37.1232624,26.3966221 37.1439812,26.0221356 L37.181546,25.4784841 C37.2134779,24.998978 37.262115,24.5211089 37.322951,24.0444897 C37.3726267,23.6552695 37.4155781,23.2649578 37.4763789,22.8774627 C37.546791,22.4287794 37.8697887,22.0105846 38.3965061,21.8735099 C38.6290419,21.8129908 38.8600991,21.8215987 39.0899064,21.8961122 Z M97.3833678,29.7424376 C97.4385586,29.7888884 97.4831604,29.8431656 97.5173001,29.9021446 C97.6365394,29.924639 97.6987145,30.0006574 97.7187037,30.097224 C97.7388462,30.1945498 97.7007992,30.2841067 97.6027845,30.342158 L97.5873478,30.350555 C97.5689554,30.4356165 97.5325763,30.5161422 97.4785094,30.5847793 L97.685746,30.8483483 C97.6024473,30.8524225 97.5450855,30.8552315 97.4843207,30.8581922 L97.3571015,30.7032049 C97.2461166,30.788966 97.1174769,30.8353876 96.9680246,30.8350063 L96.9173211,30.8317303 C96.9168323,30.8377224 96.9163433,30.843717 96.9158539,30.8497148 L96.7565225,30.8497148 L96.7479237,30.7982063 C96.4891161,30.7081379 96.3115757,30.4627121 96.3263772,30.1733946 C96.3366397,29.9724562 96.4383499,29.8214047 96.598643,29.7061754 C96.8064114,29.5568138 97.1600383,29.5544726 97.3833678,29.7424376 Z M96.5303257,29.9576345 C96.4308159,30.1210433 96.4285627,30.2908067 96.5215418,30.456099 C96.5745192,30.5502722 96.6455178,30.6161575 96.732371,30.6562735 C96.7138759,30.3954113 96.7254169,30.0326977 96.7655667,29.8798479 C96.9518643,29.8539361 97.1398526,29.8511589 97.32781,29.8721562 C97.2694081,29.8114374 97.1954029,29.7661594 97.11376,29.7446556 C96.8869804,29.6849286 96.6431962,29.7723275 96.5303257,29.9576345 Z M96.9329612,30.0289745 C96.9377439,30.1079283 96.9421281,30.1806063 96.9468188,30.2579406 C97.1298797,30.2948869 97.2955267,30.2901548 97.4745407,30.2379491 C97.4777161,30.2224535 97.4776642,30.2157297 97.4774383,30.2090055 C97.4752074,30.1428866 97.458788,30.078255 97.4311925,30.0189583 C97.4244013,30.0165428 97.4172002,30.0148486 97.4094224,30.0135127 C97.254138,29.9868151 97.0964621,29.9727704 96.9329612,30.0289745 Z M78.7984273,26.7973248 C79.5704955,26.8254016 80.1510077,27.4027101 80.147503,28.1746551 C80.1441073,28.915742 79.5688584,29.5180995 78.7856123,29.5168868 C77.9692549,29.5155999 77.4168019,28.8654502 77.4265363,28.1351011 C77.4355491,27.4579835 77.9634459,26.8148046 78.7984273,26.7973248 Z" id="Image" fill="#252324"></path>
    </g>
</svg>