<?xml version="1.0" encoding="UTF-8"?>
<svg width="110px" height="60px" viewBox="0 0 110 60" version="1.1" xmlns="http://www.w3.org/2000/svg" xmlns:xlink="http://www.w3.org/1999/xlink">
    <title>Media/Brand Logos/Dark/brand-puma-dark</title>
    <g id="Symbols" stroke="none" stroke-width="1" fill="none" fill-rule="evenodd">
        <g id="Image" fill="#252324" transform="translate(31.000000, 12.000000)">
            <path d="M4.54829041,0.159789252 C4.23925528,0.206187483 3.94218795,1.3406905 3.34512783,1.93220166 C2.90790429,2.35773971 2.36376843,2.33308237 2.07308393,2.85937087 C1.96351209,3.05530397 1.99914953,3.39228769 1.87441849,3.7154845 C1.63027542,4.36055247 0.771785407,4.41782115 0.771785407,5.12148345 C0.770189701,5.88188417 1.4869278,6.02638151 2.11031707,6.56645692 C2.59700751,6.99888842 2.64354894,7.29875356 3.23183268,7.50953409 C3.73368232,7.67974931 4.48180265,7.12244028 5.15439287,7.3234109 C5.70677321,7.48726294 6.23601581,7.60471675 6.36048091,8.16997976 C6.47005274,8.6925564 6.35276833,9.50094614 5.68283762,9.40735428 C5.45704517,9.38163641 4.47728148,9.05393233 3.2757146,9.18040065 C1.82308993,9.34557836 0.167278656,9.81777977 0.00504851112,11.4313777 C-0.0845769949,12.3325639 1.034811,13.3960113 2.11457229,13.1801933 C2.86189476,13.0330446 2.50897771,12.1549249 2.91508497,11.7277961 C3.44831684,11.1813575 6.47005274,13.6362216 9.2790278,13.6362216 C10.4606483,13.6362216 11.3414782,13.3382124 12.2143296,12.4261557 C12.2965085,12.3561607 12.3957082,12.2071561 12.5223009,12.1976113 C12.641447,12.2071561 12.8488888,12.3238145 12.9175042,12.3736594 C15.1794179,14.1855766 16.8897492,17.8221374 25.2039111,17.8645586 C26.3740958,17.8717172 27.7049149,18.4279657 28.7926547,19.4166457 C29.7623122,20.3109384 30.3298518,21.7028854 30.8814343,23.1144521 C31.714127,25.2312719 33.2045167,27.2924139 35.4648348,29.5839562 C35.5882361,29.7064476 37.4498935,31.1490348 37.5985601,31.2564136 C37.6219638,31.2725867 37.7591945,31.5979046 37.7115893,31.7792554 C37.6562715,33.1542338 37.4557444,37.1511099 40.4450343,37.3314002 C41.174804,37.3687839 40.984383,36.855752 40.984383,36.5044511 C40.9825213,35.8082126 40.8556627,35.1164812 41.2226752,34.4035393 C41.7266524,33.4236086 40.1556795,32.9726178 40.2008912,30.8526164 C40.2341351,29.2732206 38.9017203,29.5418001 38.2270025,28.3383626 C37.838448,27.6402681 37.4919137,27.270673 37.5169131,26.4172107 C37.669569,21.6164521 36.4919378,18.4616375 35.9057816,17.6866545 C35.447282,17.1015066 35.0690996,16.8700457 35.4879725,16.59908 C37.9817956,14.9563175 38.5474735,13.4286226 38.5474735,13.4286226 C39.8737714,10.3202063 41.0665619,7.48116489 42.7120011,6.23132913 C43.043642,5.97308983 43.8925578,5.34021797 44.413024,5.09284912 C45.9496892,4.37142292 46.7568507,3.93395389 47.2031166,3.50125724 C47.9065571,2.8166845 48.4658522,1.3868236 47.7898046,0.520369786 C46.9483354,-0.548645444 45.4941151,0.299779342 44.8526411,0.679449434 C40.2668471,3.39228769 39.5913314,8.17872914 38.0028057,10.9262998 C36.735017,13.1231897 34.6746942,14.7362573 32.8324512,14.8680283 C31.4524312,14.9703696 29.9628393,14.6919802 28.48096,14.0426701 C24.8754616,12.4669862 22.9037004,10.4323575 22.4372223,10.0731026 C21.4688945,9.32834473 13.9493943,1.96799458 7.85778536,1.66865971 C7.85778536,1.66865971 7.1011546,0.159258987 6.9115315,0.134071376 C6.46579753,0.0773329683 6.00969146,1.03499245 5.68283762,1.14687846 C5.37566415,1.24842431 4.85865529,0.109679163 4.54829041,0.159789252" id="Fill-75"></path>
        </g>
    </g>
</svg>