<?xml version="1.0" encoding="UTF-8"?>
<svg width="110px" height="60px" viewBox="0 0 110 60" version="1.1" xmlns="http://www.w3.org/2000/svg" xmlns:xlink="http://www.w3.org/1999/xlink">
    <title>Media/Brand Logos/Dark/brand-nike-dark</title>
    <g id="Symbols" stroke="none" stroke-width="1" fill="none" fill-rule="evenodd">
        <g id="Media/Brand-Logos/Dark/brand-nike-dark" fill="#252324" fill-rule="nonzero">
            <g id="Image" transform="translate(25.000000, 20.000000)">
                <path d="M59.2522634,0 L15.9041152,18.3537778 C12.3090535,19.8660741 9.29012346,20.6222222 6.8473251,20.6222222 C4.081893,20.6222222 2.07695473,19.6598519 0.832510288,17.7351111 C0.0489711934,16.4977778 -0.181481481,14.9281975 0.141152263,13.0263704 C0.463786008,11.1245432 1.31646091,9.09669136 2.69917695,6.94281481 C3.85144033,5.20138272 5.74115226,2.91002469 8.36831276,0.0687407407 C7.44650206,1.53520988 6.80123457,3.04750617 6.43251029,4.60562963 C5.74115226,7.5385679 6.36337449,9.69244444 8.29917695,11.0672593 C9.22098765,11.7088395 10.4884774,12.0296296 12.1016461,12.0296296 C13.3921811,12.0296296 14.8440329,11.8234074 16.4572016,11.410963 L59.2522634,0 Z" id="Path"></path>
            </g>
        </g>
    </g>
</svg>