<?xml version="1.0" encoding="UTF-8"?>
<svg width="110px" height="60px" viewBox="0 0 110 60" version="1.1" xmlns="http://www.w3.org/2000/svg" xmlns:xlink="http://www.w3.org/1999/xlink">
    <title>Media/Brand Logos/Dark/brand-caterpillar-dark</title>
    <g id="Media/Brand-Logos/Dark/brand-caterpillar-dark" stroke="none" stroke-width="1" fill="none" fill-rule="evenodd">
        <path d="M31.3156305,37.6086957 L33.7391304,42.3043478 L29.0434783,42.3043478 L31.3156305,37.6086957 Z M17.9612937,35.5217391 L16,35.5217391 L16,46.4782609 L23.826087,46.4782609 L23.826087,44.726504 L17.9612937,44.726504 L17.9612937,35.5217391 Z M78.3192904,37.2736933 L78.3192904,46.4782609 L80.3481364,46.4782609 L80.3481364,37.2736933 L84.3478261,37.2736933 L84.3478261,35.5217391 L74.4347826,35.5217391 L74.4347826,37.2736933 L78.3192904,37.2736933 Z M56.9564204,44.9130435 C54.7284453,44.9130435 53.0434783,43.3167952 53.0434783,41.2605816 C53.0434783,39.204752 54.7284453,37.6086957 56.9564204,37.6086957 C59.1843955,37.6086957 60.8695652,39.204752 60.8695652,41.2605816 C60.8695652,43.3167952 59.1843955,44.9130435 56.9564204,44.9130435 Z M44.6542575,37.4815343 C46.368908,37.4815343 47.3279079,38.3771 47.8802093,38.8532915 L49.3042725,37.5095455 C48.8394154,37.0055414 47.4735109,35.5217391 44.6251782,35.5217391 C41.3410677,35.5217391 38.4347826,37.6492045 38.4347826,41.2606709 C38.4347826,44.8723359 41.3119884,47 44.5960988,47 C47.1247649,47 48.8394154,45.6840666 49.3913043,45.2080738 L48.2578284,43.6684475 C47.3569873,44.3965417 45.9329241,45.0404035 44.6251782,45.0404035 C42.3584325,45.0404035 40.6435758,43.3885336 40.6435758,41.2606709 C40.6435758,39.1332055 42.3584325,37.4815343 44.6542575,37.4815343 Z M64.5217391,45.6840666 C64.9917176,46.048213 66.4014442,47 68.8686743,47 C71.3648743,47 73.3913043,45.7122765 73.3913043,43.6964588 C73.3913043,39.4971533 67.018356,40.8408992 67.018356,38.5453663 C67.018356,37.9015046 67.576286,37.3694892 69.044786,37.3694892 C70.8069444,37.3694892 71.952191,38.125396 72.3925743,38.4613325 L73.2447879,36.8374739 C72.7158277,36.3616797 71.1006027,35.5217391 69.044786,35.5217391 C65.9608525,35.5217391 64.6980592,37.173609 64.6980592,38.797269 C64.6980592,42.6046156 71.071216,41.5129709 71.071216,43.7806913 C71.071216,44.7324783 70.0726943,45.1520512 68.9272393,45.1520512 C67.1944676,45.1520512 65.8139192,44.424553 65.2266025,44.0043841 L64.5217391,45.6840666 Z M94.6082309,35.5217391 L85.9130435,35.5217391 L85.9130435,46.4782609 L94.7826087,46.4782609 L94.7826087,44.726504 L87.9488338,44.726504 L87.9488338,41.8621636 L93.7648174,41.8621636 L93.7648174,40.110012 L87.9488338,40.110012 L87.9488338,37.2736933 L94.6082309,37.2736933 L94.6082309,35.5217391 Z M36.0085403,46.4782609 L38.4347826,46.4782609 L32.8616259,35.5217391 L30.5380685,35.5217391 L25.3913043,46.4782609 L27.538294,46.4782609 L28.6559307,44.0032655 L34.8028284,44.0032655 L36.0085403,46.4782609 Z M56.6956522,47 C60.0171502,47 62.9565217,44.8723359 62.9565217,41.2606709 C62.9565217,37.6492045 60.0171502,35.5217391 56.6956522,35.5217391 C53.3743626,35.5217391 50.4347826,37.6492045 50.4347826,41.2606709 C50.4347826,44.8723359 53.3743626,47 56.6956522,47 Z M58.7801009,19.937306 C58.7302935,20.0655307 58.6822194,20.1972611 58.6369596,20.3315532 C58.6259157,20.3640476 58.575242,20.3792835 58.5256518,20.3636431 C58.2928585,20.2928565 58.0459883,20.2178903 57.7824449,20.1395532 C57.7254913,20.1237779 57.7241923,20.0942498 57.7815787,20.0776656 C58.0698094,19.9915082 58.3749314,19.9293509 58.6900147,19.892542 C58.7530312,19.8851262 58.79331,19.9060251 58.7801009,19.937306 M57.7362522,19.415286 C57.6864158,19.5439152 57.6372304,19.6755107 57.5941114,19.8098029 C57.5817605,19.8421624 57.5327908,19.8575332 57.4831717,19.8421624 C57.2482919,19.7708366 57.0017123,19.695331 56.7388811,19.6180725 C56.6818942,19.6012186 56.6805945,19.5724995 56.7388811,19.5556456 C57.0255465,19.4696231 57.3304135,19.4066568 57.6469811,19.3707916 C57.7087338,19.363241 57.7507696,19.3838703 57.7362522,19.415286 M57.0693711,20.8535828 C57.058979,20.8864817 57.0100512,20.8999648 56.9593906,20.8860772 C56.7268736,20.815021 56.4800678,20.7396502 56.2168085,20.6618525 C56.1600859,20.6452682 56.159437,20.6165491 56.2159425,20.59983 C56.5030168,20.5129986 56.8087091,20.4504367 57.1237121,20.4140323 C57.186496,20.4075604 57.2278468,20.4283244 57.2150737,20.459066 C57.1631145,20.587021 57.1161342,20.7195604 57.0693711,20.8535828 M56.1713698,18.8939352 C56.1202827,19.0214858 56.0717933,19.153351 56.0269838,19.2876431 C56.0159433,19.3208116 55.9676702,19.3359128 55.9165831,19.3208116 C55.6840938,19.2486768 55.4371011,19.1739802 55.1745221,19.0964521 C55.1167248,19.0798678 55.1154255,19.0511487 55.172574,19.0340251 C55.4602636,18.9474633 55.7665692,18.8850363 56.0817509,18.8483622 C56.1436614,18.8420251 56.184791,18.8630588 56.1713698,18.8939352 M56.1716095,20.4595749 C56.1211379,20.5869906 56.0728321,20.7183165 56.027343,20.8527434 C56.0160785,20.8861816 55.9666898,20.9008782 55.9168683,20.8861816 C55.6844379,20.8148558 55.4361941,20.7390805 55.1732207,20.6615524 C55.1169,20.6449681 55.1158171,20.6157097 55.1721378,20.598721 C55.4598051,20.5129681 55.7650189,20.450676 56.0817135,20.4140018 C56.1440997,20.4064513 56.1841733,20.4277547 56.1716095,20.4595749 M55.6496601,21.5028169 C55.5979069,21.6309067 55.550052,21.7622326 55.505012,21.8965247 C55.4941851,21.9296933 55.4448141,21.9442551 55.3943598,21.9296933 C55.1620131,21.8587719 54.9153747,21.782727 54.6516298,21.705064 C54.5953302,21.6884798 54.5938141,21.6593562 54.6505473,21.6426371 C54.9381119,21.5566146 55.2434321,21.493918 55.558713,21.4575135 C55.6212931,21.4499629 55.6630856,21.4709966 55.6496601,21.5028169 M54.4608525,19.2876153 C54.4515481,19.320649 54.4022118,19.3353456 54.3522261,19.320649 C54.1176619,19.2489187 53.8720621,19.1740872 53.6087192,19.0964243 C53.5518089,19.0797052 53.5500777,19.0516602 53.6074204,19.0344018 C53.8954319,18.9477052 54.2005387,18.8847389 54.5166802,18.8488737 C54.5783508,18.8421321 54.6188151,18.8620872 54.6064817,18.8944468 C54.5543316,19.0219973 54.5071597,19.1531883 54.4608525,19.2876153 M54.6061256,20.4593229 C54.5556786,20.588087 54.5067466,20.7181994 54.4625785,20.8535702 C54.4491547,20.88566 54.4017386,20.900896 54.3510753,20.88566 C54.1185412,20.8146039 53.8704195,20.7393679 53.6080071,20.6621095 C53.5512813,20.6451207 53.551065,20.6165365 53.6067084,20.5996825 C53.894019,20.5127162 54.1997335,20.4505589 54.5156237,20.4140196 C54.5790618,20.407278 54.6195493,20.4279073 54.6061256,20.4593229 M54.0844646,21.5030454 C54.0337561,21.6315398 53.9858655,21.7619218 53.9410083,21.8970229 C53.9303898,21.9291128 53.8805481,21.9443488 53.8309238,21.9291128 C53.5971036,21.8580566 53.3507139,21.7826859 53.0865554,21.7052926 C53.0302129,21.6884386 53.0284792,21.6599892 53.0852555,21.6436746 C53.3734681,21.5567083 53.6774993,21.4938769 53.9947503,21.4574724 C54.0569433,21.4508656 54.0976828,21.4716296 54.0844646,21.5030454 M52.7870307,19.8419309 C52.5520568,19.7715488 52.3051712,19.6953691 52.0422605,19.6185151 C51.9866031,19.6016612 51.9855205,19.5726724 52.0413942,19.5555488 C52.3298601,19.4696612 52.6350011,19.4072342 52.9516202,19.3708298 C53.0126917,19.3638185 53.0536229,19.3843129 53.0412785,19.4159983 C52.9899526,19.5439533 52.9418747,19.675414 52.8970455,19.8099758 C52.8851347,19.8419309 52.8361904,19.8573017 52.7870307,19.8419309 M53.0410511,20.4589638 C52.9899558,20.5862447 52.9416749,20.7175706 52.8972916,20.853211 C52.886033,20.8863796 52.83602,20.9005369 52.7870902,20.8853009 C52.5528312,20.8150537 52.3077471,20.7390088 52.0440432,20.6617503 C51.9864521,20.6443571 51.9849371,20.616447 52.0418777,20.5994582 C52.3302636,20.5123571 52.6351028,20.450065 52.9514178,20.414065 C53.0135546,20.4077279 53.0540419,20.4286267 53.0410511,20.4589638 M52.5192594,21.5026126 C52.467949,21.6305676 52.4205354,21.7612193 52.3750702,21.8965901 C52.3640289,21.9297586 52.3157493,21.9440508 52.2659547,21.9292193 C52.0317011,21.8581631 51.786407,21.7827923 51.5214114,21.7048598 C51.4651212,21.687871 51.4633892,21.659826 51.5192459,21.6429721 C51.8089229,21.555871 52.1133216,21.4931744 52.4291957,21.4575789 C52.4915473,21.4505676 52.5324661,21.471871 52.5192594,21.5026126 M51.7435262,19.8420075 C51.5092067,19.7706817 51.2627611,19.6954457 51.0005054,19.6177828 C50.9437667,19.6017379 50.9407351,19.5738277 50.9983401,19.5556255 C51.2865823,19.4689288 51.5908502,19.4070412 51.9072458,19.3706367 C51.9700484,19.36403 52.0101125,19.3841199 51.9977683,19.4162098 C51.9473098,19.5429513 51.897934,19.6750862 51.8535386,19.8092435 C51.8433605,19.8428165 51.792902,19.8571087 51.7435262,19.8420075 M51.3301509,20.8530875 C51.3195392,20.8855819 51.271029,20.9005482 51.2203536,20.8855819 C50.9875475,20.8139864 50.7393656,20.7386156 50.4777574,20.6609527 C50.4221007,20.6447729 50.4192855,20.6164583 50.4764576,20.5994695 C50.7640542,20.5123684 51.0700582,20.4498066 51.3847251,20.4142111 C51.4468785,20.4076044 51.488892,20.4274246 51.4758977,20.4593796 C51.4245724,20.5871999 51.3758459,20.7191999 51.3301509,20.8530875 M50.8090464,22.4182954 C50.7984425,22.4510595 50.7491025,22.4656213 50.6988969,22.4510595 C50.4653978,22.3795988 50.2197797,22.3044977 49.9564164,22.2266999 C49.8999351,22.2105202 49.8977714,22.1815314 49.9549013,22.1641381 C50.2422856,22.0777111 50.54828,22.015419 50.8635802,21.9792842 C50.9252554,21.9728123 50.9663714,21.993037 50.9544694,22.0245876 C50.9023163,22.1521381 50.85514,22.2840033 50.8090464,22.4182954 M50.2875347,20.3310115 C50.276497,20.3640452 50.2280165,20.3791463 50.1784541,20.3637755 C49.9438426,20.2935284 49.6981934,20.2186969 49.4345804,20.139416 C49.3787415,20.12418 49.3754947,20.0943823 49.4332822,20.077798 C49.7211354,19.9913711 50.0258703,19.9301576 50.3420755,19.8924048 C50.4050567,19.8853935 50.4448805,19.9065621 50.4325437,19.9382474 C50.3816822,20.065798 50.332553,20.1971239 50.2875347,20.3310115 M49.9104579,20.9813418 C49.8593634,21.1092968 49.8110832,21.2406226 49.7656183,21.3750496 C49.7541435,21.4071395 49.7045647,21.4229148 49.6547688,21.4071395 C49.4224619,21.3366226 49.175216,21.2605777 48.9125995,21.1833193 C48.8558753,21.1670047 48.8550092,21.1382856 48.9113,21.1211619 C49.1979493,21.0351395 49.5042996,20.9729822 49.8195273,20.9357687 C49.8823129,20.9290271 49.9240974,20.9500608 49.9104579,20.9813418 M49.9102411,22.5469476 C49.8595618,22.674633 49.8119134,22.8056892 49.7662149,22.9398465 C49.7547368,22.9724757 49.7062228,22.9877117 49.6559762,22.9724757 C49.423152,22.9016892 49.1766834,22.8263184 48.9128886,22.7479813 C48.8559284,22.7320712 48.855062,22.703487 48.9107231,22.6864982 C49.1987749,22.6000712 49.5039364,22.5375094 49.8212268,22.5013746 C49.8825188,22.4938241 49.9245355,22.5151274 49.9102411,22.5469476 M48.6127817,20.36369 C48.379015,20.2929035 48.1320454,20.2172631 47.8688413,20.1406788 C47.8127811,20.1240945 47.8112656,20.0945664 47.8677592,20.0779822 C48.155422,19.9920945 48.461916,19.9291282 48.7762016,19.8920496 C48.8398381,19.8857125 48.8796646,19.9056676 48.8673276,19.9376226 C48.8149461,20.0658473 48.7679766,20.1970384 48.7223055,20.3313305 C48.7119156,20.364499 48.6629982,20.3794653 48.6127817,20.36369 M48.3451475,21.5025342 C48.293596,21.6311634 48.2452931,21.7624893 48.2006724,21.8970511 C48.1889758,21.9291409 48.1404564,21.9447814 48.0904206,21.9291409 C47.8569213,21.8583544 47.6104252,21.7829836 47.3476847,21.7051859 C47.2913674,21.6891409 47.2892009,21.660287 47.3455182,21.6424893 C47.6333856,21.5567364 47.9387975,21.493905 48.2539568,21.4573656 C48.3176385,21.4503544 48.3590106,21.4720623 48.3451475,21.5025342 M47.157693,20.8527549 C47.1460039,20.8863279 47.0972991,20.9002156 47.047295,20.8863279 C46.8139439,20.8139234 46.567388,20.7394965 46.3039476,20.6618335 C46.246801,20.6452493 46.2465839,20.6167998 46.3028655,20.5988672 C46.5907664,20.5127099 46.8959844,20.450283 47.2122428,20.414283 C47.2730702,20.4065976 47.314199,20.4273616 47.3022935,20.4585077 C47.2503414,20.5872717 47.2029351,20.7185976 47.157693,20.8527549 M47.1565074,21.8963998 C47.1454752,21.9294335 47.0961537,21.944265 47.04575,21.9294335 C46.8136363,21.8582425 46.5670291,21.7823324 46.304414,21.7056133 C46.2475217,21.68822 46.245791,21.6599054 46.3026834,21.6423774 C46.5899596,21.5572987 46.8954067,21.4943324 47.2114529,21.4573886 C47.273538,21.450647 47.3146385,21.4714111 47.3020918,21.5024223 C47.2506075,21.6302425 47.2023675,21.7617032 47.1565074,21.8963998 M45.7809575,19.6180405 C45.7255131,19.6017259 45.724864,19.572872 45.7809575,19.5565574 C46.0687912,19.4694563 46.3743838,19.4067596 46.6899397,19.3706248 C46.751015,19.3637484 46.7921651,19.3845124 46.7806862,19.4156585 C46.7291408,19.543209 46.6806271,19.6753439 46.636228,19.8099057 C46.6253991,19.8425349 46.5755864,19.8573664 46.5257728,19.8419956 C46.2927335,19.7714787 46.0460507,19.6958383 45.7809575,19.6180405 M45.5918259,21.3749954 C45.580797,21.4074898 45.5312778,21.4227257 45.4815426,21.4070853 C45.248001,21.3360291 45.0017014,21.2607932 44.7383187,21.1831302 C44.6829606,21.1668156 44.6803656,21.137692 44.7370216,21.1208381 C45.0244065,21.034546 45.3301732,20.9719842 45.6450211,20.9362538 C45.7079473,20.9282988 45.7488173,20.9491977 45.7371403,20.9803437 C45.6839451,21.108973 45.636588,21.2411078 45.5918259,21.3749954 M44.2166625,20.1407429 C44.1608275,20.1236193 44.1588799,20.0955744 44.2155806,20.0780463 C44.5027637,19.9914845 44.8085587,19.9287879 45.1243088,19.8919789 C45.1864206,19.8853721 45.2275388,19.9055968 45.2152038,19.9367429 C45.1634802,20.0651024 45.1150032,20.196698 45.0693395,20.3312598 C45.0578693,20.3644283 45.0098255,20.3796643 44.9594001,20.363889 C44.7269701,20.2922935 44.4789584,20.217462 44.2166625,20.1407429 M43.6931729,18.5125227 C43.9817745,18.4263654 44.2879001,18.3643429 44.6035443,18.3273991 C44.6654184,18.319444 44.7065237,18.3408822 44.6931104,18.3720283 C44.6414042,18.5003878 44.5935927,18.6315789 44.5485935,18.7654665 C44.5362617,18.7987698 44.487801,18.8142755 44.4378256,18.7985002 C44.2037426,18.7271743 43.9586264,18.6520732 43.6942553,18.57468 C43.6386552,18.5583653 43.6380059,18.5301856 43.6931729,18.5125227 M44.2155659,17.4687464 C44.5039373,17.3816453 44.8081123,17.320297 45.1239779,17.2838925 C45.1861117,17.276342 45.2272458,17.2972408 45.2153388,17.3279824 C45.16338,17.4567464 45.115535,17.5880723 45.0702871,17.7218251 C45.0592461,17.7548588 45.0098854,17.7709038 44.9592252,17.7548588 C44.7269263,17.6832633 44.4805559,17.6081622 44.2162156,17.5302296 C44.1607928,17.513915 44.1590608,17.4851959 44.2155659,17.4687464 M45.2596413,16.4255672 C45.5460945,16.3388705 45.8520345,16.2767132 46.1692338,16.2403087 C46.2313743,16.2330278 46.2718631,16.2537919 46.2582226,16.2852076 C46.2075577,16.4130278 46.1592741,16.544084 46.1151046,16.6789155 C46.1040616,16.7116795 46.0540457,16.7270503 46.0033809,16.7116795 C45.7699745,16.640893 45.523144,16.5653874 45.2607237,16.4874548 C45.2033464,16.4707357 45.2029138,16.4426908 45.2596413,16.4255672 M46.2585661,18.3721419 C46.2068213,18.500097 46.1589741,18.6310183 46.1132916,18.7654453 C46.1018167,18.7983442 46.0537533,18.814524 46.0033079,18.7983442 C45.7696993,18.7275577 45.523317,18.6520521 45.2600481,18.5743891 C45.2041902,18.558479 45.2024581,18.5294903 45.2591821,18.5118273 C45.5471329,18.4255352 45.8541359,18.3636476 46.1687169,18.3271082 C46.2295548,18.3202318 46.2713397,18.3401869 46.2585661,18.3721419 M47.2109409,17.2836978 C47.2748429,17.2766866 47.3153503,17.297181 47.3017035,17.3290012 C47.2512318,17.4572259 47.2022759,17.5884169 47.1567868,17.7225742 C47.1466052,17.7553383 47.0985166,17.7703046 47.0480441,17.7553383 C46.8140978,17.6833383 46.5669367,17.609181 46.3043967,17.5311136 C46.2478595,17.514799 46.2454764,17.485945 46.3026637,17.4686866 C46.5898985,17.3822596 46.8955453,17.3198327 47.2109409,17.2836978 M46.3033675,15.9036646 C46.5908971,15.8175073 46.895314,15.7548107 47.211856,15.7182714 C47.2737787,15.7116646 47.3144828,15.7324287 47.3021414,15.7637096 C47.2506117,15.8919343 47.2018965,16.0227208 47.1579444,16.1574174 C47.1473351,16.1908556 47.0981865,16.2051478 47.0479555,16.1899118 C46.8134723,16.1189905 46.5677301,16.0434849 46.3044499,15.9660916 C46.2475074,15.949777 46.2455589,15.9205186 46.3033675,15.9036646 M47.8680019,15.3823122 C48.1564471,15.2957504 48.4609163,15.233728 48.7772963,15.1966493 C48.839446,15.1900426 48.8805906,15.2105369 48.8669481,15.2415482 C48.8156259,15.3693684 48.7675514,15.5009639 48.723159,15.6349864 C48.7116817,15.6682898 48.662741,15.6833909 48.612285,15.6682898 C48.3784106,15.5970987 48.1321935,15.5213235 47.8693016,15.4443347 C47.8132148,15.4280201 47.8106161,15.3991662 47.8680019,15.3823122 M64.4247176,18.876965 C64.7826268,18.8772347 65.0035464,19.0775942 65.0434783,19.168201 C65.0434783,19.168201 64.5047668,19.2548976 64.2705361,19.2908976 C64.1172788,19.314628 64.0168943,19.2668976 64.0017348,19.1792572 C63.9823237,19.081774 64.1259674,18.8750774 64.4247176,18.876965 M66.1313742,18.5829059 C66.1730643,18.4802992 66.2603476,18.410052 66.3505589,18.4099172 C66.5117403,18.4097824 66.5891241,18.5802093 66.5887057,18.6323891 L66.1991377,18.7163891 C66.0898244,18.7368835 66.0926126,18.6793104 66.1313742,18.5829059 M72.1043618,23.4728412 C71.8570877,23.3216507 71.6401549,23.3030518 71.4141407,23.236656 C71.1078337,23.1468616 71.0097915,22.7830842 70.8962681,22.7408868 C70.6671575,22.6556922 70.4560042,22.994271 70.3172997,22.9498738 C70.1783881,22.9070765 70.121833,22.4613042 70.009136,22.4205067 C69.7882811,22.3411117 69.5498822,22.6810906 69.410352,22.6368933 C69.2718536,22.594096 69.1969288,22.1545233 69.0844372,22.1147258 C68.8540886,22.0329309 68.6177534,22.3867089 68.4796682,22.3427116 C68.3403442,22.2995143 68.3021589,21.8429427 68.1888424,21.8015453 C67.9430126,21.7117509 67.7176179,22.0729284 67.5010983,22.0397304 C67.3630124,22.0191317 67.0612469,21.9697348 66.6645348,21.7123509 C66.5510114,21.6389554 66.3155026,21.4553668 66.2967196,21.4483673 C66.2564706,21.4335682 66.1547125,21.4091697 66.1796874,21.6073574 C66.2376876,22.0719284 67.0631044,22.4057076 68.0125719,22.6720911 C68.9603874,22.9368746 69.921,23.1940586 70.4935702,23.4496427 C70.8479695,23.6080329 70.9996774,23.7970211 70.872325,23.9810097 C70.7734563,24.1240007 70.5301042,24.1330002 70.2656985,24.0116078 C69.9820965,23.8804159 69.9531995,23.6642293 69.7748653,23.6236319 C69.556075,23.573635 69.278872,23.9762099 69.1056971,23.9372124 C68.8827786,23.8868155 68.8580098,23.4246442 68.6613051,23.3736475 C68.4006143,23.3058516 68.1106142,23.6972273 67.938472,23.6614296 C67.7655041,23.6280316 67.7011049,23.1322625 67.538251,23.091665 C67.2639375,23.0228693 66.9844638,23.4326438 66.8121153,23.397046 C66.6391474,23.3626481 66.5433751,22.8754784 66.3984777,22.819082 C66.1247836,22.7116886 65.7594454,23.1122637 65.38131,22.9180758 C64.1562909,22.1167257 64.3913872,21.7033513 63.4551301,21.4345681 C62.9715208,21.2963767 62.3684031,21.4643662 62.0156559,21.500564 C61.1861108,21.5843588 61.218929,20.889402 61.218929,20.889402 C61.4595979,20.9435987 61.797278,21.0909895 62.4164955,20.8684034 C63.0864893,20.6274184 63.4604965,20.585221 64.3340065,20.8684034 C65.0708756,21.1087884 65.5096944,20.8940017 65.766463,20.8298058 C65.8931961,20.7980077 65.9904135,20.7308119 66.2290187,20.8782027 C66.4672106,21.0253935 66.6963212,21.1873835 66.8135604,21.1323869 C66.9941654,21.0467922 66.9297662,20.5782214 67.2414395,20.4786276 C67.3836529,20.4328304 67.7721085,20.809407 67.9417746,20.7466109 C68.1120593,20.6832149 68.0594254,20.1918454 68.3700668,20.0924516 C68.5131059,20.0472544 68.9015615,20.423631 69.0712276,20.3614349 C69.2425442,20.2964389 69.1892917,19.8062694 69.4995199,19.7060756 C69.6425589,19.6608784 70.031634,20.037855 70.2006806,19.9754589 C70.3705522,19.9110629 70.3191572,19.4200935 70.6293853,19.3192998 C70.7711863,19.2745025 71.1617057,19.652079 71.3303399,19.589083 L71.3303399,19.588683 C71.5004184,19.523487 71.4764753,19.3992948 71.6129092,19.0653155 C71.6395354,18.9997196 71.6894861,18.9347236 71.7586314,18.8793271 C71.9481123,18.7287365 72.235223,18.4067565 72.0663826,18.045179 C71.9126109,17.7185993 71.5959837,17.7289987 70.9001901,17.8677901 C70.3150289,17.9849828 66.681254,18.7587346 66.681254,18.7587346 C66.1142571,17.7423979 65.7305484,18.4133561 64.8884124,18.3149622 C64.3556788,18.2529661 63.4941411,17.7263989 62.1308298,18.945723 C61.3978827,18.7433356 60.7505939,18.9229244 60.2680172,19.1853081 C59.4502375,18.8621282 57.8902214,18.0869764 54.9262333,18.0869764 C54.0876061,18.0869764 52.0879464,18.2473664 48.905168,19.0593159 C48.0904838,19.267303 47.3461846,19.2223058 47.1647532,18.7539349 C46.9767182,18.2633654 47.6297858,17.7495974 48.8612031,17.177633 C51.915391,15.7605212 53.9542678,16.0943004 58.0607131,13.9874315 C60.2620315,12.8591017 60.4058962,11.5349841 60.4038324,11.2144041 C60.4038324,10.9950177 60.173483,10.9212223 60.040558,11.1012111 C59.2997676,12.1027488 59.109461,12.019754 58.8791124,11.7961679 C58.5709479,11.4979864 58.3641291,11.9719569 58.0326418,12.211142 C57.7812395,12.3923308 57.7308764,12.1739444 57.526947,12.0469523 C57.1795661,11.8291658 56.8866766,12.4725258 56.5886261,12.6017177 C56.2428965,12.7521084 56.1799425,12.5841188 56.0624978,12.4653262 C55.9797289,12.3813315 55.8300846,12.3837313 55.722547,12.4825252 C55.0220057,13.127485 54.9196281,13.0536896 54.7103332,12.838903 C54.5551156,12.6793129 54.4700767,12.5681198 54.0172219,13.0128922 C53.7557056,13.2700762 53.3179187,13.5742572 53.1860255,13.2536772 C53.0530997,12.9324972 52.938132,12.7451088 52.2960033,13.3136734 C51.915391,13.6496525 51.6561453,13.6774508 51.5407644,13.5184607 C51.4249702,13.3586706 51.4431346,12.9216978 50.8414612,13.3804693 C50.3025356,13.7916437 50.0315247,14.0394283 49.8536029,13.641853 C49.6816668,13.2576769 49.2847485,13.5808568 48.9836017,13.8590395 C48.8257017,14.0054304 48.5633597,14.3532088 48.351587,13.9994308 C48.140847,13.6496525 47.8041987,14.01103 47.371572,14.4540025 C47.1282199,14.702387 46.9651591,14.5931938 46.7242832,14.4278041 C46.446874,14.2352161 46.1537775,14.9229733 45.7510796,15.3353476 C45.6751221,15.4035434 45.5655207,15.4533403 45.3227873,15.2895505 C45.0096697,15.0803635 44.5122314,16.1474971 44.3710499,16.4092808 C44.1396693,16.8316545 43.88579,16.2982877 43.6162242,16.680264 C42.9887502,17.5708085 42.3171051,18.5583471 42.1263861,20.3082382 C41.8983081,22.4021079 42.6991625,24.1074018 43.5124016,24.7341628 C43.5124016,24.7341628 43.4133266,24.9687481 43.3000102,25.2631298 C43.072551,25.8530932 42.9790486,26.6192455 43.2707008,27.1562121 C43.5526507,27.6749798 44.2131499,28.538126 44.4585665,27.7231768 C44.5774562,27.3276014 44.689947,27.3484001 45.0835635,27.6181833 C45.6775991,28.0239581 45.5322893,27.2840041 45.6515922,27.0650177 C45.735393,26.9114273 45.8383892,26.851831 46.3279843,27.1646115 C46.6097279,27.3422005 46.6999277,27.1010155 46.7839347,26.7632365 C47.0423546,25.7199014 46.5335642,25.4631174 46.0307595,25.3651235 C45.6645956,25.293928 45.2796488,25.3531243 45.2796488,25.3531243 C46.0807102,24.1695979 46.1799913,23.5236381 45.2804745,22.9244754 C45.4146384,22.8590795 45.524446,22.8948772 45.6394145,22.9416743 C45.860681,23.0322687 46.0456212,23.1970585 46.1628596,23.397046 C46.2871157,23.6094328 46.4906319,24.0834033 46.078027,24.9255509 C46.2509949,24.9255509 46.9145897,24.9661483 47.2144977,25.6263073 C47.607494,25.7492996 50.1483507,25.9446874 51.2579881,25.7708983 C51.6613054,25.7079022 51.8437679,25.3547242 52.2462596,24.9915467 C52.6852846,24.5949714 53.1957263,24.1649982 53.6512643,24.4873781 C52.8753849,24.795559 52.3288215,25.3803225 52.3288215,26.1214765 C52.3288215,26.6782418 52.5655692,26.901428 52.9767298,27.2324073 C53.3480538,27.5319887 53.4632285,28.0067591 53.5994561,28.3761362 C53.7730434,28.8459069 54.1381754,28.860706 54.2195,28.4147337 C54.3315784,27.7977721 54.5239486,27.912565 54.7701909,28.1757486 C55.0696856,28.4951287 55.3029244,28.4463318 55.3037493,27.9863604 C55.3045749,27.5513875 55.4389458,27.3364009 55.9411311,27.8393695 C56.1446473,28.0435569 56.3902701,28.0359573 56.3861418,27.591585 C56.3813949,27.0486188 56.6327973,27.1010155 56.9467405,27.333401 C57.0557224,27.414396 57.1316799,27.4725924 57.190712,27.4697926 C57.4377798,27.4567933 57.6004275,26.9914223 57.4101217,26.6232452 C57.3153813,26.4394567 57.1770891,26.1642738 55.8953087,25.9084897 C55.4754791,25.8246949 55.5473084,25.5423125 55.5473084,25.5423125 C58.676628,25.6893033 61.3293561,25.308327 63.0732789,24.280991 C65.2168041,24.7817598 68.3531414,24.8295569 69.3820744,24.8165576 C70.4103888,24.8045584 71.1970016,24.7593612 71.8414003,24.4599798 C72.5204755,24.1439995 72.4185112,23.6638294 72.1043618,23.4728412" id="Image" fill="#252324" fill-rule="nonzero"></path>
    </g>
</svg>