<?xml version="1.0" encoding="UTF-8"?>
<svg width="110px" height="60px" viewBox="0 0 110 60" version="1.1" xmlns="http://www.w3.org/2000/svg" xmlns:xlink="http://www.w3.org/1999/xlink">
    <title>Media/Brand Logos/Dark/brand-guess-dark</title>
    <g id="Symbols" stroke="none" stroke-width="1" fill="none" fill-rule="evenodd">
        <g id="Media/Brand-Logos/Dark/brand-guess-dark" fill="#252324" fill-rule="nonzero">
            <g id="Image" transform="translate(19.000000, 23.000000)">
                <g id="Group">
                    <path d="M8.90961263,7.63988522 L9.14634146,7.66140603 C10.071736,7.72596844 10.3945481,7.87661406 10.5021521,7.96269727 C10.5882353,8.02725968 10.7604017,8.28550933 10.7604017,9.29698709 L10.7604017,12.6327116 C10.7604017,12.7833572 10.7173601,12.9124821 10.6527977,12.9770445 C10.6097561,13.0200861 10.4375897,13.1276901 9.81348637,13.3428981 C9.51219512,13.4505022 9.21090387,13.5150646 8.88809182,13.5581062 C8.56527977,13.6011478 8.26398852,13.6226686 8.02725968,13.6226686 C6.60688666,13.6226686 5.40172166,13.1061693 4.43328551,12.0731707 C3.46484935,11.0401722 2.96987088,9.57675753 2.96987088,7.72596844 C2.96987088,5.46628407 3.46484935,3.83070301 4.43328551,2.86226686 C5.40172166,1.8938307 6.54232425,1.39885222 7.81205165,1.39885222 C9.08177905,1.39885222 10.071736,1.80774749 10.8464849,2.62553802 C11.276901,3.0989957 11.7073171,3.85222382 12.1377331,4.82065997 L12.2022956,4.9713056 L13.1061693,4.9713056 L12.9340029,0.0645624103 L12.0516499,0.0645624103 L11.9870875,0.215208034 C11.9225251,0.387374462 11.8149211,0.538020086 11.7288379,0.6241033 C11.6857963,0.667144907 11.5566714,0.731707317 11.2553802,0.731707317 C11.2123386,0.731707317 11.0186514,0.710186514 9.96413199,0.408895265 C9.18938307,0.172166428 8.35007174,0.0645624103 7.5107604,0.0645624103 C5.20803443,0.0645624103 3.31420373,0.860832138 1.91535151,2.45337159 C0.645624103,3.89526542 0,5.6384505 0,7.63988522 C0,9.92109039 0.817790531,11.7718795 2.41032999,13.1492109 C3.85222382,14.3758967 5.65997131,15 7.76901004,15 C8.90961263,15 10.0932568,14.784792 11.3199426,14.3758967 C12.9555237,13.8163558 13.2998565,13.472023 13.2998565,13.1492109 L13.2998565,9.01721664 C13.2998565,8.43615495 13.4074605,8.02725968 13.6441894,7.85509326 C13.7087518,7.79053085 13.9239598,7.70444763 14.5480631,7.66140603 L14.784792,7.63988522 L14.784792,6.75753228 L8.90961263,6.75753228 L8.90961263,7.63988522 Z" id="Path"></path>
                    <path d="M26.1908178,1.18364419 L26.4275466,1.20516499 C27.1162123,1.2697274 27.58967,1.44189383 27.8263989,1.67862267 C27.9555237,1.80774749 28.1707317,2.25968436 28.1707317,3.65853659 L28.1707317,9.12482066 C28.1707317,10.4160689 28.0200861,11.384505 27.697274,11.9870875 C27.1592539,13.0631277 26.1047346,13.579627 24.4691535,13.579627 C23.0057389,13.579627 22.0373027,13.0846485 21.4992826,12.0516499 C21.2195122,11.4705882 21.0688666,10.6527977 21.0688666,9.59827834 L21.0688666,2.81922525 C21.0688666,1.91535151 21.241033,1.61406026 21.348637,1.52797704 C21.456241,1.42037303 21.7790531,1.2482066 22.76901,1.18364419 L23.0057389,1.16212339 L23.0057389,0.301291248 L16.5494978,0.301291248 L16.5494978,1.18364419 L16.7862267,1.20516499 C17.7546628,1.2697274 18.0774749,1.46341463 18.1850789,1.54949785 C18.2926829,1.63558106 18.4648494,1.93687231 18.4648494,2.84074605 L18.4648494,9.4045911 C18.4648494,10.7388809 18.7015782,11.8364419 19.1535151,12.6542324 C20.0143472,14.2037303 21.6499283,15 23.9956958,15 C26.384505,15 28.0200861,14.2037303 28.8809182,12.6327116 C29.3328551,11.7934003 29.5695839,10.6097561 29.5695839,9.12482066 L29.5695839,3.63701578 C29.5695839,2.28120516 29.7632712,1.82926829 29.892396,1.70014347 C30.0430416,1.52797704 30.3873745,1.31276901 31.312769,1.20516499 L31.527977,1.18364419 L31.527977,0.322812052 L26.169297,0.322812052 L26.169297,1.18364419 L26.1908178,1.18364419 Z" id="Path"></path>
                    <path d="M45.6671449,10.7819225 C45.1506456,11.9225251 44.5911047,12.6327116 43.9670014,12.9124821 C43.3213773,13.2137733 42.3098996,13.3644189 40.9325681,13.3644189 C39.3400287,13.3644189 38.8020086,13.2998565 38.6298422,13.2568149 C38.5868006,13.2352941 38.4146341,13.1922525 38.4146341,12.7618364 L38.4146341,7.81205165 L41.4060258,7.81205165 C42.4605452,7.81205165 42.804878,8.00573888 42.9124821,8.1348637 C43.0631277,8.28550933 43.2783357,8.67288379 43.4505022,9.61979914 L43.4935438,9.83500717 L44.4404591,9.83500717 L44.4404591,4.47632712 L43.4935438,4.47632712 L43.4505022,4.69153515 C43.2783357,5.6384505 43.0631277,6.02582496 42.9124821,6.17647059 C42.804878,6.30559541 42.4605452,6.49928264 41.384505,6.49928264 L38.3931133,6.49928264 L38.3931133,2.06599713 C38.3931133,1.74318508 38.4361549,1.65710187 38.4361549,1.65710187 C38.4361549,1.65710187 38.5007174,1.61406026 38.8020086,1.61406026 L41.6642755,1.61406026 C43.1276901,1.61406026 43.6657102,1.80774749 43.8809182,1.97991392 C44.0961263,2.13055954 44.3758967,2.56097561 44.5911047,3.61549498 L44.6341463,3.83070301 L45.6241033,3.83070301 L45.5380201,0.322812052 L33.8952654,0.322812052 L33.8952654,1.20516499 L34.1319943,1.2266858 C35.0573888,1.29124821 35.3802009,1.48493544 35.4662841,1.57101865 C35.5738881,1.67862267 35.7245337,1.97991392 35.7245337,2.86226686 L35.7245337,12.2022956 C35.7245337,13.1707317 35.5523673,13.4074605 35.4662841,13.472023 C35.3586801,13.5581062 35.035868,13.7302726 34.1104735,13.8163558 L33.8737446,13.8378766 L33.8737446,14.6987088 L45.6671449,14.6987088 L46.7647059,10.6527977 L45.6886657,10.6527977 L45.6671449,10.7819225 Z" id="Path"></path>
                    <path d="M56.2123386,6.54232425 L54.3615495,5.40172166 C53.6944046,4.9928264 53.1994261,4.60545194 52.8981349,4.23959828 C52.6183644,3.89526542 52.4677188,3.50789096 52.4677188,3.01291248 C52.4677188,2.4964132 52.6398852,2.08751793 53.0057389,1.80774749 C53.3931133,1.50645624 53.8235294,1.35581062 54.3400287,1.35581062 C55.0286944,1.35581062 55.7173601,1.61406026 56.4275466,2.10903874 C57.1377331,2.60401722 57.6542324,3.50789096 57.9770445,4.77761836 L58.0200861,4.9713056 L58.9885222,4.9713056 L58.472023,0 L57.6111908,0 L57.5681492,0.193687231 C57.5251076,0.387374462 57.4605452,0.516499283 57.3959828,0.6241033 C57.3529412,0.68866571 57.2238164,0.710186514 57.0731707,0.710186514 C57.0301291,0.710186514 56.8579627,0.667144907 55.9971306,0.365853659 C55.3084648,0.129124821 54.6843615,0 54.1893831,0 C52.9626973,0 51.9727403,0.387374462 51.2195122,1.11908178 C50.4662841,1.8723099 50.1004304,2.81922525 50.1004304,3.93830703 C50.1004304,4.79913917 50.4232425,5.5954089 51.0688666,6.30559541 C51.4131994,6.67144907 51.8651363,7.03730273 52.4031564,7.38163558 L54.1893831,8.50071736 C55.2008608,9.12482066 55.8680057,9.59827834 56.169297,9.89956958 C56.6212339,10.3515065 56.8364419,10.8895265 56.8364419,11.5136298 C56.8364419,12.2022956 56.6212339,12.7187948 56.1908178,13.0846485 C55.7388809,13.472023 55.2439024,13.6657102 54.6197991,13.6657102 C53.4576758,13.6657102 52.5107604,13.2137733 51.7144907,12.2883788 C51.2625538,11.7503587 50.8536585,11.0186514 50.5093257,10.1147776 L50.4447633,9.94261119 L49.4978479,9.94261119 L50.1865136,14.9139168 L51.0903874,14.9139168 L51.133429,14.6987088 C51.1549498,14.5480631 51.1979914,14.4189383 51.2625538,14.3113343 C51.3055954,14.2467719 51.3916786,14.2037303 51.5423242,14.2037303 C51.5853659,14.2037303 51.7575323,14.2467719 52.6829268,14.5480631 C53.4146341,14.8063128 54.1248207,14.9354376 54.7919656,14.9354376 C56.1477762,14.9354376 57.266858,14.5480631 58.1492109,13.7733142 C59.0315638,12.9985653 59.4835007,12.0086083 59.4835007,10.8249641 C59.4835007,9.94261119 59.2252511,9.18938307 58.7302726,8.54375897 C58.2352941,7.94117647 57.374462,7.27403156 56.2123386,6.54232425 Z" id="Path"></path>
                </g>
                <path d="M71.8579627,8.56527977 C71.3629842,7.94117647 70.5236729,7.27403156 69.3615495,6.54232425 L67.5107604,5.40172166 C66.8436155,4.9928264 66.348637,4.60545194 66.0473458,4.23959828 C65.7675753,3.89526542 65.6169297,3.50789096 65.6169297,3.01291248 C65.6169297,2.4964132 65.7890961,2.08751793 66.1549498,1.80774749 C66.5423242,1.50645624 66.9727403,1.35581062 67.4892396,1.35581062 C68.1779053,1.35581062 68.866571,1.61406026 69.5767575,2.10903874 C70.286944,2.60401722 70.8034433,3.50789096 71.1262554,4.77761836 L71.169297,4.9713056 L72.1377331,4.9713056 L71.6212339,0 L70.7604017,0 L70.7173601,0.193687231 C70.6743185,0.387374462 70.6097561,0.516499283 70.5451937,0.6241033 C70.5021521,0.68866571 70.3730273,0.710186514 70.2008608,0.710186514 C70.1578192,0.710186514 69.9856528,0.667144907 69.1248207,0.365853659 C68.4361549,0.129124821 67.8120516,0 67.3170732,0 C66.0903874,0 65.1004304,0.387374462 64.3472023,1.11908178 C63.5939742,1.8723099 63.2281205,2.81922525 63.2281205,3.93830703 C63.2281205,4.79913917 63.5509326,5.5954089 64.1965567,6.30559541 C64.5408895,6.67144907 64.9928264,7.03730273 65.5308465,7.38163558 L67.3170732,8.50071736 C68.3285509,9.12482066 68.9956958,9.59827834 69.2969871,9.89956958 C69.748924,10.3515065 69.964132,10.8895265 69.964132,11.5136298 C69.964132,12.2022956 69.748924,12.7187948 69.3185079,13.0846485 C68.866571,13.472023 68.3715925,13.6657102 67.7474892,13.6657102 C66.5853659,13.6657102 65.6384505,13.2137733 64.8421808,12.2883788 C64.3902439,11.7503587 63.9813486,11.0186514 63.6370158,10.1147776 L63.5724534,9.94261119 L62.625538,9.94261119 L63.3142037,14.9139168 L64.2180775,14.9139168 L64.2611191,14.6987088 C64.2826399,14.5480631 64.3256815,14.4189383 64.3902439,14.3113343 C64.4332855,14.2467719 64.5193687,14.2037303 64.6700143,14.2037303 C64.713056,14.2037303 64.8852224,14.2467719 65.8106169,14.5480631 C66.5423242,14.8063128 67.2525108,14.9354376 67.9196557,14.9354376 C69.2754663,14.9354376 70.3945481,14.5480631 71.276901,13.7733142 C72.1592539,12.9985653 72.6111908,12.0086083 72.6111908,10.8249641 C72.6111908,9.9856528 72.3529412,9.21090387 71.8579627,8.56527977 Z" id="Path"></path>
            </g>
        </g>
    </g>
</svg>