<?xml version="1.0" encoding="UTF-8"?>
<svg width="110px" height="60px" viewBox="0 0 110 60" version="1.1" xmlns="http://www.w3.org/2000/svg" xmlns:xlink="http://www.w3.org/1999/xlink">
    <title>Media/Brand Logos/Dark/brand-fila-dark</title>
    <g id="Symbols" stroke="none" stroke-width="1" fill="none" fill-rule="evenodd">
        <g id="Media/Brand-Logos/Dark/brand-fila-dark" fill="#252324" fill-rule="nonzero">
            <g id="Image" transform="translate(25.000000, 20.000000)">
                <path d="M22.1853816,0 C20.6382979,0 19.3838513,1.25444661 19.3838513,2.80085912 L19.3838513,17.1991409 C19.3838513,18.7462246 20.6382979,20 22.1853816,20 C23.7324653,20 24.9862407,18.7462246 24.9862407,17.1991409 L24.9862407,2.80085912 C24.9862407,1.25511779 23.7324653,0 22.1853816,0" id="Path"></path>
                <path d="M15.0144305,0.195986308 L2.80018793,0.195986308 C1.25377542,0.195986308 0,1.45043291 0,2.99751661 C0,4.54392912 1.25377542,5.79837573 2.80085912,5.79837573 L15.0144305,5.79837573 C16.5615142,5.79837573 17.8159608,4.54392912 17.8159608,2.99751661 C17.8159608,1.45043291 16.5615142,0.195986308 15.0144305,0.195986308" id="Path"></path>
                <path d="M58.8361635,11.3148533 L52.9324116,1.70548359 C52.2384053,0.588630109 51.2940466,0.0496677629 50.1006779,0.0496677629 C48.8710652,0.0496677629 47.8253574,0.626216525 47.1763206,1.70548359 L40.3409625,13.0317471 C39.873817,13.8076381 39.3355259,14.1298074 38.4455333,14.1298074 L33.3646553,14.1298074 C32.9324116,14.1298074 32.6484999,13.8116652 32.6484999,13.4143231 L32.6484999,2.70689308 C32.6464863,1.1638365 31.3960669,0 29.8530103,0 C28.3092825,0 27.0581918,1.16450769 27.0581918,2.70756427 L27.0581918,15.8332774 C27.0581918,17.8079066 29.0086583,19.7201154 30.9450299,19.7201154 L41.1739043,19.7201154 C42.6250084,19.7201154 43.5988993,18.660984 44.4278139,17.2132358 L49.7462917,8.0844352 C49.7932747,7.9837573 49.8805289,7.85488959 49.981878,7.85488959 C50.0899389,7.85488959 50.1570575,7.98442849 50.2114236,8.07772334 L53.6948789,13.6633331 C53.8391838,13.9002618 53.8667025,14.0204041 53.7740788,14.2311565 C53.6915229,14.4237868 53.5029197,14.4647292 53.1955165,14.4647292 L48.3059266,14.4647292 C46.8541513,14.4647292 45.6775623,15.640647 45.6775623,17.0924223 C45.6775623,18.5435264 46.8541513,19.7201154 48.3059266,19.7201154 L56.282972,19.7201154 C58.2200148,19.7201154 60.4067387,17.8723404 60.4067387,15.4594268 C60.4067387,13.9297939 60.1120881,13.3908316 58.8361635,11.3148533 M13.6693738,7.36693738 L2.80085912,7.36693738 C1.25377542,7.36693738 0,8.62138399 0,10.1684677 L0,17.0031546 C0,18.5502383 1.25377542,19.8040137 2.80085912,19.8040137 C4.34794281,19.8040137 5.60238942,18.5502383 5.60238942,17.0031546 L5.60238942,13.8096517 C5.60238942,13.3458621 5.97825357,12.9693268 6.44271428,12.9693268 L13.6693738,12.9693268 C15.2164575,12.9693268 16.4709041,11.7148802 16.4709041,10.1684677 C16.4709041,8.62138399 15.2164575,7.36693738 13.6693738,7.36693738" id="Shape"></path>
            </g>
        </g>
    </g>
</svg>