<?xml version="1.0" encoding="UTF-8"?>
<svg width="110px" height="60px" viewBox="0 0 110 60" version="1.1" xmlns="http://www.w3.org/2000/svg" xmlns:xlink="http://www.w3.org/1999/xlink">
    <title>Media/Brand Logos/Dark/brand-palladium-dark</title>
    <defs>
        <polygon id="path-1" points="0 0 46.0000115 0 46.0000115 46 0 46"></polygon>
    </defs>
    <g id="Media/Brand-Logos/Dark/brand-palladium-dark" stroke="none" stroke-width="1" fill="none" fill-rule="evenodd">
        <g id="IMage" transform="translate(32.000000, 7.000000)">
            <path d="M36.2391339,33.3303367 L36.7163089,33.8524412 L37.0319679,33.5542933 L36.8039791,33.317549 L37.1021271,32.8879533 L39.2942288,35.3518212 L39.5748657,34.9748738 L37.0819664,32.1583664 L36.2391339,33.3303367 Z M34.9195874,34.8178507 L35.9535432,37.0968162 L36.3304907,36.728509 L35.7341948,36.0884356 L36.0762355,35.7727766 L37.4879453,37.3510714 L37.1460198,37.6579749 L36.6198832,37.0704345 L35.8394913,37.8158043 L34.6043892,35.125215 L34.9195874,34.8178507 Z M33.290718,38.2336492 L32.6030654,37.2446229 L31.9583838,37.6903472 L32.6458061,38.6791431 L33.290718,38.2336492 Z M34.5763947,39.8840617 L33.7317189,40.4714869 C33.5926677,40.568143 33.3674439,40.5023616 33.2707877,40.3633103 L32.8858912,39.8097551 L33.2493598,39.539717 L33.5858707,40.0236889 L34.2214511,39.5722045 L33.5520007,38.6094447 L32.8959139,39.0641549 C32.654792,39.2312006 32.4363652,39.1634607 32.275886,38.9325919 L31.5216455,37.8477158 C31.4249893,37.7086646 31.4595505,37.5159283 31.5986017,37.419157 L32.4433926,36.831847 C32.5824439,36.7351908 32.7752954,36.769752 32.8719515,36.9088033 L34.6210938,39.4243978 C34.71775,39.563449 34.7154459,39.7874055 34.5763947,39.8840617 L34.5763947,39.8840617 Z M24.6696573,40.6781629 L25.0739081,40.6781629 L25.0739081,40.1902739 C25.057434,39.7989259 24.8054828,39.6739296 24.3982367,39.6725378 C23.9275131,39.6709343 23.7161138,39.8786471 23.7006765,40.3784021 C23.6897321,40.7361105 23.7586241,40.9522332 23.9167992,41.1104083 L24.7672351,41.9608442 L24.7672351,42.9994082 L24.3211652,42.9994082 L24.3211652,42.3163637 L23.8331611,42.3163637 L23.8331611,42.9646166 C23.8331611,43.327394 24.1531978,43.4399483 24.5511124,43.4246262 C24.9231061,43.4103409 25.2412995,43.3693282 25.2412995,43.0412273 L25.2412995,42.1141807 C25.2412995,41.9159146 25.1471779,41.7261736 25.0043249,41.5843575 L24.1329219,40.7200971 L24.1329219,40.1623946 L24.6627451,40.1623946 L24.6696573,40.6781629 Z M18.3344743,42.7109374 L17.3330059,42.4748844 C17.168149,42.4360607 17.0665391,42.2245461 17.1053628,42.0596892 L17.8522303,38.8862799 C18.0094838,38.9380065 18.1363234,38.9747566 18.2955353,39.0219902 L17.5676765,42.0452887 L18.3292901,42.2383706 L19.0308824,39.2267077 C19.1667079,39.2605777 19.3032247,39.2926044 19.4403174,39.3231334 L18.7062376,42.4369823 C18.6674138,42.6018392 18.499216,42.7497611 18.3344743,42.7109374 L18.3344743,42.7109374 Z M15.2852549,38.2785788 L15.7406563,38.5585245 L15.117633,39.6943207 L14.6535913,39.4424848 L15.2852549,38.2785788 Z M13.7293097,41.1457759 L13.3348512,40.9011978 L15.0071524,37.645072 L15.9354662,38.1210949 C16.1822332,38.2474737 16.2507796,38.5279954 16.1193318,38.7872044 L15.5277593,39.9546818 C15.4119793,40.1831313 15.162793,40.2977593 14.9361868,40.1597449 L14.4313628,39.852035 L13.7293097,41.1457759 Z M10.0844856,34.1484003 L8.03696496,36.0330225 L8.43983333,36.4705673 L8.74189822,36.1924648 L10.4913861,34.5837562 L10.0844856,34.1484003 Z M10.1160515,33.5559061 L10.821676,34.3675183 C10.9533542,34.5188963 10.8643015,34.7359407 10.736425,34.9201519 L8.81943051,36.6846163 C8.56805538,36.9159459 8.2427193,36.9046559 8.06588116,36.7268962 L7.39919563,36.0566393 L10.1160515,33.5559061 Z M29.4423285,38.4732735 L29.832294,38.3316878 L31.2002263,41.7463343 L30.8155602,41.9010533 L29.4423285,38.4732735 Z M21.2868071,39.6341842 L21.7003895,39.6664414 L21.5340349,43.3411033 L21.1197613,43.322901 L21.2868071,39.6341842 Z M11.0584202,39.6311889 L11.3715447,39.2101183 L10.8562372,38.7786793 L11.605524,37.7933396 L12.1249788,38.2289259 L12.3990491,37.8651116 L11.8818984,37.4299861 L12.5658645,36.5288605 L13.0864714,36.9647924 L13.3317407,36.6423364 L12.4810744,35.9301453 L10.2077539,38.9188826 L11.0584202,39.6311889 Z M36.9931441,13.8392028 L37.4037312,13.5124842 L37.0161849,12.9633068 L37.9931148,12.2030756 L38.383426,12.757322 L38.7415952,12.4758787 L38.3533577,11.9226691 L39.2453823,11.2270673 L39.6368454,11.7817746 L39.9565365,11.5330491 L39.3169239,10.6265089 L36.3535315,12.9327777 L36.9931441,13.8392028 Z M35.1004576,11.4568993 L35.4988331,11.0494228 L34.8874454,10.4202937 L37.1289696,8.16978364 L36.7834728,7.82428686 L34.0865473,10.4796238 L35.1004576,11.4568993 Z M32.8250635,8.02047926 L33.422281,6.55139789 L32.3407459,7.69756246 L32.8250635,8.02047926 Z M32.7303658,9.39762785 L34.1163851,5.88148664 L33.7208898,5.56674932 L31.034563,8.329802 L31.4572464,8.56988713 L32.06633,8.0042355 L32.6474189,8.4077951 L32.310908,9.10650735 L32.7303658,9.39762785 Z M29.486106,7.58120642 L30.7949386,4.09144693 L30.3349291,3.84928813 L29.5842598,5.86708614 L29.5923241,3.6151936 L29.2211368,3.47798564 L27.8750933,6.99861981 L28.3444344,7.14907623 L29.1484431,5.0760955 L29.0752886,7.41462144 L29.486106,7.58120642 Z M22.2676539,2.9694752 L23.0868696,2.9694752 L23.0868696,3.51588776 L23.4961894,3.51588776 L23.4961894,2.93168829 C23.4961894,2.69263999 23.300573,2.49713881 23.0616399,2.49713881 L22.2928836,2.49713881 C22.0538353,2.49713881 21.8583341,2.69263999 21.8583341,2.93168829 L21.8583341,5.84957514 C21.8583341,6.08850823 22.0538353,6.28412461 22.2928836,6.28412461 L23.0616399,6.28412461 C23.300573,6.28412461 23.4961894,6.08850823 23.4961894,5.84957514 L23.4961894,4.64845826 C23.4961894,4.42450169 23.416929,4.34927348 23.2052993,4.34927348 L22.7131478,4.34927348 L22.7131478,4.8052509 L23.0868696,4.8052509 L23.0868696,5.86662533 L22.2676539,5.86662533 L22.2676539,2.9694752 Z M26.0004939,2.73860639 L26.4386147,2.82443337 L25.8447381,6.51787352 L25.4038524,6.44840551 L26.0004939,2.73860639 Z M18.6464467,3.05069402 L19.0553057,2.98041958 L19.795837,6.5835398 L19.3898581,6.66763872 L18.6464467,3.05069402 Z M14.5389634,4.38256743 L16.1286633,7.74928905 L16.5092973,7.58316489 L15.0948227,4.61885083 L15.5395101,4.40341935 C15.7066711,4.32243094 15.8428422,4.34858225 15.928554,4.49373929 L16.1786619,4.9175748 C16.3586105,5.22240457 16.327851,5.45845756 15.928554,5.73736644 L17.1123903,7.34273415 L17.5277007,7.19273854 L16.5330294,5.78598253 C16.7390141,5.638291 16.8453474,5.40327485 16.6857899,5.08427498 L16.2412176,4.19501532 C16.1015904,3.91564563 15.8282113,3.77037339 15.5047185,3.92405552 L14.5389634,4.38256743 Z M12.9165455,9.1165301 L13.5800053,8.63267331 L11.9616195,6.30509174 L11.3115234,6.77166793 L12.9165455,9.1165301 Z M13.935064,8.94453053 L13.0902731,9.53195571 C12.9512219,9.62861186 12.7259981,9.56283038 12.6293419,9.42377916 L10.8801996,6.90818467 C10.7835435,6.76913344 10.8182199,6.57639716 10.9571559,6.4796258 L11.8019468,5.89231582 C11.940998,5.79565966 12.1338495,5.83022086 12.2305057,5.96927209 L13.979648,8.48486658 C14.0764193,8.6239178 14.0741152,8.84787437 13.935064,8.94453053 L13.935064,8.94453053 Z M6.43920071,11.1110569 L6.09796647,11.5010224 L9.10214112,13.6956586 L9.86686525,12.646035 L9.5398011,12.3590618 L8.9547952,13.0709073 L6.43920071,11.1110569 Z M8.21380309,8.81964939 L8.86700976,9.45350179 L9.2083592,9.12194468 L8.52577552,8.46862281 L8.21380309,8.81964939 Z M43.7123021,26.7603679 L43.5534357,18.3911431 L42.4019718,17.8996829 L41.180003,21.9996779 L40.0029637,16.8759801 L38.6944767,16.3175864 L38.9586395,29.2348346 L40.3849802,28.4923448 L40.3193139,24.4804808 L41.0113443,27.079483 L41.618815,26.8938894 L42.2432207,24.3455769 L42.3136103,27.4885724 L43.7123021,26.7603679 Z M33.39348,14.0553255 L34.8883671,14.6933252 L35.1550643,27.7410996 C35.1756858,28.7482129 35.0148611,29.0613374 35.6202581,28.7808156 C35.9260095,28.6392299 36.1461643,28.4304803 36.1321094,27.7410996 L35.8740525,15.113935 L37.2628367,15.7066596 L37.5087972,28.5258692 C37.5271146,29.4790671 37.3562671,30.0689115 36.655366,30.4336474 L35.0177412,31.2860418 C34.1508311,31.7372958 33.6852917,31.3846564 33.6731953,30.0828512 L33.39348,14.0553255 Z M30.460847,12.8038644 L32.0226676,13.4703196 L32.3402851,32.6797797 L30.8027725,33.4801019 L30.460847,12.8038644 Z M26.9065733,14.3358472 L27.2167025,32.1867066 C27.711158,31.9917814 27.9146083,31.5564255 27.905968,30.8081756 L27.7336228,16.1278454 C27.7210656,15.0558722 27.4047154,14.4882621 26.9065733,14.3358472 L26.9065733,14.3358472 Z M25.7207786,36.1253009 L25.2561608,10.5826162 L27.0873284,11.3641601 C28.4172433,11.931655 29.2139942,13.2616851 29.2498226,15.3007959 L29.525621,30.9805208 C29.5566109,32.7422203 29.1597331,34.3352612 27.9370731,34.971648 L25.7207786,36.1253009 Z M3.91220103,19.8228984 L3.90114145,22.8952738 C4.35343234,23.3041328 4.93083478,23.2193427 4.91781672,22.7405548 L4.84051484,19.8892559 C4.82657516,19.3741788 4.44018095,19.4215277 3.91220103,19.8228984 L3.91220103,19.8228984 Z M4.01127647,28.1414334 L4.03857982,24.7765551 L5.19292387,24.7765551 C5.92734935,24.7765551 6.43182766,24.4861258 6.40314186,23.7152959 L6.19830916,18.2225997 C6.17515315,17.6009589 5.74279255,17.3651363 5.11539158,17.6542983 L2.42019406,18.8961974 L2.49657431,27.4293575 L4.01127647,28.1414334 Z M8.49916339,25.7667334 L8.87749332,22.2858447 L9.29015404,25.9742158 L8.49916339,25.7667334 Z M11.2874457,31.5618401 L9.48991777,15.638574 L8.01565222,16.317932 L6.55774563,29.3385182 L8.03443047,30.0326223 L8.32693342,27.6612632 L9.43911281,28.1113652 L9.6895663,30.8108253 L11.2874457,31.5618401 Z M12.0331612,14.4667189 L13.4319682,13.8221526 L13.6779287,30.3009324 L15.6282172,31.1316684 L15.6112822,33.5944995 L12.2953655,32.0356742 L12.0331612,14.4667189 Z M22.0637429,28.175073 L22.799666,28.175073 L22.321339,22.2507074 L22.0637429,28.175073 Z M23.4782176,37.292663 L23.1676276,31.8180538 L21.9901275,31.5604577 L21.7116795,36.4621574 L20.2652933,35.7822234 L21.4035088,10.1489883 L22.7672937,9.52055051 L24.8197681,36.5942964 L23.4782176,37.292663 Z M16.1179494,12.5844008 L17.5181387,11.9373 L17.8126002,31.754922 L19.7005633,32.6111181 L19.7005633,35.5167934 L16.43741,33.9828521 L16.1179494,12.5844008 Z M23.0000058,0.412176862 C10.5251409,0.412176862 0.412303587,10.5251294 0.412303587,22.9999942 C0.412303587,35.4748591 10.5251409,45.5878116 23.0000058,45.5878116 C35.4748706,45.5878116 45.5878231,35.4748591 45.5878231,22.9999942 C45.5878231,10.5251294 35.4748706,0.412176862 23.0000058,0.412176862 L23.0000058,0.412176862 Z M23.0000058,0.000552979188 C10.2977282,0.000552979188 0.000564499588,10.2977167 0.000564499588,22.9999942 C0.000564499588,35.7022718 10.2977282,45.9994355 23.0000058,45.9994355 C35.7022833,45.9994355 45.999447,35.7022718 45.999447,22.9999942 C45.999447,10.2977167 35.7022833,0.000552979188 23.0000058,0.000552979188 L23.0000058,0.000552979188 Z" id="Fill-1" fill="#252324"></path>
            <g id="Group-5">
                <mask id="mask-2" fill="white">
                    <use xlink:href="#path-1"></use>
                </mask>
                <g id="Clip-4"></g>
                <path d="M22.2928721,2.49770331 C22.0535934,2.49770331 21.8588986,2.69239806 21.8588986,2.93179197 L21.8588986,5.84956361 C21.8588986,6.08884232 22.0535934,6.28353707 22.2928721,6.28353707 L23.0616284,6.28353707 C23.3009071,6.28353707 23.4956018,6.08884232 23.4956018,5.84956361 L23.4956018,4.64844674 C23.4956018,4.42794629 23.4196824,4.34983798 23.2052878,4.34983798 L22.7137123,4.34983798 L22.7137123,4.80466336 L23.0873189,4.80466336 L23.0873189,5.86718983 L22.2670664,5.86718983 L22.2670664,2.96888766 L23.0873189,2.96888766 L23.0873189,3.51530022 L23.4956018,3.51530022 L23.4956018,2.93179197 C23.4956018,2.69239806 23.3009071,2.49770331 23.0616284,2.49770331 L22.2928721,2.49770331 Z M23.0616284,6.28468911 L22.2928721,6.28468911 C22.0529022,6.28468911 21.8577466,6.08953354 21.8577466,5.84956361 L21.8577466,2.93179197 C21.8577466,2.69182204 22.0529022,2.49655127 22.2928721,2.49655127 L23.0616284,2.49655127 C23.3015983,2.49655127 23.4967539,2.69182204 23.4967539,2.93179197 L23.4967539,3.51645226 L23.086282,3.51645226 L23.086282,2.9700397 L22.2682184,2.9700397 L22.2682184,5.86603779 L23.086282,5.86603779 L23.086282,4.8058154 L22.7125603,4.8058154 L22.7125603,4.34868594 L23.2052878,4.34868594 C23.4204888,4.34868594 23.4967539,4.42713986 23.4967539,4.64844674 L23.4967539,5.84956361 C23.4967539,6.08953354 23.3015983,6.28468911 23.0616284,6.28468911 L23.0616284,6.28468911 Z M25.4045321,6.44793318 L25.8442657,6.51728598 L26.4379119,2.82488266 L26.0009432,2.73928609 L25.4045321,6.44793318 Z M25.8451874,6.51855323 L25.8446113,6.51843802 L25.4031496,6.44885481 L25.4032648,6.44827879 L26.0000215,2.73790364 L26.0005976,2.73801885 L26.4392944,2.82396103 L26.4391792,2.82453705 L25.8451874,6.51855323 Z M18.6471264,3.05114331 L19.3903074,6.66693598 L19.7951342,6.58306747 L19.0548333,2.98109928 L18.6471264,3.05114331 Z M19.3893858,6.66831842 L19.3892706,6.6677424 L18.645744,3.05022168 L18.64632,3.05010648 L19.055755,2.97983204 L19.0558702,2.98029285 L19.7965167,6.5839891 L19.7959407,6.5841043 L19.3893858,6.66831842 Z M29.0758531,7.41426431 L29.4858641,7.58050368 L30.7943511,4.09166582 L30.3352632,3.85008303 L29.5837875,5.87030033 L29.5837875,5.86718983 L29.5917366,3.6156429 L29.2214709,3.47878055 L27.8760034,6.99826267 L28.3439621,7.14837348 L29.1491228,5.07285826 L29.1490076,5.07608398 L29.0758531,7.41426431 Z M29.4864401,7.58200133 L29.4859793,7.58177092 L29.074701,7.41507074 L29.074701,7.41460992 L29.1477404,5.07942489 L28.3446533,7.14975593 L28.3440773,7.14964073 L27.8743906,6.9989539 L27.874621,6.99837788 L29.2207797,3.4772829 L29.2213557,3.4773981 L29.5928886,3.61483647 L29.5928886,3.61518208 L29.5849395,5.86396411 L30.3345719,3.84847018 L30.335148,3.84881579 L30.7957335,4.091205 L30.7956183,4.09166582 L29.4864401,7.58200133 Z M14.5397583,4.38290152 L16.1289974,7.74858631 L16.5085946,7.58292296 L15.0940047,4.6184937 L15.0945807,4.61826329 L15.5392682,4.40294702 C15.7103461,4.32000014 15.8451348,4.35133563 15.9290033,4.49349736 L16.1792264,4.91721766 C16.2750761,5.0797705 16.3043379,5.21329194 16.2713896,5.33736664 C16.2354459,5.47238573 16.1268085,5.59957094 15.9293489,5.73758533 L17.1127244,7.3420314 L17.5267675,7.19249661 L16.5322114,5.7858558 L16.5326722,5.7856254 C16.7714901,5.61420185 16.825636,5.36536121 16.6853175,5.08460907 L16.2406301,4.19523421 C16.168858,4.05157483 16.06552,3.94869766 15.9416757,3.89766229 C15.8083847,3.84270998 15.6575827,3.8520415 15.5049374,3.92450482 L14.5397583,4.38290152 Z M16.1284214,7.74996876 L16.128191,7.74950794 L14.5381454,4.3823255 L14.5387214,4.38209509 L15.5044766,3.92346798 C15.6572371,3.85088946 15.8087303,3.84155794 15.9421365,3.89662545 C16.0662112,3.94766082 16.1697796,4.0507684 16.2416669,4.19465819 L16.6863544,5.08403305 C16.8269032,5.36513081 16.7726422,5.61443226 16.5338243,5.78608621 L17.5286108,7.19307263 L17.5279196,7.19330304 L17.1122635,7.34341385 L17.1120331,7.34306824 L15.927736,5.73735492 L15.9281969,5.73700931 C16.1256565,5.59899492 16.2344091,5.47192491 16.2702375,5.33702103 C16.3031859,5.21329194 16.2739241,5.08011612 16.1781895,4.91779368 L15.9279664,4.49407338 C15.8444435,4.35248767 15.7102309,4.32126738 15.539729,4.40386865 L15.0956176,4.61906972 L16.5100922,7.58349898 L16.5095162,7.58361418 L16.1284214,7.74996876 Z M32.341656,7.69743573 L32.8248216,8.01966132 L33.4206566,6.55403606 L32.341656,7.69743573 Z M32.8252824,8.02127417 L32.8247063,8.02092856 L32.3398127,7.69766614 L32.3402735,7.69720533 L33.4239975,6.54885188 L33.4228455,6.55161678 L32.8252824,8.02127417 Z M11.3124335,6.77188682 L12.9166492,9.11582735 L13.5791873,8.63254658 L11.9614928,6.30588665 L11.3124335,6.77188682 Z M12.9164187,9.117325 L12.9160731,9.11697939 L11.3108206,6.77165641 L11.3112815,6.7713108 L11.9617232,6.30427379 L11.9620688,6.30473461 L13.5808002,8.63277699 L13.5803394,8.6331226 L12.9164187,9.117325 Z M32.3115877,9.10638062 L32.7301239,9.3966947 L34.1157975,5.88170553 L33.7208782,5.56754423 L31.0354731,8.32979048 L31.4572349,8.56918438 L32.0663184,8.00353276 L32.066664,8.00376316 L32.6482138,8.40766838 L32.6480986,8.40812919 L32.3115877,9.10638062 Z M32.7305847,9.39842276 L32.7300087,9.39796194 L32.3102053,9.10672624 L32.3103205,9.10626542 L32.6468314,8.40801399 L32.0663184,8.00503041 L31.4574653,8.57068204 L31.4570045,8.57045163 L31.0336298,8.32990568 L31.0340906,8.32944486 L33.7208782,5.56593137 L33.7212239,5.56627698 L34.11718,5.88135992 L34.1170648,5.88182073 L32.7305847,9.39842276 Z M8.214598,8.81963787 L8.86699824,9.45268384 L9.20754125,9.12193316 L8.5258792,8.46953293 L8.214598,8.81963787 Z M8.86699824,9.4542967 L8.86665263,9.45383588 L8.21298514,8.81975308 L8.21333076,8.81929226 L8.525764,8.46780487 L8.52622481,8.46826568 L9.20915411,9.12193316 L9.20869329,9.12239398 L8.86699824,9.4542967 Z M11.9766997,5.83804322 C11.9146048,5.83804322 11.8541227,5.85670626 11.8022809,5.89276511 L10.95749,6.48007509 C10.8904412,6.52684792 10.8453965,6.59712235 10.8308808,6.67822597 C10.8162499,6.75921438 10.8339913,6.84077881 10.8806489,6.90782754 L12.6297912,9.42353723 C12.6769096,9.49139238 12.7550179,9.54311898 12.8440706,9.56569896 C12.9354274,9.58873976 13.0251713,9.57641293 13.089916,9.53148337 L13.9347069,8.9441734 C13.9995667,8.89901343 14.0388513,8.8232092 14.0451875,8.73058518 C14.0511781,8.64360617 14.0271005,8.55409266 13.9791756,8.48531587 L12.2301485,5.96960618 C12.1834909,5.90244225 12.1131013,5.85751269 12.0321129,5.84299699 C12.013565,5.83965607 11.9950172,5.83804322 11.9766997,5.83804322 L11.9766997,5.83804322 Z M12.9332385,9.5782562 C12.9042071,9.5782562 12.8741389,9.57445447 12.843725,9.566851 C12.7545571,9.54427102 12.6761032,9.49219881 12.6288696,9.42422845 L10.8797273,6.90851876 C10.8328393,6.84112442 10.8150978,6.75932958 10.8297287,6.67799556 C10.8443596,6.59666154 10.8895196,6.52604149 10.956914,6.47926866 L11.8017049,5.89184348 C11.868984,5.84495545 11.950894,5.82732924 12.0323433,5.84184495 C12.1135621,5.85647585 12.1841821,5.90152062 12.2310702,5.96891496 L13.9800973,8.48462465 C14.0282525,8.55363184 14.0523302,8.64337576 14.0463396,8.73070039 C14.0398881,8.82367001 14.0006036,8.89970465 13.9353981,8.94497982 L13.9350525,8.94451901 L13.9353981,8.94497982 L13.0906072,9.53240501 C13.0470601,9.56270366 12.9923382,9.5782562 12.9332385,9.5782562 L12.9332385,9.5782562 Z M34.0873422,10.4797275 L35.1005613,11.4561966 L35.4980151,11.0494112 L34.8866275,10.4203974 L34.8869731,10.4199366 L37.1281517,8.16988733 L36.7834613,7.82508176 L34.0873422,10.4797275 Z M35.1005613,11.4576942 L35.1001005,11.4573486 L34.0857293,10.4797275 L34.0860749,10.4792667 L36.7834613,7.82346891 L36.7839221,7.82381452 L37.1297645,8.16988733 L37.1294189,8.17023294 L34.8882404,10.4203974 L35.499628,11.0494112 L35.4992824,11.0497569 L35.1005613,11.4576942 Z M6.09887659,11.5008957 L9.10201439,13.6949558 L9.8660473,12.6461387 L9.53990479,12.3598567 L8.95489889,13.0717022 L8.95443807,13.0713566 L6.4393044,11.1117366 L6.09887659,11.5008957 Z M9.1022448,13.6964535 L9.10178398,13.6962231 L6.09714853,11.5011261 L6.09749414,11.5006653 L6.43918919,11.110239 L6.43953481,11.1105846 L8.95466848,13.0700894 L9.53978958,12.3582439 L9.5402504,12.3585895 L9.86766016,12.6459082 L9.86731455,12.6463691 L9.1022448,13.6964535 Z M36.3543264,12.9328814 L36.9932478,13.8383848 L37.4029132,13.5124727 L37.015367,12.9632953 L37.0158278,12.9629496 L37.9931033,12.2022576 L37.9934489,12.2027185 L38.3835296,12.7565041 L38.7407772,12.4757519 L38.3525398,11.9226575 L38.3530006,11.9223119 L39.2454859,11.2262494 L39.2458316,11.2267102 L39.6370643,11.7809566 L39.9557186,11.5329224 L39.3167972,10.627419 L36.3543264,12.9328814 Z M36.9930174,13.8401129 L36.9926718,13.8396521 L36.3527136,12.932651 L36.3531744,12.9323054 L39.3170276,10.6256909 L39.3173732,10.626267 L39.9573314,11.5331528 L39.9568706,11.5334984 L39.6368339,11.7826847 L39.6364883,11.7821087 L39.2452555,11.2278622 L38.3541526,11.922888 L38.7423901,12.4759823 L38.7419293,12.476328 L38.3832992,12.7581169 L38.3829536,12.7576561 L37.9928729,12.2038705 L37.0169798,12.9635257 L37.4045261,13.5127031 L37.4040652,13.5130487 L36.9930174,13.8401129 Z M3.91276553,19.8232325 L3.90170595,22.8952623 C4.16022372,23.1286656 4.48337093,23.2169118 4.70548424,23.1147259 C4.84683954,23.0496356 4.92206775,22.9168054 4.91734439,22.7405433 L4.8399273,19.8892444 C4.83485833,19.7038811 4.78151887,19.5854514 4.68106099,19.5372962 C4.52392274,19.4619528 4.25803191,19.5606826 3.91276553,19.8232325 L3.91276553,19.8232325 Z M4.50076673,23.1579274 C4.30872167,23.1579274 4.08787561,23.0648426 3.90078431,22.8957231 L3.9118439,19.8224261 C4.25757109,19.5595305 4.52380753,19.4606855 4.68163701,19.5362593 C4.7823253,19.5845298 4.83601037,19.7033051 4.84107934,19.8892444 L4.91849643,22.7405433 C4.92321979,22.9172662 4.84776117,23.0504421 4.70594505,23.1157627 C4.64419571,23.1442181 4.5746125,23.1579274 4.50076673,23.1579274 L4.50076673,23.1579274 Z M8.49972789,25.7662611 L9.2894513,25.9733979 L8.8774818,22.2910173 L8.49972789,25.7662611 Z M9.29083374,25.9750108 L9.29002732,25.9747803 L8.49857585,25.7670675 L8.49857585,25.7664915 L8.8774818,22.2805338 L8.87805782,22.2857179 L9.29083374,25.9750108 Z M2.49713881,27.4290004 L4.01080413,28.1406155 L4.03799227,24.7759675 L5.19291235,24.7759675 C5.63667815,24.7759675 5.9637423,24.6700951 6.16477327,24.4613454 C6.33446876,24.2851985 6.41442033,24.034169 6.40255432,23.7152843 L6.19783682,18.2225881 C6.18700764,17.9326197 6.0877018,17.7219116 5.91074846,17.613159 C5.81443792,17.5539441 5.69796667,17.5271016 5.56513647,17.5332074 C5.42850452,17.5394284 5.27724168,17.5803259 5.11561047,17.6547476 L2.42075856,18.8965315 L2.49713881,27.4290004 Z M4.01184097,28.1424588 L4.01114974,28.1421131 L2.49610197,27.4296916 L2.49610197,27.429346 L2.41960652,18.8958403 L2.41995213,18.8956099 L5.11526486,17.653826 C5.27689606,17.579289 5.42827412,17.5382764 5.56502126,17.5320554 C5.69808188,17.5258344 5.81489873,17.5529073 5.91132448,17.6121222 C6.08862343,17.7211051 6.18815968,17.9321589 6.19887366,18.2225881 L6.40370636,23.7152843 C6.41568758,24.0345146 6.3355056,24.2857745 6.1656949,24.4621519 C5.96431832,24.6711319 5.63702376,24.7771196 5.19291235,24.7771196 L4.03914431,24.7771196 L4.01184097,28.1424588 Z M22.0644226,28.1746007 L22.7990785,28.1746007 L22.3215579,22.2600274 L22.0644226,28.1746007 Z M22.8003457,28.1757527 L22.0631553,28.1757527 L22.0631553,28.1751767 L22.3212123,22.2414796 L22.3219035,22.2506959 L22.8003457,28.1757527 Z M38.6950412,16.3184965 L38.959204,29.2339014 L40.3845079,28.4921029 L40.3187264,24.4758611 L40.3198784,24.4803541 L41.0117936,27.0788955 L41.6188035,26.893417 L42.2437852,24.3410725 L42.2439004,24.3455654 L42.3140596,27.4876392 L43.7117145,26.760126 L43.5528482,18.3914772 L42.4023059,17.900593 L41.1798763,22.0019705 L41.1794154,21.9997816 L40.0024914,16.8760838 L38.6950412,16.3184965 Z M38.958052,29.2357447 L38.958052,29.2348231 L38.6938892,16.3166532 L38.6946956,16.317114 L40.0031826,16.8755078 L41.1801067,21.9974775 L42.4016147,17.8989801 L42.4021907,17.8992105 L43.5540002,18.390786 L43.5540002,18.3911316 L43.7128666,26.760702 L43.7125209,26.7608172 L42.3129076,27.4894825 L42.3129076,27.4885609 L42.2428636,24.3499432 L41.6194947,26.8941082 L41.0109872,27.0802779 L41.010872,27.0797019 L40.3199936,24.4850775 L40.3856599,28.4927941 L40.3853143,28.4930245 L38.958052,29.2357447 Z M33.3940445,14.0562356 L33.6737598,30.0827245 C33.6769855,30.4381288 33.7148876,30.7287885 33.7863141,30.9466393 C33.8567038,31.1617251 33.961885,31.3125272 34.099093,31.394898 C34.2091128,31.4610251 34.342519,31.4848723 34.4960859,31.4660941 C34.647464,31.4476614 34.8229197,31.3869489 35.0174992,31.2855694 L36.6552393,30.433175 C36.9982016,30.2546088 37.2193932,30.0216664 37.3513018,29.7002472 C37.4698467,29.41097 37.5182324,29.0488838 37.5082097,28.5259729 L37.2622491,15.7069937 L35.8747322,15.1148451 L36.1326739,27.7412032 C36.1391254,28.0620464 36.0947718,28.2993666 35.996618,28.466758 C35.8969666,28.6366839 35.7505423,28.7211284 35.6205922,28.7813801 C35.4102297,28.8787275 35.2981362,28.9016531 35.2336219,28.8593732 C35.1423804,28.799928 35.1459517,28.6130671 35.1524031,28.2740217 C35.155168,28.1286343 35.1587393,27.947764 35.1544768,27.7412032 L34.8877795,14.6937745 L33.3940445,14.0562356 Z M34.3975865,31.4735823 C34.2848018,31.4735823 34.1844591,31.4475462 34.0986322,31.3959349 C33.9610786,31.3133336 33.8556669,31.1623011 33.7851621,30.9469849 C33.7138508,30.7290189 33.6759487,30.438244 33.6726078,30.0827245 L33.3930077,14.0543923 L33.3936989,14.0548531 L34.8889316,14.6929681 L34.8889316,14.6933137 L35.1555136,27.7412032 C35.1597762,27.947764 35.1563201,28.1286343 35.1535552,28.2740217 C35.1471037,28.6128367 35.1435324,28.799352 35.234198,28.8584516 C35.2983666,28.9000402 35.4097688,28.8775755 35.6201313,28.7803433 C35.7499663,28.7200916 35.8961601,28.6357623 35.9955812,28.4660668 C36.0936198,28.299021 36.1380885,28.061816 36.1315219,27.7412032 L35.8735801,15.1130018 L35.8743866,15.1134627 L37.2634012,15.7061872 L37.2634012,15.706648 L37.5093617,28.5259729 C37.5194997,29.048999 37.4709988,29.4113156 37.3523387,29.700708 C37.2203149,30.0224728 36.999008,30.2554153 36.6557001,30.4342119 L35.0179601,31.2867215 C34.8233805,31.3878706 34.6476944,31.4488135 34.4962011,31.4672461 C34.4623312,31.4713935 34.429498,31.4735823 34.3975865,31.4735823 L34.3975865,31.4735823 Z M8.32646108,27.6604452 L8.3271523,27.6606756 L9.43967731,28.1108929 L9.43967731,28.1113537 L9.6901308,30.8108137 L11.286743,31.560907 L9.48944544,15.6393689 L8.0158711,16.3183813 L6.55842533,29.338161 L8.03395813,30.0318043 L8.32646108,27.6604452 Z M11.2881254,31.5627502 L11.2872038,31.5624046 L9.68943958,30.8113898 L9.43852527,28.1118145 L8.32738271,27.6620581 L8.03487976,30.0336476 L8.03418854,30.033302 L6.55715809,29.3388523 L6.55727329,29.3383915 L8.01506468,16.3178053 L9.49048227,15.6377561 L9.49059748,15.6384473 L11.2881254,31.5627502 Z M26.9071378,14.3366421 L27.217267,32.1858887 C27.7020454,31.9944196 27.9142512,31.5695473 27.9053805,30.8081641 L27.7331505,16.1278339 C27.7270447,15.6089551 27.6491668,15.191571 27.5017056,14.8873172 C27.3626544,14.6003441 27.1626603,14.415096 26.9071378,14.3366421 L26.9071378,14.3366421 Z M27.2161149,32.1875015 L27.2161149,32.1866951 L26.9059858,14.3350293 L26.906677,14.3352597 C27.1627755,14.4137136 27.3633456,14.599192 27.5027425,14.8868564 C27.6502036,15.1912254 27.7281967,15.6087246 27.7341873,16.1278339 L27.9065325,30.8081641 C27.9155184,31.5703537 27.7027366,31.9958021 27.2169214,32.1872711 L27.2161149,32.1875015 Z M30.4614115,12.8046594 L30.803337,33.4791687 L32.3396975,32.6794226 L32.0220801,13.4707689 L30.4614115,12.8046594 Z M30.802185,33.4808968 L30.802185,33.4800904 L30.4603747,12.8030465 L30.4610659,12.8033921 L32.0232321,13.4699624 L32.0232321,13.470308 L32.3408496,32.6801138 L32.3405039,32.680229 L30.802185,33.4808968 Z M12.29593,32.0354322 L15.6108098,33.5935663 L15.6276296,31.1321177 L13.6773412,30.3012665 L13.6773412,30.3009209 L13.4313806,13.8230627 L12.0337257,14.467053 L12.29593,32.0354322 Z M15.6118467,33.5954096 L15.6110402,33.595064 L12.294778,32.0360083 L12.294778,32.0356626 L12.0325737,14.4663618 L12.0329193,14.4662466 L13.4325327,13.8213346 L13.4325327,13.8221411 L13.6784932,30.3005752 L15.6287817,31.1314265 L15.6287817,31.1317721 L15.6118467,33.5954096 Z M37.1021156,32.8870202 L37.1025764,32.8875962 L39.2942172,35.3510033 L39.5740477,34.9748622 L37.0819549,32.1593917 L36.2398137,33.3303252 L36.7162974,33.8517385 L37.0312651,33.5542817 L36.8032764,33.3176527 L36.803622,33.3171919 L37.1021156,32.8870202 Z M39.2942172,35.3527313 L39.2937564,35.3522705 L37.1022308,32.8888635 L36.8048893,33.3174223 L37.0327628,33.5542817 L37.0324172,33.5547426 L36.7162974,33.8533513 L36.7158366,33.8528905 L36.238316,33.3303252 L36.2386616,33.3299796 L37.0819549,32.1575485 L37.0824157,32.1581245 L39.5756606,34.9748622 L39.575315,34.9752078 L39.2942172,35.3527313 Z M16.4379745,33.982495 L19.6999757,35.5158602 L19.6999757,32.6115674 L17.8120126,31.7553713 L17.8120126,31.7550257 L17.5175512,11.9382101 L16.1185139,12.5848501 L16.4379745,33.982495 Z M19.7011278,35.5177035 L19.7003213,35.5173579 L16.4368225,33.9831862 L16.4368225,33.9828406 L16.117477,12.5841589 L16.1177074,12.5839285 L17.5187032,11.936482 L17.5187032,11.9372885 L17.8131647,31.7546801 L19.7011278,32.6108762 L19.7011278,35.5177035 Z M25.2567253,10.5835263 L25.7213431,36.1244829 L27.9368311,34.9712909 C28.5106623,34.6724517 28.9358802,34.1430894 29.2008494,33.3979499 C29.4327551,32.7458953 29.5418532,31.9325551 29.5250335,30.9805092 L29.2493503,15.3007844 C29.2317241,14.3011593 29.0311539,13.4533731 28.6534,12.7809273 C28.2865905,12.1281815 27.7596474,11.6515825 27.0870865,11.3646094 L25.2567253,10.5835263 Z M25.720191,36.126211 L25.720191,36.1252894 L25.2555733,10.581683 L25.2563797,10.5821438 L27.0875473,11.3635725 C27.7603386,11.6506609 28.2873969,12.127375 28.6544368,12.7803513 C29.032306,13.4529122 29.2328761,14.3009289 29.2505023,15.3007844 L29.5261855,30.9805092 C29.5430053,31.9326703 29.4337919,32.7460105 29.2020014,33.3982955 C28.936917,34.1437806 28.5114687,34.6733734 27.937292,34.9723277 L25.720191,36.126211 Z M8.03775986,36.033011 L8.43982181,36.4698645 L8.74154108,36.1919925 L10.4905682,34.5838599 L10.0844741,34.1491952 L8.03775986,36.033011 Z M8.43970661,36.4713622 L8.439361,36.4709013 L8.03626221,36.033011 L8.03660782,36.0325501 L10.0845893,34.1475823 L10.0849349,34.1480431 L10.492181,34.5838599 L10.4917202,34.5843207 L8.74234751,36.1927989 L8.43970661,36.4713622 Z M7.40010574,36.0566278 L8.06633045,36.7264238 C8.15158141,36.8121356 8.26920469,36.8589084 8.3990396,36.8589084 C8.40422378,36.8589084 8.40940796,36.8587932 8.41470734,36.858678 C8.5576755,36.8545307 8.70121968,36.7925509 8.81895817,36.6841439 L10.7360679,34.9197947 C10.8093376,34.8141527 10.8564561,34.7170357 10.8758103,34.6314391 C10.8996576,34.5256819 10.8813401,34.4369748 10.8212036,34.3678524 L10.1159248,33.5568162 L7.40010574,36.0566278 Z M8.3990396,36.8599452 C8.26885908,36.8599452 8.15089019,36.8131724 8.06552403,36.7273454 L7.39837768,36.0566278 L7.39883849,36.056167 L10.11604,33.5552034 L10.1165008,33.5556642 L10.8221253,34.3671612 C10.8824922,34.436514 10.9009248,34.5255666 10.8769624,34.6316695 C10.8574929,34.7173813 10.8103745,34.8146135 10.7368743,34.920486 L8.8197646,36.6850656 C8.7017957,36.7935877 8.55802112,36.8555675 8.41470734,36.8597148 C8.40952316,36.85983 8.40422378,36.8599452 8.3990396,36.8599452 L8.3990396,36.8599452 Z M21.9896552,31.5597549 L21.9903464,31.5598701 L23.1683073,31.8175815 L23.1683073,31.8180423 L23.4787821,37.2917298 L24.8191806,36.5939392 L22.7668213,9.52134542 L21.4040733,10.1493224 L20.2658578,35.7819814 L21.7110919,36.4612242 L21.9896552,31.5597549 Z M23.47763,37.2934579 L23.47763,37.2925363 L23.1671552,31.8185031 L21.990692,31.5610222 L21.7121288,36.4630675 L21.7114375,36.4627219 L20.2647057,35.7826727 L20.2647057,35.7823271 L21.4029212,10.1486312 L21.4032668,10.148516 L22.7678582,9.51973257 L22.7678582,9.52042379 L24.8202174,36.5946304 L24.819987,36.5948608 L23.47763,37.2934579 Z M34.6050689,35.1253187 L35.8397102,37.8148712 L36.6198716,37.0697317 L36.6203325,37.0701925 L37.1460083,37.6571569 L37.4872425,37.3510599 L36.076224,35.7735716 L35.7351049,36.0884241 L36.3312856,36.7284975 L36.33094,36.7289583 L35.9531861,37.0978415 L35.9528405,37.0970351 L34.9193454,34.818876 L34.6050689,35.1253187 Z M35.8392494,37.8168297 L35.8389037,37.8160232 L34.6036865,35.1250883 L34.6039169,35.1247426 L34.919691,34.8168024 L34.9200367,34.8176088 L35.9536469,37.0957678 L36.329788,36.7284975 L35.7334921,36.0884241 L35.7339529,36.0879633 L36.076224,35.7719587 L36.0765696,35.7724195 L37.4887402,37.3510599 L37.4882794,37.3515207 L37.1460083,37.6587698 L37.1455475,37.658309 L36.6198716,37.0712294 L35.8392494,37.8168297 Z M31.9590635,37.6904509 L32.6459097,38.6784403 L33.2899001,38.2335225 L32.6029387,37.2454178 L31.9590635,37.6904509 Z M32.6456793,38.679938 L32.6453337,38.6794772 L31.9575659,37.6902205 L31.9580267,37.68999 L32.6031691,37.243805 L32.6035147,37.2442658 L33.2915129,38.2337529 L33.2910521,38.2340985 L32.6456793,38.679938 Z M10.2085488,38.9188711 L11.0582935,39.630371 L11.3707267,39.210222 L10.8554192,38.778783 L10.8557648,38.7783222 L11.6053973,37.7925216 L11.6059733,37.7928672 L12.1248521,38.2281079 L12.3982312,37.8652153 L11.8810804,37.430205 L11.881426,37.4297442 L12.5657378,36.5281577 L12.5661986,36.5285033 L13.0863446,36.9639745 L13.3309227,36.6424401 L12.481178,35.9309402 L10.2085488,38.9188711 Z M11.0585239,39.6319838 L11.0580631,39.6316382 L10.2070511,38.9189863 L10.2073967,38.9186407 L12.4809476,35.9293274 L12.4814085,35.929673 L13.3325356,36.6422097 L13.33219,36.6426705 L13.0865751,36.9654721 L13.0861142,36.9652417 L12.5659682,36.5296554 L11.8826933,37.4299746 L12.3997288,37.8649849 L12.3994984,37.8654457 L12.1250825,38.2297208 L12.1246217,38.2293752 L11.6056277,37.7941345 L10.8570321,38.7785526 L11.3723396,39.2099916 L11.371994,39.2104524 L11.0585239,39.6319838 Z M14.6543863,39.4422429 L15.1173911,39.6935028 L15.7399535,38.5587434 L15.2854738,38.2793737 L14.6543863,39.4422429 Z M15.1178519,39.6951156 L15.1172759,39.69477 L14.6527734,39.4427037 L14.653119,39.4422429 L15.2850129,38.2777608 L15.285589,38.2781065 L15.7414512,38.5582826 L15.7412208,38.5587434 L15.1178519,39.6951156 Z M32.8866861,39.809974 L33.271237,40.3630684 C33.3183555,40.4309236 33.3964638,40.4827654 33.4854013,40.5052301 C33.5772189,40.5286165 33.6668476,40.5160593 33.7313618,40.4710145 L34.5761527,39.8837046 L34.5764983,39.8840502 L34.5761527,39.8837046 C34.7164712,39.7861268 34.7153192,39.560903 34.6207367,39.4247318 L32.8714792,36.9091374 C32.8248216,36.8419734 32.7545471,36.7970439 32.6734435,36.7825282 C32.5924551,36.7677821 32.5106603,36.7856387 32.4437267,36.8322963 L31.5989358,37.4197215 C31.5317719,37.4663791 31.4868423,37.5366535 31.4723266,37.6177571 C31.4576957,37.6987456 31.4753219,37.78031 31.5219795,37.8474739 L32.2763353,38.9322348 C32.4460308,39.1761216 32.66584,39.2227792 32.8955568,39.0636825 L33.5521044,38.6086267 L33.55245,38.6090875 L34.222246,39.5723082 L34.2217852,39.5726538 L33.5856288,40.0244839 L33.5852831,40.024023 L33.2492331,39.5405119 L32.8866861,39.809974 Z M33.5746844,40.5177874 C33.545653,40.5177874 33.5154695,40.5139856 33.4851709,40.5063822 C33.3958878,40.4838022 33.317549,40.43173 33.2703154,40.3637596 L32.8850732,39.8097436 L32.8855341,39.809398 L33.2494635,39.538899 L33.2498091,39.5393598 L33.5858592,40.0229862 L34.2206332,39.5720778 L33.551874,38.6102396 L32.896248,39.0646041 C32.6657248,39.2243921 32.4452244,39.1771585 32.2754137,38.932926 L31.5211731,37.8481651 C31.4742851,37.7807708 31.4565437,37.6988608 31.4711746,37.6175267 C31.4858055,37.5361927 31.5308503,37.4655727 31.5982446,37.4187998 L32.4430355,36.8313747 C32.5104298,36.7844866 32.5923399,36.7665148 32.6736739,36.7813761 C32.7550079,36.796007 32.825628,36.8410518 32.8724008,36.9084461 L34.6216583,39.4240406 C34.7165864,39.5606726 34.7176232,39.7867028 34.5768439,39.884511 L33.732053,40.4719362 C33.6885059,40.5022348 33.6336688,40.5177874 33.5746844,40.5177874 L33.5746844,40.5177874 Z M13.3356461,40.9009559 L13.7290677,41.1449579 L14.4311209,39.8513322 L14.4315817,39.8516779 L14.9364056,40.1592725 C15.0332922,40.2181418 15.1388191,40.2341551 15.241581,40.2046629 C15.3595499,40.1711385 15.4636943,40.079897 15.5271717,39.9544398 L16.1188595,38.7870777 C16.1829129,38.6604685 16.2006543,38.524643 16.1686276,38.4044852 C16.1361401,38.2824842 16.0531932,38.1820263 15.9351091,38.1215442 L15.0073713,37.6458669 L13.3356461,40.9009559 Z M13.7295286,41.1464556 L13.7290677,41.1462252 L13.3341484,40.9014167 L13.3343789,40.9009559 L15.0069105,37.6442541 L15.0074865,37.6444845 L15.9356851,38.1205074 C16.0539996,38.1811047 16.1370617,38.2819082 16.1697796,38.4042548 C16.2018063,38.524643 16.1841801,38.6606989 16.1198963,38.7875385 L15.5282086,39.9549006 C15.464616,40.0805882 15.3602411,40.1720602 15.2419266,40.2056997 C15.1388191,40.2354224 15.0329466,40.2195242 14.9358296,40.1601942 L14.4315817,39.8529451 L13.7295286,41.1464556 Z M29.4431234,38.4736076 L30.8158942,41.9001201 L31.1994084,41.7459772 L29.8318217,38.3323675 L29.4431234,38.4736076 Z M30.8153182,41.901733 L30.8150878,41.901157 L29.4416258,38.4729164 L29.4422018,38.472686 L29.8325129,38.3309851 L29.8327433,38.3314459 L31.200906,41.7465532 L31.20033,41.7467836 L30.8153182,41.901733 Z M17.8526796,38.8870748 L17.1059273,42.0597929 C17.0870339,42.1402053 17.1006279,42.2330597 17.1433686,42.3143937 C17.1872613,42.3980318 17.2564989,42.4564402 17.3331096,42.4744121 L18.334578,42.7103499 C18.411419,42.7284369 18.4941355,42.7070089 18.56729,42.6498678 C18.6359516,42.5961827 18.6865262,42.5186504 18.7057652,42.4369708 L19.4396147,39.3235827 C19.2930752,39.2908648 19.1595538,39.2594141 19.0313317,39.2272722 L18.3297394,42.2390503 L18.3290482,42.2389351 L17.5670889,42.045738 L17.5670889,42.045162 L18.2948326,39.0223243 L18.2295119,39.0030852 C18.099677,38.9646071 17.9873531,38.9314283 17.8526796,38.8870748 L17.8526796,38.8870748 Z M18.388839,42.7177229 C18.3704064,42.7177229 18.3522042,42.7157644 18.3343475,42.7113867 L17.3328792,42.4755641 C17.2558077,42.4573619 17.1864549,42.3988382 17.1423318,42.3148545 C17.0994759,42.2332901 17.0857666,42.1402053 17.1047753,42.0595625 L17.8518732,38.8854619 L17.8524492,38.8856923 C17.9873531,38.9301611 18.0997922,38.963455 18.2298575,39.0019332 L18.296215,39.0215179 L18.2960998,39.0220939 L17.5683562,42.0448164 L18.3288178,42.2376679 L19.0305253,39.2260049 L19.0311013,39.2261202 C19.1595538,39.2582621 19.2934208,39.2897128 19.4404211,39.3225459 L19.4409971,39.3226611 L19.4408819,39.3232371 L18.7069173,42.4372012 C18.687563,42.5191112 18.6368732,42.5968739 18.5679813,42.6507894 C18.5115313,42.6947973 18.4495515,42.7177229 18.388839,42.7177229 L18.388839,42.7177229 Z M21.120441,43.3224287 L21.5334474,43.3405157 L21.6998019,39.6671211 L21.2873716,39.6347487 L21.120441,43.3224287 Z M21.5344842,43.3416678 L21.5340234,43.3416678 L21.1191738,43.3235807 L21.1191738,43.3230047 L21.2863348,39.6337119 L21.2869108,39.6337119 L21.7010692,39.665969 L21.700954,39.666545 L21.5344842,43.3416678 Z M23.8337256,42.3169282 L23.8337256,42.9646051 C23.8337256,43.0914447 23.8734709,43.1939762 23.9515793,43.2692044 C24.0696634,43.3827956 24.2712704,43.4347526 24.5512161,43.4241538 C24.7548967,43.4163199 24.9153759,43.4007674 25.0355337,43.3500776 C25.1735481,43.2918996 25.240712,43.1909809 25.240712,43.0413309 L25.240712,42.1141692 C25.240712,41.9271931 25.1544242,41.7342264 25.0038526,41.5848068 L24.1325647,40.7205464 L24.1324495,40.161807 L24.6633096,40.161807 L24.6633096,40.1622678 L24.670337,40.6775753 L25.0734358,40.6775753 L25.0734358,40.1902624 C25.0583441,39.8341669 24.8500552,39.6747245 24.3982252,39.6729965 L24.3929258,39.6729965 C23.9234695,39.6729965 23.7165631,39.8842806 23.7013562,40.3783905 C23.690527,40.7289563 23.7550412,40.9478439 23.9173637,41.1099359 L24.7676844,41.9603718 L24.7677996,42.9999727 L24.3205777,42.9999727 L24.3205777,42.3169282 L23.8337256,42.3169282 Z M24.4809416,43.4265731 C24.2370548,43.4265731 24.0589494,43.3740401 23.950888,43.2700109 C23.8723189,43.1945523 23.8325735,43.0917903 23.8325735,42.9646051 L23.8325735,42.3157762 L24.3216145,42.3157762 L24.3216145,42.9989359 L24.7667627,42.9989359 L24.7667627,41.9608326 L23.916442,41.1108576 C23.7541196,40.9484199 23.689375,40.7293019 23.7002041,40.3783905 C23.7155263,39.8834742 23.9226631,39.6719596 24.3929258,39.6719596 L24.3982252,39.6719596 C24.8508617,39.6734573 25.0594961,39.8333604 25.0745878,40.1902624 L25.0745878,40.6787274 L24.669185,40.6787274 L24.669185,40.6781513 L24.6621575,40.1628439 L24.1336016,40.1628439 L24.1336016,40.7200856 L25.0047742,41.5838852 C25.155461,41.7335352 25.241864,41.9268475 25.241864,42.1141692 L25.241864,43.0413309 C25.241864,43.1914417 25.1744697,43.2928213 25.0359945,43.3512297 C24.9156063,43.4019194 24.7551271,43.4173568 24.5512161,43.4253059 C24.5272536,43.4262275 24.503752,43.4265731 24.4809416,43.4265731 L24.4809416,43.4265731 Z M22.9999942,0.412741362 C21.4674355,0.412741362 19.9360287,0.567229922 18.4479387,0.871714088 C16.9977508,1.16847959 15.5711797,1.61120855 14.208086,2.18780455 C12.8696459,2.753917 11.5787851,3.45458771 10.371332,4.27034722 C9.17528413,5.07838806 8.05054751,6.00635626 7.02845764,7.02844612 C6.00636778,8.05053599 5.07839958,9.17527261 4.27035874,10.3713205 C3.45459923,11.5787736 2.75392852,12.8696344 2.18781608,14.2079592 C1.61133527,15.5711681 1.16849111,16.997624 0.871725608,18.4479272 C0.567241443,19.935902 0.412868086,21.4674239 0.412868086,22.9999827 C0.412868086,24.5325415 0.567241443,26.0640634 0.871725608,27.5521535 C1.16849111,29.0023414 1.61133527,30.4287973 2.18781608,31.7920062 C2.75392852,33.130331 3.45459923,34.4211918 4.27035874,35.6287601 C5.07839958,36.824808 6.00636778,37.9494295 7.02845764,38.9716345 C8.05054751,39.9937244 9.17528413,40.9216926 10.371332,41.7297334 C11.5787851,42.5454929 12.8696459,43.2461636 14.208086,43.8122761 C15.5711797,44.3887569 16.9977508,44.8316011 18.4479387,45.1283666 C19.9360287,45.4328507 21.4674355,45.5872241 22.9999942,45.5872241 C24.5324378,45.5872241 26.064075,45.4328507 27.5520498,45.1283666 C29.0023529,44.8316011 30.4288088,44.3887569 31.7920177,43.8122761 C33.1303426,43.2461636 34.4212033,42.5454929 35.6287716,41.7297334 C36.8248195,40.9216926 37.949441,39.9937244 38.9715308,38.9716345 C39.9937359,37.9494295 40.9217041,36.824808 41.7297449,35.6287601 C42.5455045,34.4211918 43.2461752,33.130331 43.8122876,31.7920062 C44.3887684,30.4287973 44.8316126,29.0023414 45.1283781,27.5521535 C45.4328622,26.0640634 45.5872356,24.5325415 45.5872356,22.9999827 C45.5872356,21.4674239 45.4328622,19.935902 45.1283781,18.4479272 C44.8316126,16.997624 44.3887684,15.5711681 43.8122876,14.2079592 C43.2461752,12.8696344 42.5455045,11.5787736 41.7297449,10.3713205 C40.9217041,9.17527261 39.9937359,8.05053599 38.9715308,7.02844612 C37.949441,6.00635626 36.8248195,5.07838806 35.6287716,4.27034722 C34.4212033,3.45458771 33.1303426,2.753917 31.7920177,2.18780455 C30.4288088,1.61120855 29.0023529,1.16847959 27.5520498,0.871714088 C26.064075,0.567229922 24.5324378,0.412741362 22.9999942,0.412741362 L22.9999942,0.412741362 Z M22.9999942,45.5883761 C21.4674355,45.5883761 19.9357983,45.4340028 18.4477083,45.1295186 C16.9974052,44.8327531 15.5708341,44.3899089 14.2076252,43.8133129 C12.8691851,43.2472005 11.5782091,42.5465298 10.3706408,41.7306551 C9.17459291,40.9226142 8.04985628,39.9945308 7.02765121,38.9723257 C6.00556135,37.9502359 5.07747794,36.8254993 4.26943711,35.6294514 C3.4535624,34.4217678 2.75289168,33.1309071 2.18677924,31.792467 C1.61018323,30.4292581 1.16733907,29.0025718 0.870573568,27.5522687 C0.566089403,26.0641786 0.411716046,24.5326567 0.411716046,22.9999827 C0.411716046,21.4674239 0.566089403,19.9357868 0.870573568,18.4476968 C1.16733907,16.9972784 1.61018323,15.5708225 2.18677924,14.2076136 C2.75289168,12.8691736 3.4535624,11.5781976 4.26943711,10.3706293 C5.07747794,9.17458139 6.00556135,8.04972956 7.02765121,7.02763969 C8.04985628,6.00543462 9.17459291,5.07746642 10.3706408,4.26942559 C11.5782091,3.45355088 12.8691851,2.75288016 14.2076252,2.18676772 C15.5708341,1.61017171 16.9974052,1.16732755 18.4477083,0.870562048 C19.9357983,0.566077882 21.4674355,0.411704526 22.9999942,0.411704526 C24.532553,0.411704526 26.0641902,0.566077882 27.5522802,0.870562048 C29.0026985,1.16732755 30.4292696,1.61017171 31.7924785,2.18676772 C33.1309186,2.75288016 34.4217794,3.45355088 35.6294629,4.26942559 C36.8253956,5.07746642 37.9502474,6.00543462 38.9724525,7.02763969 C39.9945423,8.04972956 40.9226257,9.17458139 41.7306666,10.3706293 C42.5465413,11.5781976 43.247212,12.8691736 43.8133244,14.2076136 C44.3899205,15.5708225 44.8326494,16.9972784 45.1295301,18.4476968 C45.4340143,19.9357868 45.5883876,21.4674239 45.5883876,22.9999827 C45.5883876,24.5326567 45.4340143,26.0641786 45.1295301,27.5522687 C44.8326494,29.0025718 44.3899205,30.4292581 43.8133244,31.792467 C43.247212,33.1309071 42.5465413,34.4217678 41.7306666,35.6294514 C40.9226257,36.8254993 39.9945423,37.9502359 38.9724525,38.9723257 C37.9502474,39.9945308 36.8253956,40.9226142 35.6294629,41.7306551 C34.4217794,42.5465298 33.1309186,43.2472005 31.7924785,43.8133129 C30.4292696,44.3899089 29.0026985,44.8327531 27.5522802,45.1295186 C26.0641902,45.4340028 24.532553,45.5883761 22.9999942,45.5883761 L22.9999942,45.5883761 Z M22.9999942,0.00111747878 C21.4395561,0.00111747878 19.8801548,0.158370935 18.3648766,0.468384893 C16.888307,0.770564978 15.435815,1.22147342 14.0478372,1.808553 C12.6850891,2.38491859 11.3706115,3.09837695 10.1411544,3.92899777 C8.92333299,4.75166952 7.77809005,5.69657271 6.73733714,6.73732562 C5.69658423,7.77807853 4.75168104,8.92332147 3.92900929,10.1411429 C3.09838847,11.3706 2.38493012,12.6850776 1.80844931,14.0478257 C1.22148494,15.4358034 0.770576498,16.8882954 0.468396413,18.3648651 C0.158382456,19.8800281 0.00112899918,21.4395446 0.00112899918,22.9999827 C0.00112899918,24.5604209 0.158382456,26.1199374 0.468396413,27.6349851 C0.770576498,29.1117852 1.22148494,30.564162 1.80844931,31.9521398 C2.38493012,33.315003 3.09838847,34.6293654 3.92900929,35.8588225 C4.75168104,37.076644 5.69658423,38.2220021 6.73733714,39.2626398 C7.77809005,40.3033927 8.92333299,41.2482959 10.1411544,42.0710829 C11.3706115,42.9017037 12.6850891,43.6150468 14.0478372,44.1915276 C15.435815,44.7786072 16.888307,45.2295157 18.3648766,45.5316958 C19.8801548,45.8417097 21.4395561,45.9989632 22.9999942,45.9989632 C24.5605476,45.9989632 26.1199489,45.8417097 27.6351119,45.5316958 C29.1116815,45.2295157 30.5642887,44.7786072 31.9522665,44.1915276 C33.3150146,43.615162 34.629377,42.9017037 35.8589492,42.0710829 C37.0767707,41.2482959 38.2220136,40.3033927 39.2627665,39.2626398 C40.3034043,38.2220021 41.2483074,37.076644 42.0710944,35.8588225 C42.9017152,34.6293654 43.6151736,33.315003 44.1915392,31.9521398 C44.7786187,30.564162 45.2295272,29.1117852 45.5317073,27.6349851 C45.8417212,26.1199374 45.9988595,24.5604209 45.9988595,22.9999827 C45.9988595,21.4395446 45.8417212,19.8800281 45.5317073,18.3648651 C45.2295272,16.8882954 44.7786187,15.4358034 44.1915392,14.0478257 C43.6151736,12.6850776 42.9017152,11.3706 42.0710944,10.1411429 C41.2483074,8.92332147 40.3034043,7.77807853 39.2627665,6.73732562 C38.2220136,5.69657271 37.0767707,4.75166952 35.8589492,3.92899777 C34.629377,3.09837695 33.3150146,2.38491859 31.9522665,1.808553 C30.5642887,1.22147342 29.1116815,0.770564978 27.6351119,0.468384893 C26.1199489,0.158370935 24.5605476,0.00111747878 22.9999942,0.00111747878 L22.9999942,0.00111747878 Z M22.9999942,46 C21.4394409,46 19.8799244,45.8428617 18.3646462,45.5328478 C16.8879614,45.2306677 15.4354694,44.7797593 14.0473764,44.1925645 C12.6845131,43.6161989 11.3700355,42.9027405 10.1404632,42.0720045 C8.92252656,41.2492176 7.77728362,40.3043144 6.73653071,39.2634462 C5.6957778,38.2226933 4.75075941,37.0774504 3.92797246,35.8595137 C3.09735164,34.6299415 2.38389328,33.3154639 1.80741248,31.9526006 C1.2203329,30.5646228 0.769424458,29.1120156 0.467244373,27.6352156 C0.157230416,26.1200526 -2.30407995e-05,24.5605361 -2.30407995e-05,22.9999827 C-2.30407995e-05,21.4394294 0.157230416,19.8799129 0.467244373,18.3646347 C0.769424458,16.8879498 1.2203329,15.4353426 1.80741248,14.0473649 C2.38389328,12.6845016 3.09735164,11.370024 3.92797246,10.1404517 C4.75075941,8.92263025 5.6957778,7.77738731 6.73653071,6.73651919 C7.77728362,5.69576628 8.92252656,4.75086309 10.1404632,3.92807614 C11.3700355,3.09734012 12.6845131,2.38388176 14.0473764,1.80740096 C15.4354694,1.22032138 16.8879614,0.769528142 18.3646462,0.467232853 C19.8799244,0.157218895 21.4394409,-3.45611992e-05 22.9999942,-3.45611992e-05 C24.5605476,-3.45611992e-05 26.1201793,0.157218895 27.6353423,0.467232853 C29.1120271,0.769528142 30.5646343,1.22032138 31.9527273,1.80740096 C33.3155906,2.38388176 34.6300682,3.09734012 35.8596405,3.92807614 C37.0774619,4.75086309 38.2227049,5.69576628 39.263573,6.73651919 C40.3043259,7.77738731 41.2492291,8.92263025 42.0719008,10.1404517 C42.9026368,11.370024 43.6162104,12.6845016 44.192576,14.0473649 C44.7796556,15.4353426 45.230564,16.8879498 45.5328593,18.3646347 C45.8428733,19.8799129 46.0000115,21.4394294 46.0000115,22.9999827 C46.0000115,24.5605361 45.8428733,26.1200526 45.5328593,27.6352156 C45.230564,29.1120156 44.7796556,30.5646228 44.192576,31.9526006 C43.6162104,33.3154639 42.9026368,34.6299415 42.0719008,35.8595137 C41.2492291,37.0774504 40.3043259,38.2226933 39.263573,39.2634462 C38.2227049,40.3043144 37.0774619,41.2492176 35.8596405,42.0720045 C34.6300682,42.9027405 33.3155906,43.6161989 31.9527273,44.1925645 C30.5646343,44.7797593 29.1120271,45.2306677 27.6353423,45.5328478 C26.1201793,45.8428617 24.5605476,46 22.9999942,46 L22.9999942,46 Z" id="Fill-3" fill="#252324" mask="url(#mask-2)"></path>
            </g>
        </g>
    </g>
</svg>