<?xml version="1.0" encoding="UTF-8"?>
<svg width="110px" height="60px" viewBox="0 0 110 60" version="1.1" xmlns="http://www.w3.org/2000/svg" xmlns:xlink="http://www.w3.org/1999/xlink">
    <title>Media/Brand Logos/Dark/brand-new-balance-dark</title>
    <g id="Symbols" stroke="none" stroke-width="1" fill="none" fill-rule="evenodd">
        <g id="Image" fill="#252324" transform="translate(28.000000, 17.000000)">
            <path d="M27.4127741,9.18303146 L29.9161106,4.8207817 L38.4175405,4.27550048 L38.7149666,3.74261201 L30.85796,3.19733079 L32.7044805,0.012392755 L47.2783603,0.012392755 C51.7645377,0.012392755 55.0734032,1.62345091 53.7845567,6.32030505 C53.4003813,7.75786463 51.5786463,11.3517636 46.2249762,12.8512869 C47.3651096,12.9876072 50.1906578,14.2392755 49.6949476,17.4861773 C48.8274547,23.2488084 41.379409,25.9876072 37.227836,25.9876072 L20.0142993,26 L19.1591992,22.6663489 L28.1811249,22.0343184 L28.4909438,21.5014299 L18.7006673,20.9065777 L17.6472831,16.9532888 L31.564347,16.135367 L31.8741659,15.6148713 L6.87797903,14.0533842 L8.08007626,11.9714013 L34.9971401,10.2240229 L35.306959,9.70352717 L27.4127741,9.18303146 M38.6777884,10.0505243 L41.1563394,10.0381316 C42.8169685,10.0257388 44.5395615,9.26978074 45.171592,7.74547188 C45.7540515,6.32030505 44.9733079,5.10581506 43.9323165,5.11820782 L41.528122,5.11820782 L38.6777884,10.0505243 Z M35.815062,14.9952336 L32.828408,20.1877979 L35.6787417,20.1877979 C37.0047664,20.1877979 39.3717827,19.5309819 40.1029552,17.6472831 C40.7845567,15.8875119 39.5328885,14.9952336 38.6653956,14.9952336 L35.815062,14.9952336 L35.815062,14.9952336 Z M14.1029552,23.013346 L12.3679695,25.9752145 L0,26 L1.20209724,23.9180172 L14.1029552,23.013346 L14.1029552,23.013346 Z M14.970448,0 L24.9218303,0.012392755 L25.6777884,2.82554814 L13.7931363,2.08198284 L14.970448,0 L14.970448,0 Z M26.2354623,5.05624404 L27.3260248,9.18303146 L10.3355577,8.06768351 L11.5252622,5.99809342 L26.2354623,5.05624404 Z M17.5853194,16.9532888 L15.42898,20.6959009 L3.44518589,20.0142993 L4.64728313,17.9323165 L17.5853194,16.9532888 L17.5853194,16.9532888 Z" id="Shape"></path>
        </g>
    </g>
</svg>