<?xml version="1.0" encoding="UTF-8"?>
<svg width="110px" height="60px" viewBox="0 0 110 60" version="1.1" xmlns="http://www.w3.org/2000/svg" xmlns:xlink="http://www.w3.org/1999/xlink">
    <title>Media/Brand Logos/Dark/brand-columbia-dark</title>
    <g id="Symbols" stroke="none" stroke-width="1" fill="none" fill-rule="evenodd">
        <g id="Media/Brand-Logos/Dark/brand-columbia-dark" fill="#252324" fill-rule="nonzero">
            <g id="Image" transform="translate(11.000000, 21.000000)">
                <path d="M4.72852234,9.45704467 C5.16838488,9.89690722 5.16838488,10.556701 4.72852234,10.9965636 L4.34364261,11.3814433 C3.90378007,11.8213058 3.24398625,11.8213058 2.80412371,11.3814433 L0.329896907,8.90721649 C-0.109965636,8.46735395 -0.109965636,7.80756014 0.329896907,7.36769759 L0.714776632,6.98281787 C1.15463918,6.54295533 1.81443299,6.54295533 2.25429553,6.98281787 L4.72852234,9.45704467 L4.72852234,9.45704467 Z M4.45360825,4.72852234 C4.0137457,4.28865979 3.35395189,4.28865979 2.91408935,4.72852234 L2.52920962,5.11340206 C2.08934708,5.5532646 2.08934708,6.21305842 2.52920962,6.65292096 L5.00343643,9.12714777 C5.44329897,9.56701031 6.10309278,9.56701031 6.54295533,9.12714777 L6.92783505,8.74226804 C7.36769759,8.3024055 7.36769759,7.64261168 6.92783505,7.20274914 L4.45360825,4.72852234 L4.45360825,4.72852234 Z M11.0515464,6.92783505 C10.6116838,6.48797251 9.95189003,6.48797251 9.51202749,6.92783505 L9.12714777,7.31271478 C8.68728522,7.75257732 8.68728522,8.41237113 9.12714777,8.85223368 L11.6013746,11.3264605 C12.0412371,11.766323 12.7010309,11.766323 13.1408935,11.3264605 L13.5257732,10.9415808 C13.9656357,10.5017182 13.9656357,9.8419244 13.5257732,9.40206186 L11.0515464,6.92783505 L11.0515464,6.92783505 Z M13.3058419,4.67353952 C12.8659794,4.23367698 12.2061856,4.23367698 11.766323,4.67353952 L11.3814433,5.05841924 C10.9415808,5.49828179 10.9415808,6.1580756 11.3814433,6.59793814 L13.8556701,9.07216495 C14.2955326,9.51202749 14.9553265,9.51202749 15.395189,9.07216495 L15.7800687,8.68728522 C16.2199313,8.24742268 16.2199313,7.58762887 15.7800687,7.14776632 L13.3058419,4.67353952 L13.3058419,4.67353952 Z M9.18213058,2.25429553 C9.62199313,1.81443299 9.62199313,1.15463918 9.18213058,0.714776632 L8.79725086,0.329896907 C8.35738832,-0.109965636 7.6975945,-0.109965636 7.25773196,0.329896907 L4.78350515,2.80412371 C4.34364261,3.24398625 4.34364261,3.90378007 4.78350515,4.34364261 L5.16838488,4.72852234 C5.60824742,5.16838488 6.26804124,5.16838488 6.70790378,4.72852234 L9.18213058,2.25429553 L9.18213058,2.25429553 Z M11.3814433,4.45360825 C11.8213058,4.0137457 11.8213058,3.35395189 11.3814433,2.91408935 L10.9965636,2.52920962 C10.556701,2.08934708 9.89690722,2.08934708 9.45704467,2.52920962 L6.98281787,5.00343643 C6.54295533,5.44329897 6.54295533,6.10309278 6.98281787,6.54295533 L7.36769759,6.92783505 C7.80756014,7.36769759 8.46735395,7.36769759 8.90721649,6.92783505 L11.3814433,4.45360825 L11.3814433,4.45360825 Z M9.18213058,10.9415808 C9.62199313,10.5017182 9.62199313,9.8419244 9.18213058,9.40206186 L8.79725086,9.01718213 C8.35738832,8.57731959 7.6975945,8.57731959 7.25773196,9.01718213 L4.78350515,11.4914089 C4.34364261,11.9312715 4.34364261,12.5910653 4.78350515,13.0309278 L5.16838488,13.4158076 C5.60824742,13.8556701 6.26804124,13.8556701 6.70790378,13.4158076 L9.18213058,10.9415808 L9.18213058,10.9415808 Z M11.3814433,13.1408935 C11.8213058,12.7010309 11.8213058,12.0412371 11.3814433,11.6013746 L10.9965636,11.2164948 C10.556701,10.7766323 9.89690722,10.7766323 9.45704467,11.2164948 L7.03780069,13.7457045 C6.59793814,14.185567 6.59793814,14.8453608 7.03780069,15.2852234 L7.42268041,15.6701031 C7.86254296,16.1099656 8.52233677,16.1099656 8.96219931,15.6701031 L11.3814433,13.1408935 L11.3814433,13.1408935 Z M29.4158076,10.9965636 C29.4707904,11.1065292 29.8006873,11.6013746 29.8006873,11.6013746 C29.6357388,12.371134 29.1408935,13.4158076 29.1408935,13.4158076 L29.0859107,13.4707904 C27.2714777,14.185567 24.4123711,14.790378 21.3883162,13.580756 C19.5738832,12.8659794 18.2542955,11.4364261 17.7594502,9.56701031 C17.209622,7.64261168 17.5945017,5.5532646 18.8041237,3.90378007 C20.1237113,2.1443299 22.2130584,1.15463918 25.0721649,0.989690722 C26.1718213,0.934707904 28.371134,1.20962199 29.580756,1.92439863 L29.6907216,1.92439863 C29.6907216,1.92439863 29.7457045,4.94845361 29.6907216,5.05841924 L29.6357388,5.2233677 C29.6357388,5.2233677 28.7560137,5.27835052 28.7560137,5.27835052 L28.7010309,4.94845361 C28.5360825,4.06872852 28.1512027,1.75945017 24.9072165,1.92439863 C23.532646,1.97938144 22.3780069,2.69415808 21.5532646,3.79381443 C20.5085911,5.16838488 20.233677,6.98281787 20.6735395,9.07216495 C21.1134021,11.0515464 22.652921,12.3161512 23.8075601,12.8109966 C24.3024055,12.975945 25.8419244,13.3608247 26.9965636,12.8109966 C27.9862543,12.3161512 28.975945,11.5463918 29.4158076,10.9965636 M40.5223368,14.185567 L40.5223368,3.79381443 C40.5223368,3.46391753 40.5223368,2.91408935 40.1924399,2.52920962 C40.137457,2.4742268 39.6426117,2.08934708 39.6426117,2.08934708 L39.6426117,1.64948454 L42.4467354,1.09965636 L42.7216495,1.26460481 C42.7216495,1.26460481 42.7216495,12.2611684 42.7216495,12.4261168 C42.7766323,13.4707904 43.4914089,13.580756 43.4914089,13.580756 L43.4914089,14.2405498 L40.5223368,14.185567 L40.5223368,14.185567 Z M52.8934708,13.4707904 C52.3986254,13.3608247 52.1237113,12.9209622 52.1237113,12.2061856 L52.1237113,5.60824742 L51.9037801,5.49828179 L49.0996564,6.04810997 L49.0996564,6.48797251 C49.0996564,6.48797251 49.5945017,6.87285223 49.6494845,6.92783505 C49.9793814,7.31271478 49.9793814,7.86254296 49.9793814,8.19243986 L49.9793814,12.0962199 C49.0446735,12.8109966 48.2199313,13.0309278 47.6151203,12.7560137 C47.1752577,12.5360825 46.9003436,11.9862543 46.9003436,11.2164948 C46.9003436,11.2164948 46.9003436,5.60824742 46.9003436,5.60824742 L46.6804124,5.49828179 L43.8762887,6.04810997 L43.8762887,6.48797251 C43.8762887,6.48797251 44.371134,6.87285223 44.4261168,6.92783505 C44.8109966,7.31271478 44.8109966,7.86254296 44.7560137,8.19243986 L44.7560137,11.5463918 C44.7560137,12.2061856 44.8109966,12.4261168 44.8659794,12.7010309 C45.0309278,13.4158076 45.4707904,13.9106529 46.0756014,14.1305842 C47.0652921,14.5154639 48.4948454,14.1305842 49.9793814,13.1408935 L49.9793814,14.0756014 L53.0584192,14.0756014 L53.0584192,13.4707904 L52.8934708,13.4707904 L52.8934708,13.4707904 Z M66.8591065,13.4707904 C66.3642612,13.3608247 66.1443299,12.9209622 66.0893471,12.2061856 L66.0893471,8.19243986 C66.0893471,7.25773196 65.5945017,5.49828179 63.7800687,5.49828179 C62.4054983,5.49828179 61.5257732,6.32302405 61.0309278,6.7628866 C60.7560137,6.1580756 60.1512027,5.49828179 59.0515464,5.49828179 C58.1718213,5.49828179 57.4020619,5.82817869 56.6323024,6.48797251 L56.6323024,5.66323024 L56.3573883,5.49828179 L53.5532646,6.04810997 L53.5532646,6.48797251 C53.5532646,6.48797251 54.04811,6.87285223 54.1030928,6.92783505 C54.4329897,7.31271478 54.4329897,7.86254296 54.4329897,8.19243986 L54.4329897,14.0756014 L57.5120275,14.0756014 L57.5120275,13.4707904 L57.347079,13.4158076 C56.8522337,13.3058419 56.6323024,12.9209622 56.6323024,12.1512027 C56.6323024,12.1512027 56.6323024,8.08247423 56.6323024,7.42268041 C57.1821306,6.98281787 57.7319588,6.87285223 58.2817869,6.92783505 C58.7216495,6.98281787 59.2164948,7.31271478 59.2164948,8.96219931 C59.2164948,8.96219931 59.2164948,14.0206186 59.2164948,14.0206186 L62.2405498,14.0206186 L62.2405498,13.4158076 L62.0756014,13.3608247 C61.580756,13.2508591 61.3608247,12.8659794 61.3058419,12.0962199 C61.3058419,12.0962199 61.3058419,8.08247423 61.3058419,8.08247423 C61.3058419,7.97250859 61.3058419,7.64261168 61.2508591,7.42268041 C61.8006873,6.92783505 62.3505155,6.87285223 62.9003436,6.92783505 C63.3402062,6.98281787 63.8350515,7.31271478 63.8350515,8.96219931 C63.8350515,8.96219931 63.8350515,14.0206186 63.8350515,14.0206186 L66.8591065,14.0206186 L66.8591065,13.4158076 L66.8591065,13.4707904 L66.8591065,13.4707904 Z M39.532646,9.8419244 C39.532646,8.57731959 39.0927835,7.42268041 38.3230241,6.65292096 C37.4982818,5.82817869 36.3436426,5.38831615 34.9140893,5.38831615 C32.2749141,5.38831615 30.2955326,7.31271478 30.2955326,9.8419244 C30.2955326,12.5360825 32.1099656,14.2955326 34.9140893,14.2955326 C36.233677,14.2955326 37.443299,13.8556701 38.2680412,13.0309278 C39.0927835,12.1512027 39.532646,11.0515464 39.532646,9.8419244 M34.9140893,13.3058419 C33.209622,13.3058419 32.7147766,11.9862543 32.7147766,9.78694158 C32.7147766,8.19243986 33.209622,6.26804124 34.9140893,6.26804124 C36.6185567,6.26804124 37.1134021,8.19243986 37.1134021,9.78694158 C37.1134021,11.9862543 36.6185567,13.3058419 34.9140893,13.3058419 M77.1958763,2.80412371 C77.1958763,2.19931271 77.6907216,1.64948454 78.3505155,1.64948454 C78.9553265,1.64948454 79.5051546,2.1443299 79.5051546,2.80412371 C79.5051546,3.46391753 79.0103093,3.95876289 78.3505155,3.95876289 C77.6907216,3.95876289 77.1958763,3.40893471 77.1958763,2.80412371 M77.3058419,14.0756014 L77.3058419,8.13745704 C77.3058419,7.80756014 77.3058419,7.25773196 76.975945,6.87285223 C76.9209622,6.81786942 76.4261168,6.43298969 76.4261168,6.43298969 L76.4261168,5.99312715 L79.2302405,5.44329897 L79.5051546,5.60824742 C79.5051546,5.60824742 79.5051546,12.2061856 79.5051546,12.2061856 C79.5051546,12.9209622 79.7800687,13.3608247 80.2199313,13.4707904 L80.3848797,13.5257732 L80.3848797,14.1305842 L77.3058419,14.0756014 L77.3058419,14.0756014 Z M75.7113402,7.53264605 C75.1065292,6.48797251 74.3367698,5.82817869 73.4020619,5.60824742 C72.0824742,5.27835052 70.7628866,5.88316151 69.9381443,6.32302405 L69.9381443,1.20962199 L69.6632302,1.04467354 L66.8591065,1.59450172 L66.8591065,2.03436426 C66.8591065,2.03436426 67.3539519,2.41924399 67.4089347,2.4742268 C67.7388316,2.85910653 67.7388316,3.35395189 67.7388316,3.73883162 L67.7388316,13.3608247 L67.7388316,13.4707904 L67.8487973,13.5257732 C69.443299,14.3505155 71.532646,14.4604811 73.0721649,13.8556701 C74.7766323,13.1408935 75.5463918,11.9312715 75.8213058,11.0515464 C76.371134,9.67697595 76.1512027,8.3024055 75.7113402,7.53264605 M73.4020619,12.1512027 C72.9072165,12.975945 71.9175258,13.4707904 71.1477663,13.2508591 C70.3780069,13.0309278 69.9381443,12.2061856 69.9381443,10.9415808 C69.9381443,10.9415808 69.9381443,8.02749141 69.9381443,7.36769759 C69.9381443,7.36769759 69.9931271,7.36769759 70.04811,7.31271478 C70.5429553,7.09278351 71.4226804,6.59793814 72.5773196,7.20274914 C73.1821306,7.53264605 73.6769759,8.13745704 73.8969072,8.90721649 C74.1718213,9.95189003 74.0068729,11.1065292 73.4020619,12.1512027 M87.9725086,13.1958763 L87.8075601,13.1408935 C87.6975945,13.1408935 87.4776632,12.8109966 87.4776632,12.3161512 L87.4776632,8.41237113 C87.4776632,7.25773196 87.0927835,6.37800687 86.4329897,5.93814433 C85.8281787,5.49828179 85.0034364,5.44329897 84.0137457,5.77319588 C82.8591065,6.1580756 81.1546392,7.64261168 80.8797251,7.97250859 L80.8247423,8.02749141 L80.8247423,8.13745704 C80.8247423,8.24742268 80.9896907,8.41237113 81.0446735,8.52233677 L81.0996564,8.57731959 C81.0996564,8.57731959 83.024055,8.57731959 83.024055,8.57731959 C83.024055,8.57731959 83.024055,8.13745704 83.024055,8.02749141 C83.024055,7.25773196 83.5189003,6.87285223 83.9587629,6.81786942 C84.3986254,6.7628866 84.6735395,6.7628866 84.8934708,6.92783505 C85.1683849,7.14776632 85.3333333,7.6975945 85.3333333,8.57731959 L85.3333333,9.07216495 L81.3195876,10.8316151 L81.2646048,10.8865979 L81.2646048,10.9415808 C80.8797251,12.0412371 80.9896907,12.9209622 81.4845361,13.5257732 C82.3092784,14.4604811 84.3436426,14.5704467 87.3127148,13.9106529 C87.532646,13.8556701 88.0274914,13.8006873 88.0274914,13.8006873 C87.9725086,13.7457045 87.9725086,13.1958763 87.9725086,13.1958763 M85.3883162,9.95189003 L85.3883162,12.975945 C84.7285223,13.4158076 84.0687285,13.4707904 83.5738832,13.0859107 C83.0790378,12.6460481 82.9690722,11.8762887 83.2989691,11.1065292 L85.3883162,9.95189003 L85.3883162,9.95189003 Z" id="Columbia_logo_blue"></path>
            </g>
        </g>
    </g>
</svg>