<?xml version="1.0" encoding="UTF-8"?>
<svg width="110px" height="60px" viewBox="0 0 110 60" version="1.1" xmlns="http://www.w3.org/2000/svg" xmlns:xlink="http://www.w3.org/1999/xlink">
    <title>Media/Brand Logos/Dark/brand-under-armor-dark</title>
    <g id="Symbols" stroke="none" stroke-width="1" fill="none" fill-rule="evenodd">
        <g id="Media/Brand-Logos/Dark/brand-under-armor-dark" fill="#252324" fill-rule="nonzero">
            <g id="Image" transform="translate(30.000000, 16.000000)">
                <path d="M31.6044361,14.0005859 C31.4274953,14.1306549 31.2165725,14.2818163 30.9611216,14.4622724 C29.32647,15.6200042 26.9535886,16.4133082 23.8694288,16.4133082 L23.6643649,16.4133082 C20.5825487,16.4133082 18.2073237,15.6200042 16.5726721,14.4622724 C16.3195648,14.2818163 16.108642,14.1306549 15.9305294,14.0005859 C16.108642,13.8670015 16.3195648,13.7158401 16.5726721,13.5365558 C18.2073237,12.3799958 20.5813769,11.58552 23.6643649,11.58552 L23.8694288,11.58552 C26.9547604,11.58552 29.3288136,12.3799958 30.9611216,13.5365558 C31.2165725,13.7158401 31.4274953,13.8670015 31.6056079,14.0005859 M47.5419962,4.45398619 C47.5419962,4.45398619 46.1381879,3.38179535 41.6982632,1.75065913 C37.7997071,0.321071354 34.8608496,0 34.8608496,0 L34.8725675,8.40644486 C34.8725675,9.58995606 34.5503243,10.6703494 33.6468717,11.9019042 C30.335384,10.6949571 27.2020088,9.95204018 23.7803725,9.95204018 C20.3587361,9.95204018 17.2277045,10.6937853 13.915045,11.9019042 C13.0104206,10.6762084 12.6893492,9.58878426 12.6893492,8.40644486 L12.702239,0 C12.702239,0 9.74228918,0.316384181 5.84138941,1.75065913 C1.40380833,3.38648253 0,4.45398619 0,4.45398619 C0.183971542,8.26934505 3.52475413,11.6605148 8.78610588,14.0005859 C3.52006696,16.3371417 0.179284369,19.7212806 0,23.5460138 C0,23.5460138 1.40380833,24.6170329 5.84138941,26.2493409 C9.7399456,27.6789286 12.6823185,28 12.6823185,28 L12.668257,19.5923833 C12.668257,18.4088721 12.9928437,17.3284788 13.8939527,16.0980958 C17.2066123,17.3050429 20.3364721,18.0456162 23.7592802,18.0456162 C27.1809165,18.0456162 30.3131199,17.3038711 33.6257795,16.0980958 C34.5304039,17.3249634 34.8514752,18.4100439 34.8514752,19.5923833 L34.8397573,28 C34.8397573,28 37.7797866,27.6812722 41.6783427,26.2493409 C46.1182674,24.6146893 47.5220757,23.5460138 47.5220757,23.5460138 C47.3381042,19.7294832 43.9973216,16.3371417 38.7359699,14.0005859 C44.000837,11.659343 47.3404478,8.2787194 47.5220757,4.4528144 M49.107512,22.5288973 C49.107512,22.7281021 48.9879891,22.9097301 48.8028458,22.9858966 C48.6188742,23.0644068 48.4056079,23.0222222 48.2638209,22.8804352 C48.1220339,22.73982 48.0786775,22.5265537 48.1560159,22.3414103 C48.2321825,22.1574388 48.4126386,22.0367441 48.6130153,22.0367441 C48.7430843,22.0367441 48.869638,22.0871312 48.9622097,22.1797029 C49.0559531,22.2722745 49.107512,22.3976564 49.107512,22.5288973 M49.2118016,22.5288973 C49.2118016,22.2863361 49.0664993,22.0672107 48.8426868,21.974639 C48.620046,21.8808956 48.3622515,21.9312827 48.1899979,22.1035363 C48.0189161,22.2734463 47.9673572,22.5312408 48.0587571,22.7550534 C48.1525005,22.9788659 48.3704541,23.12534 48.6130153,23.12534 C48.9422892,23.12534 49.2106298,22.8581712 49.2106298,22.5277255" id="Shape"></path>
                <path d="M48.73371,22.8183302 L48.841515,22.8183302 L48.6680896,22.5722536 C48.7079305,22.5687382 48.7454279,22.5499895 48.7712074,22.5195229 C48.7969868,22.4878845 48.8087047,22.4492153 48.8051894,22.4082026 C48.8051894,22.3144591 48.7536305,22.2511823 48.6212178,22.2511823 L48.416154,22.2511823 L48.416154,22.8183302 L48.5122411,22.8183302 L48.5122411,22.575769 L48.5638,22.575769 L48.73371,22.8183302 L48.73371,22.8183302 Z M48.5040385,22.3238334 L48.5942666,22.3238334 C48.6716049,22.3238334 48.7044151,22.3507847 48.7044151,22.4117179 C48.7044151,22.473823 48.6762921,22.5042896 48.5942666,22.5042896 L48.5040385,22.5042896 L48.5040385,22.3238334 Z" id="Shape"></path>
            </g>
        </g>
    </g>
</svg>