<?xml version="1.0" encoding="UTF-8"?>
<svg width="110px" height="60px" viewBox="0 0 110 60" version="1.1" xmlns="http://www.w3.org/2000/svg" xmlns:xlink="http://www.w3.org/1999/xlink">
    <title>Artboard</title>
    <defs>
        <polygon id="path-1" points="0 0 90 0 90 15.23502 0 15.23502"></polygon>
    </defs>
    <g id="Artboard" stroke="none" stroke-width="1" fill="none" fill-rule="evenodd">
        <g id="Group-22" transform="translate(10.000000, 22.000000)">
            <g id="Group-3">
                <mask id="mask-2" fill="white">
                    <use xlink:href="#path-1"></use>
                </mask>
                <g id="Clip-2"></g>
                <path d="M0.00243,0.0009 C24.11073,0 48.21813,0.0009 72.32553,0 C78.21693,0.0027 84.10833,-0.0036 90.00063,0.0036 C89.99793,5.0814 89.99793,10.1583 90.00063,15.2352 L-4.30897844e-05,15.2352 C0.00243,10.1565 -0.00297,5.0787 0.00243,0.0009" id="Fill-1" fill="#383737" mask="url(#mask-2)"></path>
            </g>
            <path d="M0.41517,8.14923 C0.40617,5.56893 0.41247,2.99043 0.41247,0.41013 C30.13677,0.41283 59.86107,0.41373 89.58447,0.41013 C89.5867602,2.99223 89.58897,5.57343 89.58357,8.15463 C88.82307,8.15643 88.06347,8.15373 87.30387,8.15553 C87.21747,8.13933 87.15357,8.19603 87.08427,8.22933 C87.09957,9.16173 87.08517,10.09413 87.09057,11.02653 C87.09237,11.50083 87.06357,11.98683 87.21477,12.44223 C87.35697,12.90573 87.65307,13.32333 88.04457,13.61043 C86.81337,13.61943 85.58127,13.60413 84.35097,13.61763 C84.74157,13.29813 85.06107,12.87243 85.19607,12.38013 C85.33467,11.94363 85.29957,11.48013 85.30407,11.02833 C85.30137,10.06983 85.31397,9.11133 85.30317,8.15373 C83.96667,8.15463 82.62927,8.15373 81.29187,8.15373 C81.21087,8.13933 81.15237,8.19243 81.08667,8.22303 C81.34227,8.36973 81.49887,8.63703 81.65817,8.87823 C82.05957,9.54333 82.07577,10.33803 82.21077,11.08143 C82.32147,11.66463 82.32777,12.28563 82.61757,12.81843 C82.77777,13.13253 83.03157,13.38543 83.30697,13.60143 C82.68057,13.60953 82.05597,13.60413 81.43137,13.60683 C81.19017,13.61583 80.92917,13.56633 80.75997,13.38003 C80.47737,13.06323 80.41617,12.61503 80.42427,12.20553 C80.42697,11.55303 80.45577,10.86183 80.16507,10.25973 C79.89147,9.82413 79.54767,9.38853 79.05627,9.19143 C78.53697,8.96823 77.96457,8.89803 77.40387,8.89803 C76.65147,8.89713 75.89907,8.89533 75.14757,8.89713 C75.15567,9.83313 75.14397,10.77003 75.15387,11.70693 C75.16377,12.44223 75.50757,13.16043 76.08987,13.61313 C74.91537,13.62033 73.74087,13.59783 72.56637,13.62483 L72.50517,13.62213 C72.47907,13.61583 72.42777,13.60503 72.40257,13.59963 C73.04247,13.18473 73.35657,12.39363 73.36467,11.65113 C73.37187,10.48563 73.36647,9.32013 73.37277,8.15553 L79.38477,8.15553 C79.90947,8.16453 80.43687,8.13393 80.96067,8.16993 L81.03447,8.20413 C81.01917,8.17083 80.98677,8.10603 80.97147,8.07363 C80.67177,7.86573 80.33067,7.72263 79.97517,7.64163 C80.90037,7.43013 81.80397,6.86403 82.18647,5.96583 C82.45647,5.28003 82.55457,4.48533 82.27647,3.78603 C82.08027,3.30633 81.79677,2.85273 81.39717,2.51613 C80.92647,2.13633 80.34957,1.90413 79.75737,1.79523 C79.02567,1.63773 78.27327,1.71603 77.53257,1.72233 C75.83607,1.76643 74.13957,1.77633 72.44307,1.76823 C73.03167,2.26053 73.39257,3.00753 73.37457,3.77883 C73.37547,5.23773 73.37097,6.69573 73.37277,8.15463 C72.21627,8.15193 71.05977,8.15373 69.90327,8.15373 C69.90237,6.69663 69.90327,5.23953 69.90327,3.78153 C69.90147,3.30183 70.01397,2.81493 70.27227,2.40723 C70.41987,2.16153 70.62957,1.96263 70.83567,1.76823 C69.60897,1.77093 68.38137,1.77273 67.15377,1.76553 C67.75047,2.22273 68.11227,2.95893 68.11047,3.71133 C68.11317,5.19093 68.11677,6.66963 68.11227,8.14923 C68.70897,8.16183 69.30567,8.15103 69.90237,8.15463 C69.89697,9.05193 69.90687,9.94833 69.89787,10.84563 C69.81687,11.92923 69.20937,12.98133 68.26977,13.54293 C67.51557,13.98753 66.60207,14.09643 65.74527,13.97763 C65.18637,13.91643 64.65537,13.72293 64.12527,13.54653 C63.84267,13.46643 63.51237,13.35213 63.24057,13.52583 C63.03807,13.61583 62.95257,13.83183 62.87247,14.02173 C62.88597,12.56373 62.88687,11.10393 62.87247,9.64593 C62.94627,10.22823 63.12897,10.82493 63.55467,11.24793 C64.04517,11.74383 64.65267,12.15873 65.34027,12.31533 C65.91267,12.42513 66.54537,12.45033 67.06917,12.15153 C67.56327,11.90223 67.94577,11.43603 68.06817,10.89243 C68.13117,10.61073 68.11047,10.32273 68.11317,10.03743 C68.11407,9.40833 68.11047,8.78013 68.11677,8.15103 C65.62557,8.15553 63.13527,8.15373 60.64587,8.15193 C60.65217,6.63273 60.63777,5.11353 60.65217,3.59433 C60.67287,2.88243 61.03377,2.21913 61.57647,1.76643 C60.35607,1.77183 59.13567,1.77183 57.91617,1.76643 C58.46247,2.22543 58.83147,2.89413 58.85217,3.61593 C58.86027,4.70313 58.85847,5.78943 58.85937,6.87573 C58.87557,7.28523 58.82427,7.70193 58.88637,8.10603 C58.95207,8.16723 59.04387,8.15373 59.12667,8.15643 C59.63337,8.15373 60.13827,8.15373 60.64407,8.15553 C60.64497,9.17523 60.64587,10.19313 60.64497,11.21283 C60.64137,11.63313 60.63867,12.06423 60.77547,12.46653 C60.90867,12.92643 61.22457,13.30623 61.58277,13.61223 C60.35877,13.61313 59.13387,13.61223 57.90987,13.61223 C58.29057,13.29003 58.61457,12.87963 58.74597,12.39093 C58.89627,11.93013 58.85037,11.44233 58.85937,10.96713 C58.86027,10.04193 58.85937,9.11493 58.86297,8.19153 C58.77567,8.13033 58.66497,8.16003 58.56687,8.15193 C57.13947,8.16003 55.71117,8.14383 54.28377,8.16003 C54.95427,7.96833 55.55367,7.57053 56.01447,7.05123 C56.58147,6.39693 56.80017,5.49333 56.70567,4.64373 C56.62827,3.80043 56.24217,2.96793 55.56087,2.44683 C54.90297,1.89333 54.02547,1.67103 53.17767,1.69983 C51.15717,1.75563 49.13667,1.77813 47.11617,1.77093 C47.68587,2.24883 48.04497,2.96883 48.04497,3.71763 C48.04227,5.19363 48.04497,6.67053 48.03867,8.14743 C50.11497,8.16003 52.19127,8.15553 54.26757,8.15283 C53.19567,8.46963 52.09407,8.66223 51.00867,8.92593 C50.63607,9.00783 50.21397,9.11043 49.99617,9.45513 C49.75857,9.81153 49.83147,10.25523 49.82067,10.65753 C49.83327,11.33613 49.74597,12.05163 50.03937,12.68793 C50.20317,13.05063 50.45157,13.38003 50.77557,13.61673 C49.55247,13.60773 48.32757,13.61403 47.10447,13.61403 C47.65617,13.16493 48.00987,12.48633 48.03057,11.77083 C48.04857,10.56573 48.03237,9.35883 48.04497,8.15193 C46.68597,8.15463 45.32697,8.15103 43.96887,8.15463 C44.46477,9.39663 44.94807,10.64403 45.44397,11.88693 C45.73287,12.55653 46.19187,13.13883 46.74267,13.61223 C45.49977,13.61403 44.25777,13.61133 43.01487,13.61403 C43.31457,13.26573 43.54857,12.81033 43.47207,12.33783 C43.42797,11.96613 43.25157,11.57823 42.90597,11.39823 C42.67917,11.26143 42.40647,11.26053 42.14997,11.26053 C40.93047,11.26143 39.71097,11.25963 38.49237,11.26143 C38.13507,11.25333 37.74447,11.37483 37.54017,11.68623 C37.12077,12.27573 37.25577,13.13253 37.77957,13.61403 C36.52227,13.60953 35.26497,13.61583 34.00857,13.61133 C34.46577,13.26033 34.83747,12.80673 35.11917,12.30543 C35.32077,11.96433 35.44227,11.58633 35.59437,11.22273 C35.99487,10.19763 36.40347,9.17613 36.80127,8.15013 C35.83557,8.15553 34.87077,8.15283 33.90597,8.15283 C33.70977,8.15733 33.50817,8.13483 33.31737,8.18703 C32.16537,8.50473 30.98907,8.71623 29.83167,9.00783 C29.53827,9.07533 29.25567,9.24543 29.11347,9.51813 C28.91727,9.86463 28.98387,10.27593 28.97217,10.65573 C28.98927,11.28123 28.90197,11.93193 29.13057,12.53223 C29.27097,12.95973 29.56437,13.31343 29.89467,13.61043 C28.68147,13.61583 27.46737,13.61133 26.25417,13.61223 C26.83287,13.15683 27.17577,12.44043 27.18567,11.70513 C27.19917,10.63323 27.18657,9.55953 27.19737,8.48763 C27.19287,8.38503 27.21717,8.27253 27.14607,8.18703 C27.12177,8.17803 27.07587,8.16183 27.05247,8.15283 C25.74207,8.14923 24.43167,8.15643 23.12217,8.14923 C23.55597,9.29043 24.01767,10.42083 24.45867,11.55843 C24.75207,12.35223 25.23537,13.08843 25.90767,13.61133 C24.65487,13.61133 23.40297,13.61853 22.15017,13.60683 C22.41207,13.32603 22.61907,12.97233 22.63167,12.57993 C22.64337,12.13533 22.47687,11.63133 22.06827,11.40453 C21.86487,11.27943 21.62097,11.25963 21.38967,11.25963 C20.15127,11.26143 18.91287,11.25963 17.67447,11.26143 C17.40087,11.25963 17.10747,11.30103 16.88877,11.47923 C16.51437,11.78163 16.37667,12.30543 16.45857,12.76803 C16.51437,13.08933 16.69707,13.37103 16.91487,13.60683 C15.66477,13.61943 14.41287,13.60953 13.16187,13.61223 C13.81707,13.09113 14.30577,12.38013 14.59557,11.59713 C15.03927,10.44513 15.50817,9.30303 15.94467,8.14923 C16.64757,8.15643 17.34867,8.15373 18.05157,8.15103 C17.82477,8.77023 17.55657,9.37503 17.32887,9.99513 C18.80037,9.99153 20.27187,9.99333 21.74337,9.99423 C21.50577,9.37683 21.24927,8.76663 21.01617,8.14923 C21.71727,8.15553 22.41837,8.15823 23.12037,8.14833 C22.37877,6.26103 21.63357,4.37643 20.90187,2.48643 C20.77767,2.23623 20.86047,1.95093 21.05487,1.76193 C20.04237,1.77633 19.02987,1.77093 18.01737,1.76553 C18.09027,1.86993 18.18477,1.96803 18.21717,2.09583 C18.24777,2.25873 18.19287,2.42073 18.13887,2.57193 C17.40537,4.42773 16.68357,6.28893 15.94917,8.14473 C14.57937,8.15823 13.20957,8.15193 11.83977,8.14743 C11.83617,6.69033 11.83977,5.23503 11.83797,3.77883 C11.83797,3.28473 11.95587,2.78073 12.23307,2.36763 C12.37797,2.13813 12.57777,1.95093 12.77487,1.76643 C11.61297,1.77363 10.45107,1.76733 9.28917,1.77093 C9.85077,2.22813 10.21977,2.91753 10.23147,3.64833 C10.24047,5.14773 10.23777,6.64713 10.23597,8.14743 C9.76797,8.15643 9.29907,8.14743 8.83107,8.15373 C9.29997,9.03033 9.76977,9.90693 10.23957,10.78443 C10.23777,9.90693 10.24317,9.02943 10.23777,8.15103 C10.76967,8.15283 11.30247,8.15733 11.83527,8.14833 C11.83797,9.68643 11.83437,11.22363 11.83617,12.76173 C11.84517,13.04613 11.79297,13.34673 11.92707,13.61223 C11.02527,13.61583 10.12257,13.60683 9.22077,13.61673 C9.33957,13.47003 9.37737,13.26933 9.26487,13.10643 C8.37027,11.45583 7.48287,9.80253 6.59367,8.14833 C7.33707,8.15553 8.08227,8.15283 8.82747,8.15103 C7.78167,6.18903 6.72147,4.23423 5.67297,2.27493 C5.62617,2.18403 5.60637,2.08233 5.58387,1.98243 C5.62437,1.91133 5.66487,1.83933 5.70537,1.76733 C4.46247,1.77363 3.21957,1.76733 1.97757,1.77003 C2.52747,2.22273 2.88117,2.89773 2.90007,3.61413 C2.91267,5.01093 2.90547,6.40773 2.90547,7.80453 C2.91807,7.90623 2.87577,8.02953 2.93247,8.11953 C3.44997,8.19603 3.98097,8.13033 4.50297,8.15193 C4.50297,6.85143 4.50657,5.55093 4.50207,4.25043 C5.19687,5.55093 5.89527,6.85053 6.58917,8.15193 C5.89347,8.15283 5.19687,8.14923 4.50117,8.15193 C4.50567,9.33903 4.49577,10.52703 4.50207,11.71323 C4.51827,12.44583 4.88727,13.13073 5.43267,13.60953 C4.28247,13.61583 3.13227,13.61133 1.98207,13.61133 C2.52117,13.16133 2.87217,12.49893 2.89827,11.79243 C2.92707,10.60083 2.88387,9.40743 2.92077,8.21673 C2.90727,8.20413 2.88027,8.17983 2.86677,8.16723 C2.05137,8.12943 1.23237,8.16453 0.41517,8.14923" id="Fill-4" fill="#FFFFFF"></path>
            <path d="M26.27172,1.77057 C27.95022,1.77147 29.62872,1.76967 31.30812,1.72287 C31.96422,1.72197 32.62932,1.64547 33.28092,1.77597 C34.25922,1.96227 35.15652,2.62017 35.56602,3.53727 C35.95302,4.41387 35.99802,5.45787 35.61012,6.34167 C35.32392,7.03647 34.72452,7.54407 34.08642,7.90857 C33.84972,8.00487 33.61392,8.12637 33.35922,8.15607 C31.34322,8.14707 29.32812,8.16057 27.31302,8.14887 C27.29142,8.13897 27.24822,8.11737 27.22662,8.10657 C27.17352,7.99227 27.19872,7.86357 27.19332,7.74297 C27.19602,6.40017 27.19692,5.05827 27.19692,3.71547 C27.19062,2.96937 26.84052,2.25027 26.27172,1.77057" id="Fill-6" fill="#383737"></path>
            <path d="M84.34197,1.76796 C85.57227,1.77066 86.80347,1.76976 88.03377,1.76886 C87.45597,2.21976 87.10317,2.92806 87.09687,3.66156 C87.09417,5.16096 87.08517,6.66126 87.10137,8.15976 C86.50197,8.15526 85.90257,8.15526 85.30407,8.15976 C85.30857,6.67836 85.30227,5.19606 85.30137,3.71466 C85.29777,2.96496 84.94767,2.21706 84.34197,1.76796" id="Fill-8" fill="#383737"></path>
            <path d="M38.86254,1.76931 C39.87504,1.76841 40.88754,1.77561 41.90004,1.76481 C41.73534,1.95021 41.63094,2.20491 41.73894,2.44611 C42.47514,4.35141 43.23204,6.24951 43.96914,8.15481 C43.30134,8.14941 42.63444,8.16201 41.96664,8.14761 C41.93694,8.17821 41.90814,8.20971 41.88114,8.24121 C42.15294,8.81181 42.35184,9.41391 42.60204,9.99351 C41.12694,9.99261 39.65274,9.99351 38.17764,9.99351 C38.42154,9.38061 38.66454,8.76771 38.90664,8.15481 C38.20554,8.15121 37.50444,8.15841 36.80334,8.15121 C37.53954,6.26841 38.27754,4.38741 39.01644,2.50641 C39.13344,2.25441 39.07314,1.95111 38.86254,1.76931" id="Fill-10" fill="#383737"></path>
            <path d="M29.11941,3.62331 C29.84031,3.48831 30.57201,3.40461 31.30011,3.31911 C31.96611,3.25341 32.68521,3.25971 33.28461,3.59631 C34.18011,4.11381 34.28901,5.51601 33.55281,6.21441 C33.24411,6.55101 32.79231,6.68421 32.36031,6.77061 C31.23981,7.00191 30.11571,7.22151 28.98531,7.39431 C28.95651,6.25041 28.98261,5.10651 28.97181,3.96261 C28.97451,3.84021 28.96641,3.65391 29.11941,3.62331" id="Fill-12" fill="#FFFFFF"></path>
            <path d="M51.80832,3.35745 C52.53102,3.26295 53.30592,3.21435 53.98722,3.52125 C54.46152,3.72735 54.79452,4.19805 54.85842,4.70835 C54.96462,5.26455 54.77472,5.87205 54.36072,6.25995 C54.02862,6.58575 53.56152,6.69915 53.12052,6.79005 C52.03062,7.01325 50.93712,7.22475 49.83822,7.39395 C49.79952,6.25185 49.83552,5.10705 49.81932,3.96405 C49.83012,3.84705 49.80132,3.64995 49.95792,3.62475 C50.56992,3.50685 51.19002,3.44115 51.80832,3.35745" id="Fill-14" fill="#FFFFFF"></path>
            <path d="M76.82382,3.32055 C77.53032,3.28455 78.23952,3.30615 78.94242,3.37725 C79.44012,3.43305 79.97652,3.57435 80.30592,3.97845 C80.67312,4.46715 80.66862,5.16825 80.36802,5.68845 C79.97382,6.40665 79.20882,6.83055 78.44562,7.05105 C77.37642,7.36785 76.24962,7.29225 75.14982,7.29765 C75.15612,6.39315 75.14712,5.48865 75.15432,4.58505 C75.17322,4.24665 75.22542,3.84975 75.51882,3.63285 C75.91392,3.40875 76.38012,3.37005 76.82382,3.32055" id="Fill-16" fill="#FFFFFF"></path>
            <path d="M38.91033,8.15103 C39.40983,6.90543 39.89043,5.65353 40.39353,4.40973 C40.86783,5.68683 41.40693,6.93873 41.87313,8.21763 L41.78763,8.16453 C40.82913,8.13663 39.86883,8.16453 38.91033,8.15103" id="Fill-18" fill="#FFFFFF"></path>
            <path d="M19.53144,4.42134 C20.03094,5.66154 20.51874,6.90534 21.00654,8.15004 C20.02194,8.15184 19.03914,8.15814 18.05454,8.14734 C18.55674,6.90894 19.03824,5.66244 19.53144,4.42134" id="Fill-20" fill="#FFFFFF"></path>
        </g>
    </g>
</svg>