<?xml version="1.0" encoding="UTF-8"?>
<svg width="110px" height="60px" viewBox="0 0 110 60" version="1.1" xmlns="http://www.w3.org/2000/svg" xmlns:xlink="http://www.w3.org/1999/xlink">
    <title>Media/Brand Logos/Dark/brand-salomon-dark</title>
    <g id="Media/Brand-Logos/Dark/brand-salomon-dark" stroke="none" stroke-width="1" fill="none" fill-rule="evenodd">
        <path d="M51.586323,25.0208446 C52.3214037,25.0471318 53.0536413,25.1116471 53.7656715,25.3151656 C54.0815559,25.4054432 54.3851058,25.5240202 54.6655177,25.6981459 C55.2030285,26.0318758 55.5245115,26.5092453 55.636965,27.1293357 C55.719632,27.5853167 55.7002993,28.0416038 55.621525,28.4934296 C55.4285915,29.6000747 55.2313715,30.7061511 55.0210735,31.809647 C54.8733663,32.5846616 54.57559,33.2939799 54.0171281,33.8743989 C53.5624593,34.346957 53.0039974,34.6476639 52.3874936,34.8501763 C51.7827994,35.0487522 51.1579851,35.1487837 50.5257352,35.2006146 C50.1705731,35.2297449 49.8135301,35.2359559 49.4574932,35.2553761 C49.4178655,35.2575193 49.3792875,35.2782517 49.3402284,35.2903674 L48.1598391,35.2903674 C48.0910811,35.2782079 48.022498,35.2568195 47.9534776,35.2552886 C47.1873421,35.2384928 46.4269801,35.1731027 45.6831516,34.9792069 C45.2653111,34.8702963 44.8683343,34.7104733 44.5193394,34.449088 C44.0459502,34.0945382 43.7885014,33.6164689 43.698836,33.0387618 C43.6197119,32.5287629 43.6777975,32.0266371 43.7665006,31.5246862 L44.2702447,28.6545647 C44.3736442,28.0650043 44.5396344,27.4966136 44.8513635,26.9790916 C45.3112373,26.2155804 45.9954931,25.7381672 46.826625,25.4508882 C47.5125866,25.2137781 48.2248355,25.1122595 48.9445638,25.0563171 C49.8241587,24.9879527 50.7055908,24.9893086 51.586323,25.0208446 Z M71.3958297,25.195797 C71.681709,28.4757983 71.9673258,31.7527817 72.252724,35.0270969 C72.0901017,35.074204 69.361739,35.0914373 68.9456044,35.0485291 C68.7715224,32.7591765 68.6107809,30.4634818 68.4206467,28.1628882 C67.4149516,30.449179 66.4391742,32.747017 65.4451138,35.0513284 L61.5339998,35.0513284 C61.4317375,34.2777135 61.3625859,33.4939948 61.2755012,32.7125506 C61.1887664,31.9342993 61.1011568,31.1560917 61.0218577,30.3770531 C60.9423836,29.5958713 60.8546865,28.8158705 60.7733754,28.0349948 C60.7557485,28.0342513 60.7381216,28.033464 60.7205384,28.0326766 C59.9257975,30.3743413 59.1311002,32.7160497 58.3365342,35.057277 L55.1322454,35.057277 C55.1444487,34.8691985 58.3449322,26.188239 58.7649158,25.1991211 L62.9770429,25.1991211 C63.2708827,27.6479468 63.5657723,30.1053453 63.8606181,32.5627439 C63.8716841,32.5658493 63.8827502,32.5689111 63.8938162,32.5720166 C64.9447813,30.1157115 65.9957901,27.6594502 67.0499482,25.195797 L71.3958297,25.195797 Z M49.7022576,27.1916203 C49.4059247,27.1933261 49.1063987,27.2276176 48.8145272,27.2809794 C48.2808654,27.3784741 47.9059331,27.6862229 47.7151865,28.1981463 C47.6496652,28.3739779 47.5867246,28.553571 47.550421,28.7369256 C47.3703031,29.6462632 47.1988455,30.5572629 47.0258133,31.4679565 C46.9687774,31.768051 46.9375039,32.0701138 46.9745947,32.3758507 C47.0122104,32.6853492 47.1797315,32.8988839 47.4666605,33.0127807 C47.5870745,33.0605876 47.7166299,33.0993405 47.8449607,33.1111064 C48.2425936,33.1477161 48.6416699,33.169367 49.0473508,33.1973163 C49.4634417,33.1691483 49.8855686,33.1564202 50.3036277,33.108657 C50.9404702,33.035875 51.3782557,32.6981647 51.5756506,32.078293 C51.6238949,31.9267805 51.67402,31.7743495 51.703544,31.618638 C51.8829621,30.6723845 52.0569128,29.7250812 52.2321757,28.7780404 C52.2812074,28.5133309 52.3075383,28.2474404 52.2730719,27.978182 C52.2348001,27.6791372 52.0830689,27.4614035 51.7981081,27.3561233 C51.6429652,27.298825 51.477981,27.2445884 51.3150088,27.2360593 C50.7780228,27.2079787 50.2398122,27.1885148 49.7022576,27.1916203 Z M78.5307314,33.1971064 C78.9445916,33.1691133 79.3670684,33.1577848 79.7849525,33.1082721 C80.4214451,33.0329095 80.856825,32.691219 81.0530389,32.0713473 C81.0945474,31.9402609 81.1409109,31.8093495 81.1664109,31.6748516 C81.3567201,30.6716059 81.5468106,29.6682728 81.7261412,28.6630589 C81.7690931,28.4221872 81.7956428,28.176373 81.7413187,27.9280656 C81.6863823,27.6768715 81.5626879,27.4791704 81.3242219,27.3807572 C81.1583191,27.3122617 80.979076,27.2488399 80.8024571,27.2383425 C80.2657336,27.2065003 79.7273918,27.188611 79.1897497,27.1910604 C78.8934605,27.1924163 78.5944594,27.2282387 78.3019318,27.2788449 C77.7574227,27.3729717 77.3782477,27.6856631 77.1850517,28.2048035 C77.1146317,28.3941066 77.0546215,28.5897083 77.0144689,28.7874094 C76.8790961,29.4545631 76.7490596,30.1229416 76.6282957,30.7928509 C76.5525394,31.2128783 76.4756459,31.6345678 76.4375928,32.0589253 C76.3829626,32.6677748 76.6590443,33.0001051 77.2603269,33.1075285 C77.2818028,33.1113338 77.3035849,33.1137832 77.325367,33.1152703 C77.7239622,33.1424761 78.1226449,33.1694632 78.5307314,33.1971064 M77.6254178,35.2903762 C77.5571847,35.2782167 77.489214,35.2569594 77.4207622,35.2552536 C76.610975,35.2348712 75.8075736,35.1668567 75.0252983,34.9413812 C74.6882005,34.8441928 74.3682483,34.7077265 74.0767704,34.5091944 C73.5378599,34.1422226 73.2560921,33.6252692 73.1638899,32.9899576 C73.0864716,32.4562521 73.1670829,31.93405 73.2584103,31.4119791 C73.4296055,30.4336648 73.6023752,29.4556566 73.778338,28.4782171 C73.8505076,28.0773912 73.971184,27.6902557 74.1431228,27.320091 C74.6045711,26.3265554 75.4045608,25.7315276 76.4287575,25.4075952 C77.0982732,25.1958538 77.789571,25.1035641 78.4884357,25.0526955 C79.3469046,24.9901922 80.2061609,24.9918543 81.064936,25.0211595 C81.8002354,25.0462221 82.5343976,25.107107 83.2434097,25.3202481 C83.5064572,25.3993285 83.7680175,25.499535 84.0105075,25.6272971 C84.7182513,26.0003049 85.0810678,26.6054802 85.1453207,27.3939227 C85.184511,27.8744851 85.1271689,28.3477868 85.0398217,28.8200825 C84.8658273,29.7608249 84.7004494,30.7030981 84.5297354,31.6444528 C84.4413822,32.1314886 84.3060969,32.6044842 84.0792655,33.0472559 C83.6511902,33.8829805 82.971527,34.4332631 82.1020358,34.7648936 C81.5549898,34.9735295 80.9862055,35.0976176 80.4056553,35.1553533 C79.9135895,35.2042537 79.4184182,35.2216619 78.9248215,35.2552974 C78.8845377,35.2580092 78.8454349,35.2782604 78.8058072,35.2903762 C78.4123295,35.2903762 78.0188518,35.2903762 77.6254178,35.2903762 M20.903732,25.0990196 C21.2539954,25.0992383 21.6033403,25.1238198 21.9391697,25.2301497 C22.0832029,25.2757259 22.2256614,25.3384479 22.354517,25.4167848 C22.618483,25.5773076 22.7575298,25.8243028 22.8083548,26.1266718 C22.8573864,26.4184558 22.8239259,26.7046851 22.7657528,26.9899958 C22.6588105,27.5143411 22.5496375,28.038249 22.4395022,28.5713422 L19.3544902,28.5713422 C19.4052276,28.3353256 19.4550903,28.1061322 19.5034658,27.8766327 C19.5244169,27.7773448 19.5483422,27.6781006 19.560283,27.5776317 C19.5880137,27.3449392 19.5127385,27.2131531 19.2890126,27.1475443 C19.1298457,27.1008746 18.9619747,27.0723129 18.7962907,27.0612031 C17.9090851,27.0017179 17.0212234,27.0077539 16.1340616,27.0621217 C15.9759882,27.071788 15.8141095,27.1006559 15.6645652,27.1515246 C15.36189,27.2543991 15.2599778,27.6670346 15.4754807,27.9028325 C15.5523742,27.9869867 15.6490815,28.0597687 15.7494192,28.1148363 C16.0295687,28.2685358 16.3142233,28.414581 16.6008899,28.5559897 C18.067421,29.2794796 19.5359203,29.9989891 21.0015329,30.7243597 C21.1896988,30.8174805 21.3707353,30.9279219 21.544861,31.0454491 C21.860133,31.2582402 21.9924878,31.5666015 21.9152444,31.9335295 C21.7854702,32.5499458 21.6301961,33.1610696 21.4849383,33.7742492 C21.47829,33.8022423 21.4638998,33.8283109 21.4545396,33.8557791 C21.2156362,34.5545125 20.7235266,34.9587501 19.9973687,35.0690166 C19.6674878,35.1190979 19.3317895,35.1543517 18.9985407,35.1557514 C17.0971109,35.1638431 15.1956374,35.1602127 13.2941639,35.1592505 C12.9072908,35.1590755 12.5221236,35.1307763 12.1478911,35.0281642 C11.9878932,34.98425 11.8289013,34.9252021 11.6813253,34.8498832 C11.3287,34.6698965 11.1205014,34.3764941 11.0451826,33.988615 C11.0361723,33.9422515 11.0153525,33.8981624 11,33.8530235 L11,33.461033 C11.0432581,33.2426432 11.0876096,33.0244284 11.129468,32.8057763 L11.3154033,31.823088 C11.3235387,31.7810109 11.3418655,31.7409021 11.3581802,31.6917393 L14.3096128,31.6917393 C14.2779019,31.8539679 14.2499525,32.0064864 14.2179355,32.1581739 C14.186487,32.3070183 14.1484339,32.4545069 14.1176415,32.6034825 C14.059862,32.8825823 14.1463781,33.0444172 14.4285834,33.1014531 C14.6981479,33.1559084 14.9761979,33.1941802 15.2505301,33.1944864 C16.0584365,33.1953174 16.866343,33.1753286 17.674162,33.1591014 C17.7822415,33.1569582 17.890496,33.1328579 17.9975258,33.1129128 C18.1931711,33.0764343 18.2966143,32.9507716 18.3361545,32.7610311 C18.3749949,32.5746584 18.3490576,32.4042943 18.1814928,32.2974395 C17.9369907,32.1415093 17.6888583,31.9878098 17.4291351,31.859654 C16.1453026,31.2260044 14.856615,30.6022399 13.5709892,29.9722645 C13.2634153,29.8215393 12.9708439,29.6450517 12.709371,29.4215444 C12.294986,29.0673883 12.1063389,28.623523 12.2127126,28.0840002 C12.3205734,27.5372167 12.4457112,26.9934511 12.5775849,26.4518288 C12.6163815,26.2924433 12.694281,26.1398372 12.7708683,25.9926986 C12.9949441,25.5623051 13.3741191,25.3378356 13.8328119,25.2296686 C14.2819259,25.1237323 14.7402688,25.0999382 15.1993115,25.0993696 C17.100785,25.0970514 19.0022585,25.0978465 20.903732,25.0990196 Z M31.6469502,25.194756 C32.3095989,28.4809683 32.9707604,31.7598762 33.6349836,35.0540053 L30.19739,35.0540053 C30.0888731,34.4558282 29.980706,33.8597506 29.8709207,33.2546627 L26.0730037,33.2546627 C25.8002024,33.8470662 25.5248205,34.4449809 25.2450209,35.0526056 L21.8432934,35.0526056 C21.8704992,34.9003933 26.6765607,25.6175827 26.9488371,25.194756 L31.6469502,25.194756 Z M29.0186627,27.2675559 C28.3281522,28.6122296 27.6376417,29.9568595 26.9364152,31.3224406 L29.683542,31.3224406 C29.4730253,29.9575156 29.2656579,28.6127544 29.0582467,27.268037 C29.0450374,27.267862 29.0318719,27.2676871 29.0186627,27.2675559 Z M87.4100962,25.1917642 L91.8941935,25.1917642 C92.7823614,27.5814545 93.6724538,29.9763497 94.5611027,32.3672647 C94.5845469,32.3650777 94.5923325,32.3658213 94.5988934,32.3632844 C94.6045795,32.3610975 94.6122338,32.3559362 94.6132399,32.35095 C95.0786685,29.9756499 95.543616,27.6002186 96.0090447,25.2249185 C96.0102256,25.218795 96.0182736,25.2139837 96.0334949,25.1970566 L99.0000175,25.1970566 C98.406783,28.4884739 97.8159103,31.7667695 97.2234631,35.0537253 L92.5851851,35.0537253 C91.7464863,32.7194089 90.9067377,30.3822056 90.0669891,28.0450023 C89.8759801,28.8127562 89.7507548,29.5881207 89.6100022,30.3603798 C89.4670188,31.1447983 89.3346203,31.9311413 89.195136,32.7162159 C89.0570077,33.4935049 88.9158613,34.2702691 88.7746275,35.0549938 L85.6192391,35.0549938 C86.2170662,31.7625267 86.8121378,28.4849748 87.4100962,25.1917642 M43.3460139,32.6963889 C43.2076669,33.4941042 43.0743499,34.2627766 42.9417764,35.0272063 C42.7818659,35.073876 34.5094742,35.088791 34.1823051,35.0424275 C34.7775517,31.7647006 35.3726232,28.4878047 35.9699255,25.198968 L39.1128045,25.198968 C38.6689831,27.6921015 38.2267362,30.1765746 37.7798529,32.6868538 C38.4175702,32.7065364 39.0266821,32.6935021 39.635444,32.6958641 C40.2546597,32.698226 40.8738753,32.6963889 41.4930909,32.6963889 L43.3460139,32.6963889 Z" id="Image" fill="#252324"></path>
    </g>
</svg>