<?xml version="1.0" encoding="UTF-8"?>
<svg width="110px" height="60px" viewBox="0 0 110 60" version="1.1" xmlns="http://www.w3.org/2000/svg" xmlns:xlink="http://www.w3.org/1999/xlink">
    <title>Media/Brand Logos/Dark/brand-reef-dark</title>
    <g id="Symbols" stroke="none" stroke-width="1" fill="none" fill-rule="evenodd">
        <g id="Media/Brand-Logos/Dark/brand-reef-dark" fill="#252324" fill-rule="nonzero">
            <g id="Image" transform="translate(33.000000, 11.000000)">
                <path d="M42.4536,36.67 L1.3452,36.67 L1.3452,22.0628 L42.4536,22.0628 L42.4536,36.67 L42.4536,36.67 Z M7.0224,16.1424 L36.7384,16.1424 C37.7112,16.1424 38.494,16.9252 38.494,17.898 C38.494,18.8632 37.7112,19.6536 36.7384,19.6536 L7.0224,19.6536 C6.0572,19.6536 5.2668,18.8708 5.2668,17.898 C5.2668,16.9252 6.0496,16.1424 7.0224,16.1424 M18.2172,4.18 C20.2008,2.1964 23.408,2.1964 25.3916,4.18 L35.872,14.6604 L24.4872,14.6604 L19.9044,10.07 C19.038,9.2036 17.632,9.2036 16.7656,10.07 L12.1752,14.6604 L7.7368,14.6604 L18.2172,4.18 Z M0,38 L43.7988,38 L43.7988,0 L0,0 L0,38 Z" id="Shape"></path>
                <path d="M20.482,8.6944 C20.0564,8.2688 19.5016,8.0104 18.9468,7.9116 L21.6904,5.1604 C22.4048,4.446 23.5524,4.446 24.2668,5.1604 L32.4444,13.3456 L25.1332,13.3532 L20.482,8.6944 Z M36.67,30.1796 L39.748,30.1796 L39.748,28.5456 L36.67,28.5456 L36.67,26.4632 C36.67,26.0148 37.0348,25.65 37.4832,25.65 L40.4776,25.65 L40.4776,24.0616 L34.6788,24.0616 C33.7744,24.0616 33.0448,24.7912 33.0448,25.6956 L33.0448,34.6332 L36.67,34.6332 L36.67,30.1796 Z M25.2548,34.6636 L31.0536,34.6636 L31.0536,33.0752 L28.0592,33.0752 C27.6108,33.0752 27.246,32.7104 27.246,32.262 L27.246,30.1796 L30.324,30.1796 L30.324,28.5456 L27.246,28.5456 L27.246,26.4632 C27.246,26.0148 27.6108,25.65 28.0592,25.65 L31.0536,25.65 L31.0536,24.0616 L25.2548,24.0616 C24.3504,24.0616 23.6208,24.7912 23.6208,25.6956 L23.6208,33.0372 C23.6208,33.934 24.3504,34.6636 25.2548,34.6636 M15.8232,34.6636 L21.622,34.6636 L21.622,33.0752 L18.6276,33.0752 C18.1792,33.0752 17.8144,32.7104 17.8144,32.262 L17.8144,30.1796 L20.9,30.1796 L20.9,28.5456 L17.8144,28.5456 L17.8144,26.4632 C17.8144,26.0148 18.1792,25.65 18.6276,25.65 L21.622,25.65 L21.622,24.0616 L15.8232,24.0616 C14.9188,24.0616 14.1892,24.7912 14.1892,25.6956 L14.1892,33.0372 C14.1968,33.934 14.9264,34.6636 15.8232,34.6636 M6.5512,25.3536 L7.1288,25.3536 C7.9952,25.3536 8.6412,26.1136 8.6412,27.322 C8.6412,28.5912 7.98,29.4652 7.0604,29.4652 L6.7336,29.4652 L9.0744,34.6712 L13.1556,34.6712 L10.0776,29.868 C11.3392,29.488 12.0156,28.4696 12.0156,27.2764 C12.0156,25.2776 10.4956,24.0692 8.7096,24.0692 L3.3212,24.0692 L3.3212,34.6712 L6.5588,34.6712 L6.5588,25.3536 L6.5512,25.3536 Z" id="Shape"></path>
            </g>
        </g>
    </g>
</svg>