<?xml version="1.0" encoding="UTF-8"?>
<svg width="110px" height="60px" viewBox="0 0 110 60" version="1.1" xmlns="http://www.w3.org/2000/svg" xmlns:xlink="http://www.w3.org/1999/xlink">
    <title>Media/Brand Logos/Dark/brand-caterpillar-dark</title>
    <g id="Symbols" stroke="none" stroke-width="1" fill="none" fill-rule="evenodd">
        <g id="Media/Brand-Logos/Dark/brand-caterpillar-dark" fill="#252324" fill-rule="nonzero">
            <g id="Image" transform="translate(28.000000, 15.000000)">
                <path d="M14.1867834,25.0481074 C15.3188915,24.1043959 15.5124734,22.9342628 15.5124734,21.8868468 L15.5124734,17.4811315 L9.35933629,17.4811315 L9.35933629,23.4596993 C9.3593495,24.3154523 8.66814981,25.0105134 7.81240998,25.0152676 C7.40639395,25.0132205 7.01858683,24.8465078 6.73774352,24.5532839 C6.4569002,24.26006 6.30706192,23.865426 6.32252117,23.4596993 L6.32252117,6.52128824 C6.3094532,6.11703126 6.4603559,5.72465849 6.74093689,5.433336 C7.02151788,5.14201352 7.4079474,4.97648334 7.81240998,4.97436193 C8.66479003,4.97908436 9.35461386,5.66890819 9.35933629,6.52128824 L9.35933629,12.537881 L15.5142018,12.537881 L15.5142018,6.29313822 L15.5142018,6.29313822 C15.5142018,2.83631964 13.2672697,0.00691363715 7.76919975,0 L7.76919975,0 C2.13112865,0 0,2.85187532 0,6.30005185 L0,23.9885925 C0,27.4073861 2.71360258,29.9948148 6.18597684,29.9930872 L8.08722706,29.9930872 L14.1867834,25.0481074 Z" id="Path"></path>
                <polygon id="Path" points="38.4450078 25.7429279 38.4450078 6.30523708 34.2000346 6.30523708 34.2000346 0.577288702 49.56905 0.577288702 49.56905 6.30523708 45.299879 6.30523708 45.299879 29.9585182 43.479864 29.9585182"></polygon>
                <path d="M30.5029671,0.610128478 L21.9283286,0.610128478 L16.9332258,23.0224117 L26.2303393,15.5159302 L35.9284439,23.6394538 L30.5029671,0.610128478 Z M24.5762517,14.0778936 L26.2355246,5.60868814 L27.8826986,14.0778936 L24.5762517,14.0778936 Z" id="Shape"></path>
                <polygon id="Path" points="41.1983638 30 26.2320678 17.462119 10.7230512 30"></polygon>
                <path d="M50.6596762,1.96347295 C50.677676,1.35282188 51.1837903,0.870404675 51.7946024,0.881685789 C52.4054146,0.892966904 52.8933702,1.39374363 52.8888091,2.0046429 C52.8842481,2.61554217 52.3888695,3.10897718 51.777957,3.11113672 C51.4754576,3.11367075 51.1850366,2.99259287 50.9739212,2.77593038 C50.7628057,2.55926789 50.6492992,2.265805 50.6596762,1.96347295 L50.6596762,1.96347295 Z M51.777957,3.34620038 C52.5317298,3.33478486 53.1351766,2.71749327 53.1294937,1.96365544 C53.1238108,1.2098176 52.5111262,0.60169391 51.757267,0.601643787 C51.0034077,0.601593665 50.3906422,1.20963587 50.3848405,1.96347295 C50.3829404,2.3319569 50.5296607,2.68565308 50.7918431,2.9445826 C51.0540255,3.20351211 51.4095257,3.34580543 51.777957,3.33928674 L51.777957,3.34620038 Z M51.4875843,2.07409114 L51.7641297,2.07409114 L52.1806764,2.76545486 L52.4503082,2.76545486 L51.9991934,2.07409114 C52.1121568,2.0733132 52.2198734,2.0263072 52.2972658,1.94401654 C52.3746582,1.86172587 52.4149737,1.75133072 52.4088264,1.638532 C52.4088264,1.32568992 52.2238866,1.18741718 51.8505502,1.18741718 L51.2473354,1.18741718 L51.2473354,2.76545486 L51.4875843,2.76545486 L51.4875843,2.07409114 Z M51.4875843,1.87013885 L51.4875843,1.38272743 L51.8107968,1.38272743 C51.9836377,1.38272743 52.1564787,1.41902402 52.1564787,1.61433427 C52.1564787,1.85803998 51.9732673,1.87186726 51.7710434,1.87186726 L51.4875843,1.87013885 Z" id="Shape"></path>
            </g>
        </g>
    </g>
</svg>