<?xml version="1.0" encoding="UTF-8"?>
<svg width="110px" height="60px" viewBox="0 0 110 60" version="1.1" xmlns="http://www.w3.org/2000/svg" xmlns:xlink="http://www.w3.org/1999/xlink">
    <title>Media/Brand Logos/Dark/brand-reebok-dark</title>
    <g id="Symbols" stroke="none" stroke-width="1" fill="none" fill-rule="evenodd">
        <g id="Media/Brand-Logos/Dark/brand-reebok-dark" fill="#252324" fill-rule="nonzero">
            <g id="Image" transform="translate(19.000000, 20.000000)">
                <path d="M44.5452164,8.45436508 C52.7244843,5.17460317 57.8174603,3.29563492 71.3135496,0 C63.9841014,0.484126984 47.7741354,1.59920635 36.6016793,3.78373016 L44.5452164,8.45436508" id="Path"></path>
                <path d="M19.1100504,19.3214286 L29.8070828,19.3214286 C31.924699,16.109127 34.0324106,14.5416667 36.4867853,12.7996032 C34.6286711,12.0813492 32.7626332,11.3869048 30.8649004,10.7142857 C24.038609,13.7321429 20.2411625,17.7837302 19.1179741,19.3214286" id="Path"></path>
                <path d="M21.2237047,7.63095238 C11.6874984,11.0456349 6.38454362,14.7519841 2.80499962,19.3214286 L14.6153158,19.3214286 C15.7662373,17.718254 20.1480587,13.0912698 28.3827927,9.875 C26.1126447,9.10515873 22.1666283,7.87103175 21.2237047,7.63095238" id="Path"></path>
                <path d="M26.1185875,0.44047619 L0,0.44047619 C26.3325282,5.20238095 39.0243591,11.3353175 59.427958,20 C57.6827569,18.6944444 29.5614472,2.1031746 26.1225494,0.44047619" id="Path"></path>
            </g>
        </g>
    </g>
</svg>