<?xml version="1.0" encoding="UTF-8"?>
<svg width="110px" height="60px" viewBox="0 0 110 60" version="1.1" xmlns="http://www.w3.org/2000/svg" xmlns:xlink="http://www.w3.org/1999/xlink">
    <title>Media/Brand Logos/Dark/brand-the-north-face-dark</title>
    <g id="Symbols" stroke="none" stroke-width="1" fill="none" fill-rule="evenodd">
        <g id="Media/Brand-Logos/Dark/brand-the-north-face-dark" fill="#252324" fill-rule="nonzero">
            <g id="Image" transform="translate(23.000000, 15.000000)">
                <path d="M22.5,8.93617021 L20.6489362,8.93617021 L20.6489362,1.62765957 L17.9680851,1.62765957 L17.9680851,0.0319148936 L25.1808511,0.0319148936 L25.1808511,1.62765957 L22.5,1.62765957 L22.5,8.93617021 Z M27.7021277,4.94680851 L27.7021277,8.93617021 L25.8510638,8.93617021 L25.8510638,0.0319148936 L27.7021277,0.0319148936 L27.7021277,3.41489362 L31.1808511,3.41489362 L31.1808511,0.0319148936 L33.0319149,0.0319148936 L33.0319149,8.93617021 L31.1808511,8.93617021 L31.1808511,4.94680851 L27.7021277,4.94680851 Z M40.212766,1.59574468 L35.5531915,1.59574468 L35.5531915,3.4787234 L39.6702128,3.4787234 L39.6702128,5.04255319 L35.5531915,5.04255319 L35.5531915,7.37234043 L40.212766,7.37234043 L40.212766,8.93617021 L33.8297872,8.93617021 L33.8297872,0.0319148936 L40.212766,0.0319148936 L40.212766,1.59574468 Z M5.5212766,10.3085106 L7.24468085,10.3085106 L7.24468085,19.1808511 L5.39361702,19.1808511 L1.75531915,12.8617021 L1.72340426,12.8617021 L1.72340426,19.1808511 L0,19.1808511 L0,10.3085106 L1.94680851,10.3085106 L5.4893617,16.4680851 L5.5212766,16.4680851 L5.5212766,10.3085106 Z M12.3510638,10.0531915 C13.5319149,10.0531915 16.6276596,10.5638298 16.6276596,14.712766 C16.6276596,18.8617021 13.5319149,19.3723404 12.3510638,19.3723404 C11.1702128,19.3723404 8.07446809,18.8617021 8.07446809,14.712766 C8.07446809,10.5638298 11.1702128,10.0531915 12.3510638,10.0531915 M12.3510638,17.8404255 C13.3404255,17.8404255 14.7446809,17.2340426 14.7446809,14.7446809 C14.7446809,12.2553191 13.3404255,11.6489362 12.3510638,11.6489362 C11.3617021,11.6489362 9.92553191,12.2553191 9.92553191,14.7446809 C9.92553191,17.2340426 11.3617021,17.8404255 12.3510638,17.8404255 M29.712766,19.1808511 L27.8617021,19.1808511 L27.8617021,11.8723404 L25.1489362,11.8723404 L25.1489362,10.3085106 L32.393617,10.3085106 L32.393617,11.8723404 L29.712766,11.8723404 L29.712766,19.1808511 Z M34.9148936,15.1914894 L34.9148936,19.1808511 L33.0638298,19.1808511 L33.0638298,10.3085106 L34.9148936,10.3085106 L34.9148936,13.6595745 L38.3617021,13.6595745 L38.3617021,10.3085106 L40.212766,10.3085106 L40.212766,19.1808511 L38.3617021,19.1808511 L38.3617021,15.1914894 L34.9148936,15.1914894 Z M17.393617,10.3085106 L21.893617,10.3085106 C24.2553191,10.3085106 24.7021277,12.0638298 24.7021277,12.8297872 C24.7021277,13.8191489 24.1914894,14.6489362 23.3297872,14.9361702 C24.0638298,15.2553191 24.4468085,15.5425532 24.4468085,17.2021277 C24.4468085,18.5106383 24.4468085,18.8297872 24.8297872,18.9574468 L24.8297872,19.1808511 L22.787234,19.1808511 C22.6595745,18.7659574 22.5957447,18.3191489 22.5957447,17.393617 C22.5957447,16.1808511 22.5319149,15.7021277 21.1595745,15.7021277 L19.2446809,15.7021277 L19.2446809,19.1808511 L17.4255319,19.1808511 L17.393617,10.3085106 L17.393617,10.3085106 Z M21.3829787,14.2021277 C22.3404255,14.2021277 22.8191489,13.8510638 22.8191489,12.9893617 C22.8191489,12.5106383 22.5957447,11.8404255 21.5106383,11.8404255 L19.212766,11.8404255 L19.212766,14.2021277 L21.3829787,14.2021277 Z M13.0851064,29.712766 L11.2021277,29.712766 L11.2021277,20.5851064 L17.6808511,20.5851064 L17.6808511,22.212766 L13.0851064,22.212766 L13.0851064,24.2553191 L17.106383,24.2553191 L17.106383,25.8829787 L13.0851064,25.8829787 L13.0851064,29.712766 Z M18.5425532,29.712766 L16.5319149,29.712766 L19.787234,20.5851064 L21.9893617,20.5851064 L25.212766,29.712766 L23.1382979,29.712766 L22.5638298,27.8297872 L19.1489362,27.8297872 L18.5425532,29.712766 Z M19.6595745,26.2659574 L21.9893617,26.2659574 L20.8723404,22.6595745 L20.8404255,22.6595745 L19.6595745,26.2659574 L19.6595745,26.2659574 Z M31.0212766,23.6170213 C30.8617021,23.0744681 30.5744681,22.0531915 29.0106383,22.0531915 C28.0851064,22.0531915 26.7446809,22.6595745 26.7446809,25.2446809 C26.7446809,26.8723404 27.3829787,28.3404255 29.0106383,28.3404255 C30.0638298,28.3404255 30.7978723,27.7340426 31.0212766,26.6170213 L32.9361702,26.6170213 C32.5531915,28.5957447 31.2765957,29.9680851 28.9787234,29.9680851 C26.5531915,29.9680851 24.8297872,28.3404255 24.8297872,25.1808511 C24.8297872,21.9893617 26.6808511,20.3617021 29.0106383,20.3617021 C31.7234043,20.3617021 32.8404255,22.2446809 32.9361702,23.5851064 L31.0212766,23.5851064 L31.0212766,23.6170213 L31.0212766,23.6170213 Z M40.2446809,22.212766 L35.4574468,22.212766 L35.4574468,24.1276596 L39.7021277,24.1276596 L39.7021277,25.7234043 L35.4574468,25.7234043 L35.4574468,28.0851064 L40.2446809,28.0851064 L40.2446809,29.712766 L33.7021277,29.712766 L33.7021277,20.5851064 L40.2446809,20.5851064 L40.2446809,22.212766 Z M7.75531915,25.0851064 C9.09574468,25.0851064 10.212766,26.1382979 10.212766,27.5425532 C10.212766,28.9468085 9.09574468,30 7.75531915,30 C6.41489362,30 5.26595745,28.9468085 5.26595745,27.5425532 C5.26595745,26.1382979 6.41489362,25.0851064 7.75531915,25.0851064 M7.75531915,29.6489362 C8.90425532,29.6489362 9.76595745,28.7553191 9.76595745,27.5425532 C9.76595745,26.3617021 8.87234043,25.4680851 7.75531915,25.4680851 C6.60638298,25.4680851 5.71276596,26.3617021 5.71276596,27.5425532 C5.71276596,28.7234043 6.60638298,29.6489362 7.75531915,29.6489362 M6.79787234,26.106383 L7.91489362,26.106383 C8.58510638,26.106383 8.93617021,26.3617021 8.93617021,26.9361702 C8.93617021,27.4468085 8.61702128,27.6702128 8.17021277,27.7340426 L9,29.0106383 L8.5212766,29.0106383 L7.72340426,27.7659574 L7.24468085,27.7659574 L7.24468085,29.0106383 L6.79787234,29.0106383 L6.79787234,26.106383 L6.79787234,26.106383 Z M7.24468085,27.3829787 L7.72340426,27.3829787 C8.10638298,27.3829787 8.4893617,27.3510638 8.4893617,26.9042553 C8.4893617,26.5212766 8.17021277,26.4574468 7.85106383,26.4574468 L7.24468085,26.4574468 L7.24468085,27.3829787 Z M46.3085106,29.1382979 L46.3085106,24.4468085 C46.3085106,22.3404255 44.5851064,20.6170213 42.4787234,20.6170213 L42.0638298,20.6170213 L42.0638298,29.7446809 L46.3085106,29.7446809 L46.3085106,29.1382979 L46.3085106,29.1382979 Z M63.8297872,29.1382979 L63.8297872,21.3510638 C63.8297872,9.57446809 54.2553191,0 42.4787234,0 L42.2553191,0 L42.287234,0 L42.0638298,0 L42.0638298,8.93617021 L42.6702128,8.93617021 C49.5957447,9.03191489 55.2446809,14.6808511 55.3404255,21.606383 L55.3404255,29.6808511 L63.8297872,29.6808511 L63.8297872,29.1382979 Z" id="Shape"></path>
                <path d="M53.9680851,29.4574468 L53.9680851,21.7340426 C53.9361702,15.5744681 49.0212766,10.5638298 42.9255319,10.3085106 L42.2234043,10.3085106 L42.2553191,10.3085106 L42.0319149,10.3085106 L42.0319149,19.212766 L42.4468085,19.212766 C45.3191489,19.212766 47.6170213,21.5425532 47.6170213,24.3829787 L47.6170213,29.6808511 L53.9680851,29.6808511 L53.9680851,29.4574468 Z" id="Path"></path>
            </g>
        </g>
    </g>
</svg>