<?xml version="1.0" encoding="UTF-8"?>
<svg width="110px" height="60px" viewBox="0 0 110 60" version="1.1" xmlns="http://www.w3.org/2000/svg" xmlns:xlink="http://www.w3.org/1999/xlink">
    <title>brand-crocks-dark-02</title>
    <g id="brand-crocks-dark-02" stroke="none" stroke-width="1" fill="none" fill-rule="evenodd">
        <g id="brand-crocs-dark" transform="translate(13.000000, 22.000000)" fill="#000000" fill-rule="nonzero">
            <path d="M8.79520348,4.51222485 C10.0061373,4.51222485 11.1533377,5.1568284 11.7906713,6.05927337 C11.822538,6.09150355 11.822538,6.09150355 11.8544047,6.12373372 C11.8862714,6.1559639 11.9181381,6.18819408 11.9181381,6.22042426 L11.9181381,6.22042426 C12.3324049,6.76833727 13.0016052,7.09063905 13.7345387,7.09063905 C15.009206,7.09063905 16.0608063,6.02704319 16.0608063,4.73783609 C16.0608063,4.12546272 15.8377396,3.5775497 15.4553395,3.15855739 C13.8620055,1.16028639 11.9500047,0 8.76333679,0 C3.76026815,0 7.18526362e-15,3.51308935 7.18526362e-15,8.44430651 C7.18526362e-15,13.439984 3.76026815,16.9530734 8.79520348,16.9530734 C12.0137381,16.9530734 13.8938722,15.8250171 15.4872062,14.0201273 L15.4872062,14.0201273 C15.8377396,13.6011349 16.0608063,13.085452 16.0608063,12.5053088 C16.0608063,11.2161018 15.0410726,10.1847361 13.7664054,10.1847361 C13.0653385,10.1847361 12.4598716,10.5070379 12.0456048,10.9904905 C11.2808044,11.7640147 10.4204041,12.5053088 8.82707015,12.5053088 C6.53266925,12.5053088 5.2261354,10.8293396 5.2261354,8.44430651 C5.19426872,6.1559639 6.46893589,4.51222485 8.79520348,4.51222485" id="Path"></path>
            <path d="M30.6251652,0.854224627 C29.8175865,0.427112314 29.268433,0.328547933 28.0732166,0.427112314 C25.941209,0.624241073 24.2937485,2.13556156 24.0030203,2.49696429 L24.0030203,2.59552868 C24.0030203,2.56267388 24.0030203,2.52981909 24.0030203,2.49696429 L24.0030203,2.49696429 L24.0030203,2.49696429 C23.9061108,1.11706297 22.7755007,0 21.3864654,0 C19.9328238,0 18.7699106,1.18277256 18.7376074,2.62838346 L18.7376074,14.3575447 C18.7699106,15.8031556 19.9328238,16.9530734 21.3864654,16.9530734 C22.840107,16.9530734 24.0030203,15.7703008 24.0353234,14.3246899 L24.0353234,11.1377749 C24.0353234,6.80094222 26.5226656,5.68387925 27.9117009,5.65102445 C28.2670355,5.65102445 29.2038267,6.01242718 29.9467991,5.88100801 C31.4004406,5.61816966 32.3372319,4.20541354 32.0788067,2.75980264 C31.8849878,1.90557801 31.3358343,1.21562735 30.6251652,0.854224627" id="Path"></path>
            <path d="M41.9526268,12.6342296 C44.2355442,12.6342296 45.5860024,10.9582603 45.6181561,8.54099704 C45.6181561,6.09150355 44.2355442,4.44776449 41.9526268,4.44776449 C39.6697094,4.44776449 38.2549437,6.09150355 38.2549437,8.54099704 C38.2549437,10.9260301 39.6697094,12.6342296 41.9526268,12.6342296 M41.9526268,0 C46.9686143,0 50.8592201,3.54531952 50.8592201,8.50876686 C50.8592201,13.439984 46.9686143,16.9530734 41.9526268,16.9530734 C36.9366392,16.9530734 33.0138797,13.439984 33.0138797,8.50876686 C33.0138797,3.54531952 36.9366392,0 41.9526268,0" id="Shape"></path>
            <path d="M62.2122557,4.51222485 C63.4231895,4.51222485 64.57039,5.1568284 65.2077235,6.05927337 C65.2395902,6.09150355 65.2395902,6.09150355 65.2714569,6.12373372 C65.3033236,6.1559639 65.3351903,6.18819408 65.3351903,6.22042426 L65.3351903,6.22042426 C65.7494571,6.76833727 66.4186574,7.09063905 67.1515909,7.09063905 C68.4262582,7.09063905 69.4778586,6.02704319 69.4778586,4.73783609 C69.4778586,4.12546272 69.2547918,3.5775497 68.8723917,3.15855739 C67.2790577,1.16028639 65.3670569,0 62.2122557,0 C57.209187,0 53.4170522,3.51308935 53.4170522,8.44430651 C53.4170522,13.439984 57.1773204,16.9530734 62.2122557,16.9530734 C65.4307903,16.9530734 67.3109244,15.8250171 68.9042584,14.0201273 L68.9042584,14.0201273 C69.2547918,13.6011349 69.4778586,13.085452 69.4778586,12.5053088 C69.4778586,11.2161018 68.4581249,10.1847361 67.1834576,10.1847361 C66.4823907,10.1847361 65.8769238,10.5070379 65.462657,10.9904905 C64.6978566,11.7640147 63.8374563,12.5053088 62.2122557,12.5053088 C59.9178548,12.5053088 58.611321,10.8293396 58.611321,8.44430651 C58.6431877,6.1559639 59.9178548,4.51222485 62.2122557,4.51222485" id="Path"></path>
            <path d="M80.1092493,6.43380394 C82.5113544,6.98067727 85.5386649,8.07442393 85.5386649,11.5486781 C85.5386649,14.5082278 83.9591985,16.9530734 78.7272163,16.9530734 C75.535378,16.9530734 73.4623284,15.9880028 72.0144842,14.733411 C71.9815786,14.701242 71.9486732,14.669073 71.9157676,14.636904 C71.8499565,14.6047349 71.8170509,14.5403969 71.7841454,14.5082278 C71.7512398,14.4760588 71.7183343,14.4117208 71.6854287,14.3795518 C71.6196177,14.3152138 71.5867121,14.2508757 71.5538066,14.1865376 C71.5538066,14.1865376 71.520901,14.1543686 71.520901,14.1221997 C71.0931288,13.3501431 71.1918455,12.3850726 71.8499565,11.7416922 C72.6396896,10.9374667 73.9559116,10.9052977 74.7785504,11.6451851 L74.7785504,11.6451851 L74.7456448,11.6130161 C75.7986224,12.4172416 77.0490332,12.8997769 78.3981608,12.8997769 C80.1092493,12.8997769 80.6686437,12.5780867 80.6686437,11.9025372 C80.6686437,11.0018047 79.6156661,11.0018047 76.9174111,10.3262553 C74.6469282,9.74721298 72.1132009,8.52479021 72.1132009,5.14704315 C72.1132009,1.4797749 74.9759837,0 78.5297829,0 C81.2609435,0 83.2023709,0.868563531 84.5514984,2.21966235 C84.9792706,2.57352157 85.242515,3.12039491 85.242515,3.69943726 C85.242515,4.82535295 84.3211596,5.7260855 83.1694654,5.7260855 C82.610071,5.7260855 82.1164878,5.53307138 81.7545267,5.17921217 L81.7545267,5.17921217 C80.9647936,4.53583177 79.8130993,3.95678942 78.5626885,3.95678942 C77.3780887,3.95678942 76.7857888,4.27847961 76.7857888,4.92186001 C76.7857888,5.82259256 77.8387664,5.95126864 80.1092493,6.43380394" id="Path"></path>
            <polygon id="Path" points="87.3231989 0.356906808 87.3231989 0 85.5386649 0 85.5386649 0.356906808 86.1784035 0.356906808 86.1784035 1.78453404 86.7171308 1.78453404 86.7171308 0.356906808"></polygon>
            <polygon id="Path" points="89.4646398 1.78453404 89.4646398 0.521633027 89.4646398 0.521633027 88.8578982 1.78453404 88.4653007 1.78453404 87.8585592 0.521633027 87.8585592 0.521633027 87.8585592 1.78453404 87.3231989 1.78453404 87.3231989 0 88.1083939 0 88.6794448 1.1805379 89.2504957 0 90 0 90 1.78453404"></polygon>
        </g>
    </g>
</svg>