<?xml version="1.0" encoding="UTF-8"?>
<svg width="110px" height="60px" viewBox="0 0 110 60" version="1.1" xmlns="http://www.w3.org/2000/svg" xmlns:xlink="http://www.w3.org/1999/xlink">
    <title>Media/Brand Logos/Dark/brand-diadora-dark</title>
    <g id="Symbols" stroke="none" stroke-width="1" fill="none" fill-rule="evenodd">
        <g id="Media/Brand-Logos/Dark/brand-diadora-dark" fill="#252324" fill-rule="nonzero">
            <g id="Image" transform="translate(19.000000, 16.000000)">
                <g id="giallo">
                    <path d="M68.8392312,14.746687 L68.8392312,12.4998697 C68.8426449,12.2245153 69.0668434,12.0030961 69.3422189,12.0031173 C69.4770326,12.0003031 69.6072427,12.0521875 69.7031767,12.1469467 C69.7991106,12.2417059 69.8525952,12.371267 69.8514604,12.5061051 L69.8389713,23.5032468 C69.8355576,23.7786012 69.6113591,24 69.3359836,24 C69.0527311,24.0004821 68.8183507,23.7797815 68.8018189,23.4970114 L68.8018189,21.2356449 L68.7353081,21.3063126 C67.2697727,23.505231 64.5375299,24.4855605 62.0083232,23.7199566 C59.4791164,22.9543527 57.7492408,20.6233171 57.7492408,17.9807736 C57.7492408,15.3382301 59.4791164,13.0071946 62.0083232,12.2415907 C64.5375299,11.4759868 67.2697727,12.4563162 68.7353081,14.6552346 L68.8392312,14.746687 Z" id="Path"></path>
                    <path d="M47.6929601,23.993817 C50.964501,24.0074823 53.6281629,21.3673229 53.6435042,18.0957889 C53.6587136,14.8242549 51.0198221,12.159337 47.7482957,12.1424247 C44.4767693,12.1256726 41.8105959,14.7632956 41.7921009,18.0348136 C41.7828103,19.6069373 42.398762,21.1183125 43.504382,22.2360179 C44.6100021,23.3537233 46.1145918,23.9860691 47.6867247,23.993817" id="Path"></path>
                    <path d="M27.2284245,14.746687 L27.2284245,12.4998697 C27.2284245,12.224373 27.4517587,12.0010388 27.7272554,12.0010388 C28.0027521,12.0010388 28.2260862,12.224373 28.2260862,12.4998697 L28.2156939,23.4970114 C28.2122802,23.7723658 27.9880817,23.9937644 27.7127062,23.9937644 C27.4298416,23.9941871 27.1960888,23.7732177 27.1806199,23.4907761 L27.1806199,21.2294095 L27.1141091,21.3000772 C25.6484318,23.5003094 22.9151043,24.4815624 20.3846873,23.7159111 C17.8542704,22.9502598 16.1234658,20.6182538 16.1234658,17.9745382 C16.1234658,15.3308227 17.8542704,12.9988167 20.3846873,12.2331654 C22.9151043,11.4675141 25.6484318,12.4487671 27.1141091,14.6489993 L27.2284245,14.746687 Z" id="Path"></path>
                    <path d="M14.4895317,3.99482109 C14.6221892,3.99591036 14.7498233,3.94412932 14.8442128,3.85090995 C14.9386023,3.75769058 14.9919714,3.63071227 14.9925195,3.49805133 L14.9925195,1.48402177 C14.9925195,1.20784461 14.7698564,0.983316458 14.4936887,0.981029648 C14.361582,0.98048125 14.2346965,1.03257339 14.1410873,1.12579251 C14.0474781,1.21901164 13.9948533,1.34567856 13.9948533,1.47778639 L13.9948533,3.49181594 C13.9937038,3.76765517 14.215778,3.99251699 14.4916102,3.99482109" id="Path"></path>
                    <path d="M14.4832964,23.9999992 C14.6168638,23.9999992 14.7448155,23.946268 14.8382792,23.850849 C14.931743,23.75543 14.982843,23.6263927 14.9800487,23.4928545 L14.9800487,12.5040266 C14.9800488,12.3258115 14.8849721,12.161134 14.7306333,12.0720264 C14.5762945,11.9829188 14.3861413,11.9829188 14.2318025,12.0720264 C14.0774637,12.161134 13.9823827,12.3258115 13.9823827,12.5040266 L13.9823827,23.4928545 C13.9818347,23.6257043 14.0340798,23.7533322 14.127629,23.8476609 C14.2211782,23.9419897 14.3483681,23.9952922 14.4812179,23.9958423" id="Path"></path>
                    <path d="M56.2063399,17.9932444 C56.2184253,15.872997 57.0730142,13.8445514 58.5818012,12.3548679 C60.0905883,10.8651844 62.1297581,10.0365106 64.2499874,10.0514416 C64.5254542,10.0584609 64.7552874,9.84252888 64.7654459,9.56715999 C64.7610611,9.28707319 64.5362646,9.06044171 64.2562228,9.0537799 C60.8755388,9.03335736 57.7676417,10.9062806 56.2063399,13.9049099 L56.2063399,13.9319299 L56.2063399,12.510262 C56.218334,12.3247412 56.1261656,12.1479433 55.967202,12.0515463 C55.8082385,11.9551493 55.6088582,11.9551493 55.4498946,12.0515463 C55.290931,12.1479433 55.1987626,12.3247412 55.2107567,12.510262 L55.2107567,23.4928545 C55.2107567,23.6257039 55.2635309,23.7531122 55.3574696,23.8470509 C55.4514084,23.9409896 55.5788166,23.9937638 55.711666,23.9937638 C55.8428468,23.9937638 55.9685661,23.94124 56.0607372,23.8478972 C56.1529083,23.7545544 56.2038506,23.6281816 56.202183,23.4970114 L56.2063399,17.9932444 Z" id="Path"></path>
                    <path d="M39.9922589,14.746687 L39.9922589,0.500909311 C39.9922589,0.22541264 40.2155931,0.00207846187 40.4910897,0.00207846187 C40.7665864,0.00207846187 40.9899206,0.22541264 40.9899206,0.500909311 L40.9899206,23.4928545 C40.9876381,23.7701702 40.7621794,23.9937638 40.4848543,23.9937638 L40.4349713,23.9937638 C40.1605583,23.9881482 39.9404112,23.7652377 39.9382189,23.4907761 L39.9506896,21.2294095 L39.8862573,21.3021557 C38.4200133,23.5076417 35.6823481,24.4925889 33.147091,23.7267482 C30.6118339,22.9609076 28.8773136,20.6250201 28.8773136,17.9766167 C28.8773136,15.3282134 30.6118339,12.9923258 33.147091,12.2264852 C35.6823481,11.4606446 38.4200133,12.4455917 39.8862573,14.6510777 L39.9922589,14.746687 Z" id="Path"></path>
                    <path d="M11.0995604,14.746687 L11.0995604,0.500909311 C11.0995604,0.224264737 11.3238252,0 11.6004697,0 C11.8771143,0 12.1013791,0.224264737 12.1013791,0.500909311 L12.1013791,23.4928545 C12.0979772,23.7696971 11.873174,23.99265 11.5963128,23.9937638 L11.5505867,23.9937638 C11.2768533,23.9892409 11.0570067,23.7666231 11.0559127,23.4928545 L11.066305,21.231488 L10.9997943,21.3042342 C9.53383332,23.5070935 6.79833674,24.4901936 4.2654996,23.7244476 C1.73266246,22.9587016 0,20.6247547 0,17.9786952 C0,15.3326357 1.73266246,12.9986888 4.2654996,12.2329428 C6.79833674,11.4671967 9.53383332,12.4502968 10.9997943,14.6531562 L11.0995604,14.746687 Z" id="Path"></path>
                </g>
                <g id="fregio_nero" transform="translate(42.043701, 0.972720)">
                    <path d="M0,0.669264722 L0.579890862,0.174590797 C2.21056776,0.822066457 3.92270165,1.24170712 5.66796552,1.42166792 C7.50179805,1.62797746 9.34451537,1.1187174 10.8121586,0 L14.1273053,1.98077416 C12.6926347,3.01853345 10.9900731,3.62236568 9.22213532,3.72044675 C10.7539617,4.75967768 12.9799944,7.06677036 14.1273053,8.91660142 L9.67316154,8.91660142 C7.84560733,4.85831656 4.29621213,1.83210252 0,0.669264722 L0,0.669264722 Z" id="Path"></path>
                </g>
            </g>
        </g>
    </g>
</svg>