<?xml version="1.0" encoding="UTF-8"?>
<svg width="110px" height="60px" viewBox="0 0 110 60" version="1.1" xmlns="http://www.w3.org/2000/svg" xmlns:xlink="http://www.w3.org/1999/xlink">
    <title>Media/Brand Logos/Dark/brand-skechers-dark</title>
    <g id="Symbols" stroke="none" stroke-width="1" fill="none" fill-rule="evenodd">
        <g id="Media/Brand-Logos/Dark/brand-skechers-dark" fill="#252324" fill-rule="nonzero">
            <g id="Image" transform="translate(16.000000, 15.000000)">
                <path d="M15.0525441,25.39465 C15.4659492,24.4833583 14.8984693,24.1305443 13.5517864,24.1305443 L11.3003903,24.1324486 C10.8108133,24.1312368 10.7076351,24.0922853 10.8166993,23.8563258 L10.9785644,23.5054162 C11.0774146,23.2777664 11.2216217,23.2337944 11.7120642,23.2332751 L14.6614711,23.2320633 C15.2704993,23.2313708 15.5275791,23.3116974 15.856676,23.4384196 L16.1492449,22.1938762 L10.2660118,22.1947418 C9.14386262,22.1940493 8.27238794,22.7028424 7.82678289,23.6844199 L7.19403756,25.0851155 C6.70619178,26.1297079 7.05658208,26.4406274 8.3179179,26.4409736 L10.9051625,26.4416661 C11.4001061,26.4411467 11.4812983,26.4903122 11.3763889,26.7174427 L11.1792078,27.1476402 C11.0763759,27.3806567 10.948615,27.4190888 10.4564413,27.4197813 L7.3915649,27.4197813 C6.76037763,27.4194351 6.51108809,27.3029268 6.25470073,27.1862455 L5.93910709,28.4622963 L11.6635913,28.4609114 C13.186508,28.4598727 13.8988875,27.9086658 14.3491667,26.9263958 L15.0525441,25.3944769 M30.409126,25.7318834 C31.1422796,25.731364 31.4642786,25.8217315 31.7679271,25.9001538 L32.3959982,24.5325237 C32.0194671,24.6059256 31.6181802,24.6959468 30.8883159,24.6952544 L28.6239359,24.6950813 L29.2997875,23.2305052 L31.8792418,23.2289472 C32.6255523,23.2303321 32.9472051,23.3141211 33.2508536,23.3953133 L33.5442882,22.1911063 L26.3413785,22.1904139 C26.3896784,22.4379722 26.3782526,22.6702962 26.1087083,23.2649556 L24.2288228,27.3787524 C24.0572631,27.7497437 23.9104593,27.9782591 23.7601931,28.1600327 C23.5682055,27.8273005 23.4265952,27.4479995 23.333631,27.1748197 L22.3215847,24.0406962 L24.4221953,22.809656 C25.0211827,22.4540722 25.3499332,22.3481241 25.7976157,22.1904139 L22.8963356,22.1917988 C22.8729647,22.2721254 22.8553067,22.3482972 22.8196444,22.4262002 C22.7240834,22.6358458 22.5694893,22.7878432 22.0667554,23.1056873 L19.0238649,25.0046158 L19.8167442,23.2659943 C20.088539,22.6696037 20.3016469,22.4388378 20.5701526,22.1907601 L16.8737427,22.1931837 C16.9234274,22.4397034 16.9178877,22.6706425 16.6443617,23.2659943 L14.7644762,27.3813492 C14.4932007,27.9763548 14.2840744,28.2076401 14.0133183,28.4610845 L17.702111,28.4614307 C17.6636789,28.2079864 17.6640251,27.9747968 17.9332232,27.3806567 L18.3668831,26.4406274 L19.4111293,25.8023423 L20.0558198,28.4595264 L30.8024495,28.4569297 L31.6424167,27.2497797 C31.2804275,27.3262977 30.8770632,27.4154534 30.1406204,27.4159727 L27.3802581,27.4159727 L28.1544406,25.7320565 L30.4089528,25.7315371 M39.9117316,26.9350516 C39.9117316,26.9350516 38.9083412,27.1697993 37.647871,27.1694531 C37.647871,27.1694531 36.417177,27.1727423 36.1623477,27.1691068 C35.8403487,27.1673756 35.7418447,27.0789125 35.8638927,26.770936 C35.9850751,26.4626133 37.2109218,23.8279345 37.2109218,23.8279345 C37.2540281,23.7328929 37.4075836,23.4726969 37.8028114,23.4726969 L40.1336686,23.4733894 C40.7134399,23.4718313 41.2338318,23.6679737 41.2338318,23.6679737 L41.6043037,22.2260761 L41.5854339,22.2276342 L41.5963403,22.1888558 L36.6015474,22.1895483 C35.2434387,22.1895483 34.2680934,22.6782596 33.6486782,24.0322134 L32.4694001,26.6153032 C31.8498118,27.9609473 32.3847456,28.4571028 33.7326403,28.4571028 L38.8605607,28.4550254 L39.9119047,26.9350516 M48.9832741,27.373732 L50.8659295,23.2592428 C51.1351276,22.6652758 51.3492742,22.4336443 51.6132787,22.1860859 L47.9218893,22.1878171 C47.967073,22.4341636 47.9648225,22.6652758 47.690604,23.2599352 L47.0388157,24.6933501 L44.669007,24.6930038 L45.3270275,23.2611471 C45.6024578,22.6642371 45.8098529,22.433298 46.0818208,22.1872977 L42.3873152,22.1893751 C42.4328452,22.4352023 42.4283441,22.6651027 42.1499708,23.2616664 L40.2733746,27.3770212 C39.9982905,27.9685645 39.7881256,28.204524 39.5149458,28.4551985 L43.2099707,28.4538135 C43.16773,28.2036584 43.1692881,27.9694301 43.4476614,27.3758094 L44.2012429,25.7296328 L46.5637806,25.728421 L45.8122765,27.37529 C45.539443,27.9683914 45.3284125,28.2022735 45.0593875,28.4539867 L48.7480071,28.4534673 C48.7038621,28.2026197 48.7092287,27.9680452 48.9834472,27.3733858 M55.6436328,27.4111254 L52.8915801,27.4106061 L53.6583186,25.7277286 L55.9206211,25.7272092 C56.6454651,25.7259974 56.9750813,25.8158455 57.2749212,25.8939216 L57.9021267,24.5275033 C57.5242107,24.602117 57.124655,24.6914458 56.4003304,24.6909264 L54.1317956,24.6905802 L54.8057429,23.2239267 L57.390737,23.2234074 C58.1372206,23.2240999 58.4564497,23.3092738 58.7606176,23.3890811 L59.0500705,22.1850472 L51.8509694,22.1867784 C51.8932101,22.4338174 51.8883628,22.6649296 51.613625,23.2611471 L49.7375481,27.3735589 C49.4614253,27.9682183 49.247798,28.2022735 48.9836203,28.452948 L56.3113479,28.451563 L57.1499302,27.2445862 C56.7946926,27.3235278 56.3833648,27.4125104 55.6436328,27.4109523 M64.9772755,23.5724127 L64.632425,24.3379394 C64.4939308,24.6412416 64.3547441,24.6895415 63.944282,24.6898877 L62.1523403,24.6904071 L62.8325199,23.2240999 L64.6171906,23.2227031 C65.0234979,23.2218493 65.1207901,23.2678986 64.9771024,23.5724127 L64.9772755,23.5724127 Z M65.8920296,25.7253049 C66.5872704,25.6899889 67.2065126,25.6396116 67.6299586,24.7203564 L68.1543322,23.5661805 C68.6343877,22.5157021 68.084912,22.1834891 66.6303768,22.1834891 L59.7927455,22.184701 C59.9144473,22.4327787 59.9104656,22.6623328 59.6353815,23.259589 L57.756881,27.373732 C57.484913,27.9676989 57.2768255,28.2005423 57.0001833,28.4522555 L60.6938234,28.4513899 C60.650717,28.2005423 60.65366,27.966314 60.9259742,27.3728664 L61.6757472,25.7270361 L62.6536892,25.725478 L62.9145777,28.4508705 L66.4627988,28.4513899 C66.2926241,28.213353 66.2891617,27.888411 66.2164523,27.4888553 L65.8918565,25.7253049 M71.7799369,23.4939904 C71.8867506,23.2661675 72.0242061,23.2206375 72.5215733,23.2194257 L75.4685565,23.2202913 C76.0815664,23.2211569 76.3284323,23.3011372 76.6618571,23.4268207 L77.0711074,22.1796806 L71.0666919,22.1831429 C69.9476588,22.1827967 69.0815508,22.6908972 68.6307522,23.672821 L67.9992187,25.0735166 C67.5136235,26.1189746 67.8648793,26.4300672 69.1236184,26.4300672 L71.7113823,26.4293747 C72.2023442,26.4288554 72.2911536,26.4775015 72.1824357,26.7067094 L71.9852546,27.1362145 C71.882942,27.3688847 71.7586435,27.4081824 71.2562558,27.4088749 L68.1939762,27.4095674 C67.5749071,27.4095674 67.31298,27.2918473 67.0550346,27.1753391 L66.7484431,28.4503512 L72.4656563,28.4494856 C73.9909967,28.44862 74.7049342,27.8951626 75.1571177,26.9127195 L75.8578983,25.3825318 C76.2752852,24.4714131 75.7090171,24.1187723 74.3557557,24.1194648 L72.1052252,24.119811 C71.6092429,24.1194648 71.5091808,24.0820714 71.6196299,23.8445538 L71.7797638,23.4941635 M76.0213215,28.3070097 L76.1722801,28.3070097 C76.2894808,28.3070097 76.3431473,28.2732517 76.3431473,28.2057358 C76.3431473,28.1357963 76.292597,28.1046351 76.1859564,28.1046351 L76.0213215,28.1046351 L76.0213215,28.3070097 Z M76.2055187,28.0042268 C76.3737892,28.0042268 76.4645029,28.0713965 76.4645029,28.1962144 C76.4645029,28.2569787 76.4466717,28.289871 76.3909278,28.3381709 L76.3936977,28.3712364 L76.4243396,28.4077642 C76.4305718,28.4148621 76.4342073,28.428019 76.4404395,28.4508705 C76.4469604,28.4672679 76.4506483,28.4846539 76.4513459,28.5022865 L76.4575782,28.5495477 L76.4612136,28.5930002 L76.4645029,28.6205259 C76.4645029,28.6335098 76.4645029,28.6366259 76.4778329,28.6773085 L76.3571699,28.6773085 C76.3431473,28.6464936 76.3400312,28.6399151 76.3358764,28.566167 C76.3268743,28.425076 76.3061001,28.4011858 76.1722801,28.4011858 L76.0242645,28.4011858 L76.0242645,28.6740193 L75.8963305,28.6740193 L75.8963305,28.0042268 L76.2053456,28.0042268 M75.6342302,28.3476924 C75.6342302,28.6438968 75.8767682,28.8859154 76.1757425,28.8859154 C76.472223,28.8843968 76.7120585,28.6441749 76.7130999,28.3476924 C76.7130999,28.0478525 76.4736781,27.80895 76.1757425,27.80895 C75.8767682,27.80895 75.6342302,28.0478525 75.6342302,28.3476924 M76.8334168,28.3476924 C76.8334168,28.7076041 76.538251,29 76.1757425,29 C75.8092522,29 75.5137403,28.7076041 75.5137403,28.3476924 C75.5137403,27.9843182 75.8092522,27.6907106 76.1757425,27.6907106 C76.5386562,27.6908058 76.8329393,27.9847789 76.8334168,28.3476924" id="Shape"></path>
                <path d="M38.1255028,6.74086773 L37.4491318,7.9547693 L35.3460976,7.9547693 C36.4164845,8.75872807 36.7048987,9.98318981 36.7055911,10.7019747 C36.7074954,11.5556182 36.4216781,12.5049959 35.8635465,13.5288142 C33.8519184,17.2075661 31.7466336,18.4780771 27.1950221,18.7564504 L27.1756329,18.7578354 C25.0281074,18.8563394 21.8081175,18.8563394 18.5233816,18.8563394 C15.2386456,18.8563394 10.3385481,18.8495878 9.23457632,18.7945363 C7.06835409,18.6875496 5.29995641,18.3904795 4.46327839,17.0138473 C3.59595854,15.5873572 4.24220704,13.9224839 4.60367688,13.2210108 C4.80830204,12.8240519 5.52345141,11.5339785 5.52345141,11.5339785 L8.70310487,11.5339785 C7.14504524,10.5610568 6.43180017,8.4457312 7.57195358,6.20056728 C8.8869559,3.6102066 10.3025396,1.83851969 13.6771237,1.20629371 C15.7095259,0.812797099 20.4259455,0.81435511 22.4398241,0.81435511 L33.12794,0.852960414 C34.5918236,0.868194775 37.5943776,0.923419332 38.6690925,3.08825662 C39.3323066,4.42403307 38.6921172,5.75548158 38.1255028,6.74104085 L38.1255028,6.74086773 Z M42.1219258,2.25175172 C41.1064171,0.742684416 38.987456,0.0356715819 35.6319149,0.0356715819 C32.1681753,0.0356715819 24.1516123,0.000355563726 21.8901753,0.000355563726 C19.5369859,0.000355563726 14.4615201,-0.0294206869 11.7520544,0.456001445 C7.66353286,1.18794323 5.46701503,3.48435 4.40130224,5.76708047 C3.65533792,7.36461094 3.0236313,9.98457475 4.68313792,11.5615042 L1.88226607,11.5615042 C1.88226607,11.5615042 1.09440725,12.6935211 0.664382794,13.5104637 C-0.166928575,15.0910286 -0.373804269,16.9534292 0.96058724,18.1404975 C1.94043363,19.0114529 3.90722423,19.6570089 6.61080391,19.6570089 L26.5290381,19.6592594 C33.8179873,19.6592594 36.4985423,18.1065665 38.974126,14.1117016 C39.6624421,13.0013244 41.1064171,9.89438041 38.3370527,8.05690876 L40.9171994,8.05690876 L41.8193159,6.47253524 C42.8519632,4.67211079 42.9667403,3.50685531 42.1220989,2.25192484" id="Shape"></path>
                <path d="M15.0547946,12.5487947 L14.946596,12.806567 C14.3474355,14.1996454 16.034641,14.1883927 17.249235,14.1954906 L23.5943463,14.1418241 C24.884939,14.0971597 26.0604084,14.1058156 26.6497012,12.8202433 C27.2059285,11.6018406 25.8504166,11.4894872 24.6096818,11.4894872 C24.6096818,11.4894872 17.3898066,11.5305161 14.3415495,11.3309114 C10.7443361,11.1283636 10.2268872,9.79726136 11.5171337,6.97630786 C12.5400864,4.74239659 13.748275,3.2090928 17.0131024,2.59833343 C19.2118708,2.17159821 23.4757606,2.14822731 25.6449259,2.14822731 L29.6252489,2.19306481 C31.9258105,2.215397 34.507169,2.2379023 35.0422759,4.0211881 C35.2605774,4.89924126 34.7569779,5.93812079 34.3520555,6.88715222 L28.7459839,6.88715222 C29.1768739,5.75755899 28.444759,5.50930816 27.197792,5.46533626 C25.409832,5.43071271 22.0975703,5.44612019 20.0284672,5.55449189 C18.9935693,5.60071432 17.8400859,5.7800643 17.4275463,6.68270018 C16.7553301,8.14935363 18.8574988,7.98921973 20.1283561,8.03457658 L27.6527454,8.10399679 C32.0194671,8.10399679 34.2729407,8.7805409 32.4860194,12.6848652 C30.7927549,16.3838719 28.4556654,17.0621472 23.9928633,17.3308259 C20.8717237,17.5032511 15.7860439,17.5465306 13.0959674,17.4225783 C9.57180967,17.260367 7.42774651,16.8807198 8.9972319,13.4517768 L9.41063705,12.5487947 L15.0547946,12.5487947" id="Path"></path>
            </g>
        </g>
    </g>
</svg>